{
.appVersion = "3151";
.formatVersion = 3;
DisplayStrings = (
"Hþ"
);
axes = (
{
name = Scanlines;
tag = SCAN;
},
{
name = Bleed;
tag = BLED;
}
);
classes = (
{
code = "upArrow
leftArrow
space
boxHeavyHorizontal
spadeBlackSuit
boxHeavyVertical
uniE000
uniE001
uniE002
uniE003
uniE004
uniE005
boxLightArcDownAndLeft
boxLightArcUpAndRight
boxLightArcUpAndLeft
uniE006
boxLightDiagonalUpperLeftToLowerRight
boxLightDiagonalUpperRightToLowerLeft
uniE007
uniE008
blackCircle
uniE009
heartBlackSuit
uniE00A
boxLightArcDownAndRight
boxLightDiagonalCross
whiteCircle
clubBlackSuit
uniE00B
diamondBlackSuit
boxHeavyVerticalAndHorizontal
uniE00C
uniE00D
pi
upperRightBlackTriangle
nbspace
leftBlock
lowerHalfBlock
upperOneEighthBlock
lowerOneEighthBlock
leftOneEighthBlock
shadedark
rightOneEighthBlock
uniE00E
upperLeftBlackTriangle
uniE00F
boxHeavyVerticalAndRight
lowerRightBlock
boxHeavyUpAndRight
boxHeavyDownAndLeft
lowerOneQuarterBlock
boxHeavyDownAndRight
boxHeavyUpAndHorizontal
boxHeavyDownAndHorizontal
boxHeavyVerticalAndLeft
leftOneQuarterBlock
leftThreeEighthsBlock
uniE010
uniE011
uniE012
lowerThreeEighthsBlock
uniE013
lowerLeftBlock
upperRightBlock
boxHeavyUpAndLeft
upperLeftBlock
upperLeftAndLowerRightBlock
upperlefttolowerrightFillSquare
upperrighttolowerleftFillSquare
checkmark
rightArrow
downArrow
";
name = rev_gfx_source;
},
{
code = "uniE032
uniE033
fullBlock
uniE053
spadeWhiteSuit
uniE054
uniE055
uniE056
uniE057
uniE058
uniE059
uniE05A
uniE05B
uniE05C
uniE05D
uniE05E
uniE05F
uniE060
uniE061
uniE062
inverseBullet
uniE063
heartWhiteSuit
uniE064
uniE065
uniE066
inverseWhiteCircle
clubWhiteSuit
uniE067
diamondWhiteSuit
uniE068
uniE069
uniE06A
uniE06B
lowerLeftBlackTriangle
uniE06C
rightBlock
upperHalfBlock
lowerSevenEighthsBlock
uniE06D
uniE06E
uniE06F
leftSevenEighthsBlock
uniE070
lowerRightBlackTriangle
leftThreeQuartersBlock
uniE071
upperLeftAndUpperRightAndLowerLeftBlock
uniE072
uniE073
uniE074
uniE075
uniE076
uniE077
uniE078
uniE079
uniE07A
leftFiveEighthsBlock

glyphs = (
{
color = 4;
glyphname = A;
layers = (
{
background = {
shapes = (
{
closed = 1;
nodes = (
(387,381,l,{
name = hr00;
}),
(637,381,l),
(637,-3,l),
(899,-3,l),
(899,643,l),
(771,643,l),
(771,771,l),
(643,771,l),
(643,899,l),
(381,899,l),
(381,771,l),
(253,771,l),
(253,643,l),
(125,643,l),
(125,-3,l),
(387,-3,l)
);
},
{
closed = 1;
nodes = (
(387,637,l),
(637,637,l),
(637,515,l),
(387,515,l)
);
}
);
};
layerId = "511DE76B-C93C-4D1E-A4F3-1BF977EE06C9";
shapes = (
{
pos = (128,0);
ref = pixel.2;
},
{
pos = (640,0);
ref = pixel.2;
},
{
pos = (128,128);
ref = pixel.2;
},
{
pos = (640,128);
ref = pixel.2;
},
{
pos = (128,256);
ref = pixel.2;
},
{
pos = (640,256);
ref = pixel.2;
},
{
pos = (128,384);
ref = pixel.6;
},
{
pos = (128,512);
ref = pixel.2;
},
{
pos = (640,512);
ref = pixel.2;
},
{
pos = (256,640);
ref = pixel.4;
},
{
pos = (384,768);
ref = pixel.2;
}
);
width = 1024;
},
{
background = {
shapes = (
{
closed = 1;
nodes = (
(387,381,l,{
name = hr00;
}),
(637,381,l),
(637,-3,l),
(899,-3,l),
(899,643,l),
(771,643,l),
(771,771,l),
(643,771,l),
(643,899,l),
(381,899,l),
(381,771,l),
(253,771,l),
(253,643,l),
(125,643,l),
(125,-3,l),
(387,-3,l)
);
},
{
closed = 1;
nodes = (
(387,637,l),
(637,637,l),
(637,515,l),
(387,515,l)
);
}
);
};
layerId = "A1CF3A9E-1F49-4701-AF3E-F0E694793914";
shapes = (
{
pos = (128,0);
ref = pixel.2;
},
{
pos = (640,0);
ref = pixel.2;
},
{
pos = (128,128);
ref = pixel.2;
},
{
pos = (640,128);
ref = pixel.2;
},
{
pos = (128,256);
ref = pixel.2;
},
{
pos = (640,256);
ref = pixel.2;
},
{
pos = (128,384);
ref = pixel.6;
},
{
pos = (128,512);
ref = pixel.2;
},
{
pos = (640,512);
ref = pixel.2;
},
{
pos = (256,640);
ref = pixel.4;
},
{
pos = (384,768);
ref = pixel.2;
}
);
width = 1024;
},
{
background = {
shapes = (
{
closed = 1;
nodes = (
(387,381,l,{
name = hr00;
}),
(637,381,l),
(637,-3,l),
(899,-3,l),
(899,643,l),
(771,643,l),
(771,771,l),
(643,771,l),
(643,899,l),
(381,899,l),
(381,771,l),
(253,771,l),
(253,643,l),
(125,643,l),
(125,-3,l),
(387,-3,l)
);
},
{
closed = 1;
nodes = (
(387,637,l),
(637,637,l),
(637,515,l),
(387,515,l)
);
}
);
};
layerId = "93054D9F-9072-4363-B5A9-8BAB03B66C21";
shapes = (
{
pos = (128,0);
ref = pixel.2;
},
{
pos = (640,0);
ref = pixel.2;
},
{
pos = (128,128);
ref = pixel.2;
},
{
pos = (640,128);
ref = pixel.2;
},
{
pos = (128,256);
ref = pixel.2;
},
{
pos = (640,256);
ref = pixel.2;
},
{
pos = (128,384);
ref = pixel.6;
},
{
pos = (128,512);
ref = pixel.2;
},
{
pos = (640,512);
ref = pixel.2;
},
{
pos = (256,640);
ref = pixel.4;
},
{
pos = (384,768);
ref = pixel.2;
}
);
width = 1024;
},
{
background = {
shapes = (
{
closed = 1;
nodes = (
(387,381,l,{
name = hr00;
}),
(637,381,l),
(637,-3,l),
(899,-3,l),
(899,643,l),
(771,643,l),
(771,771,l),
(643,771,l),
(643,899,l),
(381,899,l),
(381,771,l),
(253,771,l),
(253,643,l),
(125,643,l),
(125,-3,l),
(387,-3,l)
);
},
{
closed = 1;
nodes = (
(387,637,l),
(637,637,l),
(637,515,l),
(387,515,l)
);
}
);
};
layerId = "B2CED426-8D3E-4D4E-926E-917DB7E3651C";
shapes = (
{
pos = (128,0);
ref = pixel.2;
},
{
pos = (640,0);
ref = pixel.2;
},
{
pos = (128,128);
ref = pixel.2;
},
{
pos = (640,128);
ref = pixel.2;
},
{
pos = (128,256);
ref = pixel.2;
},
{
pos = (640,256);
ref = pixel.2;
},
{
pos = (128,384);
ref = pixel.6;
},
{
pos = (128,512);
ref = pixel.2;
},
{
pos = (640,512);
ref = pixel.2;
},
{
pos = (256,640);
ref = pixel.4;
},
{
pos = (384,768);
ref = pixel.2;
}
);
width = 1024;
}
);
unicode = 65;
userData = {
com.typemytype.robofont.mark = (
1,
0.6,
0.6,
1
);
};
},
{
color = 6;
glyphname = Aacute;
layers = (
{
background = {
shapes = (
{
closed = 1;
nodes = (
(771,899,l,{
name = hr00;
}),
(509,899,l),
(509,771,l),
(381,771,l),
(381,643,l),
(253,643,l),
(253,515,l),
(125,515,l),
(125,-3,l),
(387,-3,l),
(387,253,l),
(637,253,l),
(637,-3,l),
(899,-3,l),
(899,515,l),
(771,515,l),
(771,643,l),
(643,643,l),
(643,765,l),
(771,765,l)
);
},
{
closed = 1;
nodes = (
(387,509,l),
(637,509,l),
(637,387,l),
(387,387,l)
);
}
);
};
layerId = "511DE76B-C93C-4D1E-A4F3-1BF977EE06C9";
shapes = (
{
ref = A.case;
},
{
ref = acute;
}
);
width = 1024;
},
{
background = {
shapes = (
{
closed = 1;
nodes = (
(771,899,l,{
name = hr00;
}),
(509,899,l),
(509,771,l),
(381,771,l),
(381,643,l),
(253,643,l),
(253,515,l),
(125,515,l),
(125,-3,l),
(387,-3,l),
(387,253,l),
(637,253,l),
(637,-3,l),
(899,-3,l),
(899,515,l),
(771,515,l),
(771,643,l),
(643,643,l),
(643,765,l),
(771,765,l)
);
},
{
closed = 1;
nodes = (
(387,509,l),
(637,509,l),
(637,387,l),
(387,387,l)
);
}
);
};
layerId = "A1CF3A9E-1F49-4701-AF3E-F0E694793914";
shapes = (
{
ref = A.case;
},
{
ref = acute;
}
);
width = 1024;
},
{
background = {
shapes = (
{
closed = 1;
nodes = (
(771,899,l,{
name = hr00;
}),
(509,899,l),
(509,771,l),
(381,771,l),
(381,643,l),
(253,643,l),
(253,515,l),
(125,515,l),
(125,-3,l),
(387,-3,l),
(387,253,l),
(637,253,l),
(637,-3,l),
(899,-3,l),
(899,515,l),
(771,515,l),
(771,643,l),
(643,643,l),
(643,765,l),
(771,765,l)
);
},
{
closed = 1;
nodes = (
(387,509,l),
(637,509,l),
(637,387,l),
(387,387,l)
);
}
);
};
layerId = "93054D9F-9072-4363-B5A9-8BAB03B66C21";
shapes = (
{
ref = A.case;
},
{
ref = acute;
}
);
width = 1024;
},
{
background = {
shapes = (
{
closed = 1;
nodes = (
(771,899,l,{
name = hr00;
}),
(509,899,l),
(509,771,l),
(381,771,l),
(381,643,l),
(253,643,l),
(253,515,l),
(125,515,l),
(125,-3,l),
(387,-3,l),
(387,253,l),
(637,253,l),
(637,-3,l),
(899,-3,l),
(899,515,l),
(771,515,l),
(771,643,l),
(643,643,l),
(643,765,l),
(771,765,l)
);
},
{
closed = 1;
nodes = (
(387,509,l),
(637,509,l),
(637,387,l),
(387,387,l)
);
}
);
};
layerId = "B2CED426-8D3E-4D4E-926E-917DB7E3651C";
shapes = (
{
ref = A.case;
},
{
ref = acute;
}
);
width = 1024;
}
);
unicode = 193;
userData = {
com.typemytype.robofont.mark = (
0.967,
0.6,
1,
1
);
};
},
{
color = 6;
glyphname = Acircumflex;
layers = (
{
background = {
shapes = (
{
closed = 1;
nodes = (
(387,125,l,{
name = hr00;
}),
(637,125,l),
(637,-3,l),
(899,-3,l),
(899,387,l),
(771,387,l),
(771,515,l),
(643,515,l),
(643,637,l),
(899,637,l),
(899,771,l),
(771,771,l),
(771,899,l),
(253,899,l),
(253,771,l),
(125,771,l),
(125,637,l),
(381,637,l),
(381,515,l),
(253,515,l),
(253,387,l),
(125,387,l),
(125,-3,l),
(387,-3,l)
);
},
{
closed = 1;
nodes = (
(387,765,l),
(637,765,l),
(637,643,l),
(387,643,l)
);
},
{
closed = 1;
nodes = (
(387,381,l),
(637,381,l),
(637,259,l),
(387,259,l)
);
}
);
};
layerId = "511DE76B-C93C-4D1E-A4F3-1BF977EE06C9";
shapes = (
{
ref = A.case;
},
{
ref = circumflex;
}
);
width = 1024;
},
{
background = {
shapes = (
{
closed = 1;
nodes = (
(387,125,l,{
name = hr00;
}),
(637,125,l),
(637,-3,l),
(899,-3,l),
(899,387,l),
(771,387,l),
(771,515,l),
(643,515,l),
(643,637,l),
(899,637,l),
(899,771,l),
(771,771,l),
(771,899,l),
(253,899,l),
(253,771,l),
(125,771,l),
(125,637,l),
(381,637,l),
(381,515,l),
(253,515,l),
(253,387,l),
(125,387,l),
(125,-3,l),
(387,-3,l)
);
},
{
closed = 1;
nodes = (
(387,765,l),
(637,765,l),
(637,643,l),
(387,643,l)
);
},
{
closed = 1;
nodes = (
(387,381,l),
(637,381,l),
(637,259,l),
(387,259,l)
);
}
);
};
layerId = "A1CF3A9E-1F49-4701-AF3E-F0E694793914";
shapes = (
{
ref = A.case;
},
{
ref = circumflex;
}
);
width = 1024;
},
{
background = {
shapes = (
{
closed = 1;
nodes = (
(387,125,l,{
name = hr00;
}),
(637,125,l),
(637,-3,l),
(899,-3,l),
(899,387,l),
(771,387,l),
(771,515,l),
(643,515,l),
(643,637,l),
(899,637,l),
(899,771,l),
(771,771,l),
(771,899,l),
(253,899,l),
(253,771,l),
(125,771,l),
(125,637,l),
(381,637,l),
(381,515,l),
(253,515,l),
(253,387,l),
(125,387,l),
(125,-3,l),
(387,-3,l)
);
},
{
closed = 1;
nodes = (
(387,765,l),
(637,765,l),
(637,643,l),
(387,643,l)
);
},
{
closed = 1;
nodes = (
(387,381,l),
(637,381,l),
(637,259,l),
(387,259,l)
);
}
);
};
layerId = "93054D9F-9072-4363-B5A9-8BAB03B66C21";
shapes = (
{
ref = A.case;
},
{
ref = circumflex;
}
);
width = 1024;
},
{
background = {
shapes = (
{
closed = 1;
nodes = (
(387,125,l,{
name = hr00;
}),
(637,125,l),
(637,-3,l),
(899,-3,l),
(899,387,l),
(771,387,l),
(771,515,l),
(643,515,l),
(643,637,l),
(899,637,l),
(899,771,l),
(771,771,l),
(771,899,l),
(253,899,l),
(253,771,l),
(125,771,l),
(125,637,l),
(381,637,l),
(381,515,l),
(253,515,l),
(253,387,l),
(125,387,l),
(125,-3,l),
(387,-3,l)
);
},
{
closed = 1;
nodes = (
(387,765,l),
(637,765,l),
(637,643,l),
(387,643,l)
);
},
{
closed = 1;
nodes = (
(387,381,l),
(637,381,l),
(637,259,l),
(387,259,l)
);
}
);
};
layerId = "B2CED426-8D3E-4D4E-926E-917DB7E3651C";
shapes = (
{
ref = A.case;
},
{
ref = circumflex;
}
);
width = 1024;
}
);
unicode = 194;
userData = {
com.typemytype.robofont.mark = (
0.967,
0.6,
1,
1
);
};
},
{
color = 6;
glyphname = Adieresis;
layers = (
{
background = {
shapes = (
{
closed = 1;
nodes = (
(125,765,l,{
name = hr00;
}),
(381,765,l),
(381,643,l),
(253,643,l),
(253,515,l),
(125,515,l),
(125,-3,l),
(387,-3,l),
(387,253,l),
(637,253,l),
(637,-3,l),
(899,-3,l),
(899,515,l),
(771,515,l),
(771,643,l),
(643,643,l),
(643,765,l),
(899,765,l),
(899,899,l),
(637,899,l),
(637,771,l),
(387,771,l),
(387,899,l),
(125,899,l)
);
},
{
closed = 1;
nodes = (
(387,509,l),
(637,509,l),
(637,387,l),
(387,387,l)
);
}
);
};
layerId = "511DE76B-C93C-4D1E-A4F3-1BF977EE06C9";
shapes = (
{
ref = A.case.2;
},
{
ref = dieresis;
}
);
width = 1024;
},
{
background = {
shapes = (
{
closed = 1;
nodes = (
(125,765,l,{
name = hr00;
}),
(381,765,l),
(381,643,l),
(253,643,l),
(253,515,l),
(125,515,l),
(125,-3,l),
(387,-3,l),
(387,253,l),
(637,253,l),
(637,-3,l),
(899,-3,l),
(899,515,l),
(771,515,l),
(771,643,l),
(643,643,l),
(643,765,l),
(899,765,l),
(899,899,l),
(637,899,l),
(637,771,l),
(387,771,l),
(387,899,l),
(125,899,l)
);
},
{
closed = 1;
nodes = (
(387,509,l),
(637,509,l),
(637,387,l),
(387,387,l)
);
}
);
};
layerId = "A1CF3A9E-1F49-4701-AF3E-F0E694793914";
shapes = (
{
ref = A.case.2;
},
{
ref = dieresis;
}
);
width = 1024;
},
{
background = {
shapes = (
{
closed = 1;
nodes = (
(125,765,l,{
name = hr00;
}),
(381,765,l),
(381,643,l),
(253,643,l),
(253,515,l),
(125,515,l),
(125,-3,l),
(387,-3,l),
(387,253,l),
(637,253,l),
(637,-3,l),
(899,-3,l),
(899,515,l),
(771,515,l),
(771,643,l),
(643,643,l),
(643,765,l),
(899,765,l),
(899,899,l),
(637,899,l),
(637,771,l),
(387,771,l),
(387,899,l),
(125,899,l)
);
},
{
closed = 1;
nodes = (
(387,509,l),
(637,509,l),
(637,387,l),
(387,387,l)
);
}
);
};
layerId = "93054D9F-9072-4363-B5A9-8BAB03B66C21";
shapes = (
{
ref = A.case.2;
},
{
ref = dieresis;
}
);
width = 1024;
},
{
background = {
shapes = (
{
closed = 1;
nodes = (
(125,765,l,{
name = hr00;
}),
(381,765,l),
(381,643,l),
(253,643,l),
(253,515,l),
(125,515,l),
(125,-3,l),
(387,-3,l),
(387,253,l),
(637,253,l),
(637,-3,l),
(899,-3,l),
(899,515,l),
(771,515,l),
(771,643,l),
(643,643,l),
(643,765,l),
(899,765,l),
(899,899,l),
(637,899,l),
(637,771,l),
(387,771,l),
(387,899,l),
(125,899,l)
);
},
{
closed = 1;
nodes = (
(387,509,l),
(637,509,l),
(637,387,l),
(387,387,l)
);
}
);
};
layerId = "B2CED426-8D3E-4D4E-926E-917DB7E3651C";
shapes = (
{
ref = A.case.2;
},
{
ref = dieresis;
}
);
width = 1024;
}
);
unicode = 196;
userData = {
com.typemytype.robofont.mark = (
0.967,
0.6,
1,
1
);
};
},
{
color = 6;
glyphname = Agrave;
layers = (
{
background = {
shapes = (
{
closed = 1;
nodes = (
(253,765,l,{
name = hr00;
}),
(381,765,l),
(381,643,l),
(253,643,l),
(253,515,l),
(125,515,l),
(125,-3,l),
(387,-3,l),
(387,253,l),
(637,253,l),
(637,-3,l),
(899,-3,l),
(899,515,l),
(771,515,l),
(771,643,l),
(643,643,l),
(643,771,l),
(515,771,l),
(515,899,l),
(253,899,l)
);
},
{
closed = 1;
nodes = (
(387,509,l),
(637,509,l),
(637,387,l),
(387,387,l)
);
}
);
};
layerId = "511DE76B-C93C-4D1E-A4F3-1BF977EE06C9";
shapes = (
{
ref = A.case;
},
{
ref = grave;
}
);
width = 1024;
},
{
background = {
shapes = (
{
closed = 1;
nodes = (
(253,765,l,{
name = hr00;
}),
(381,765,l),
(381,643,l),
(253,643,l),
(253,515,l),
(125,515,l),
(125,-3,l),
(387,-3,l),
(387,253,l),
(637,253,l),
(637,-3,l),
(899,-3,l),
(899,515,l),
(771,515,l),
(771,643,l),
(643,643,l),
(643,771,l),
(515,771,l),
(515,899,l),
(253,899,l)
);
},
{
closed = 1;
nodes = (
(387,509,l),
(637,509,l),
(637,387,l),
(387,387,l)
);
}
);
};
layerId = "A1CF3A9E-1F49-4701-AF3E-F0E694793914";
shapes = (
{
ref = A.case;
},
{
ref = grave;
}
);
width = 1024;
},
{
background = {
shapes = (
{
closed = 1;
nodes = (
(253,765,l,{
name = hr00;
}),
(381,765,l),
(381,643,l),
(253,643,l),
(253,515,l),
(125,515,l),
(125,-3,l),
(387,-3,l),
(387,253,l),
(637,253,l),
(637,-3,l),
(899,-3,l),
(899,515,l),
(771,515,l),
(771,643,l),
(643,643,l),
(643,771,l),
(515,771,l),
(515,899,l),
(253,899,l)
);
},
{
closed = 1;
nodes = (
(387,509,l),
(637,509,l),
(637,387,l),
(387,387,l)
);
}
);
};
layerId = "93054D9F-9072-4363-B5A9-8BAB03B66C21";
shapes = (
{
ref = A.case;
},
{
ref = grave;
}
);
width = 1024;
},
{
background = {
shapes = (
{
closed = 1;
nodes = (
(253,765,l,{
name = hr00;
}),
(381,765,l),
(381,643,l),
(253,643,l),
(253,515,l),
(125,515,l),
(125,-3,l),
(387,-3,l),
(387,253,l),
(637,253,l),
(637,-3,l),
(899,-3,l),
(899,515,l),
(771,515,l),
(771,643,l),
(643,643,l),
(643,771,l),
(515,771,l),
(515,899,l),
(253,899,l)
);
},
{
closed = 1;
nodes = (
(387,509,l),
(637,509,l),
(637,387,l),
(387,387,l)
);
}
);
};
layerId = "B2CED426-8D3E-4D4E-926E-917DB7E3651C";
shapes = (
{
ref = A.case;
},
{
ref = grave;
}
);
width = 1024;
}
);
unicode = 192;
userData = {
com.typemytype.robofont.mark = (
0.967,
0.6,
1,
1
);
};
},
{
color = 6;
glyphname = Aring;
layers = (
{
background = {
shapes = (
{
closed = 1;
nodes = (
(125,637,l,{
name = hr00;
}),
(253,637,l),
(253,387,l),
(125,387,l),
(125,-3,l),
(387,-3,l),
(387,125,l),
(637,125,l),
(637,-3,l),
(899,-3,l),
(899,387,l),
(771,387,l),
(771,637,l),
(899,637,l),
(899,771,l),
(771,771,l),
(771,899,l),
(253,899,l),
(253,771,l),
(125,771,l)
);
},
{
closed = 1;
nodes = (
(637,643,l),
(387,643,l),
(387,765,l),
(637,765,l)
);
},
{
closed = 1;
nodes = (
(387,381,l),
(637,381,l),
(637,259,l),
(387,259,l)
);
}
);
};
layerId = "511DE76B-C93C-4D1E-A4F3-1BF977EE06C9";
shapes = (
{
ref = A.case;
},
{
ref = ring;
}
);
width = 1024;
},
{
background = {
shapes = (
{
closed = 1;
nodes = (
(125,637,l,{
name = hr00;
}),
(253,637,l),
(253,387,l),
(125,387,l),
(125,-3,l),
(387,-3,l),
(387,125,l),
(637,125,l),
(637,-3,l),
(899,-3,l),
(899,387,l),
(771,387,l),
(771,637,l),
(899,637,l),
(899,771,l),
(771,771,l),
(771,899,l),
(253,899,l),
(253,771,l),
(125,771,l)
);
},
{
closed = 1;
nodes = (
(637,643,l),
(387,643,l),
(387,765,l),
(637,765,l)
);
},
{
closed = 1;
nodes = (
(387,381,l),
(637,381,l),
(637,259,l),
(387,259,l)
);
}
);
};
layerId = "A1CF3A9E-1F49-4701-AF3E-F0E694793914";
shapes = (
{
ref = A.case;
},
{
ref = ring;
}
);
width = 1024;
},
{
background = {
shapes = (
{
closed = 1;
nodes = (
(125,637,l,{
name = hr00;
}),
(253,637,l),
(253,387,l),
(125,387,l),
(125,-3,l),
(387,-3,l),
(387,125,l),
(637,125,l),
(637,-3,l),
(899,-3,l),
(899,387,l),
(771,387,l),
(771,637,l),
(899,637,l),
(899,771,l),
(771,771,l),
(771,899,l),
(253,899,l),
(253,771,l),
(125,771,l)
);
},
{
closed = 1;
nodes = (
(637,643,l),
(387,643,l),
(387,765,l),
(637,765,l)
);
},
{
closed = 1;
nodes = (
(387,381,l),
(637,381,l),
(637,259,l),
(387,259,l)
);
}
);
};
layerId = "93054D9F-9072-4363-B5A9-8BAB03B66C21";
shapes = (
{
ref = A.case;
},
{
ref = ring;
}
);
width = 1024;
},
{
background = {
shapes = (
{
closed = 1;
nodes = (
(125,637,l,{
name = hr00;
}),
(253,637,l),
(253,387,l),
(125,387,l),
(125,-3,l),
(387,-3,l),
(387,125,l),
(637,125,l),
(637,-3,l),
(899,-3,l),
(899,387,l),
(771,387,l),
(771,637,l),
(899,637,l),
(899,771,l),
(771,771,l),
(771,899,l),
(253,899,l),
(253,771,l),
(125,771,l)
);
},
{
closed = 1;
nodes = (
(637,643,l),
(387,643,l),
(387,765,l),
(637,765,l)
);
},
{
closed = 1;
nodes = (
(387,381,l),
(637,381,l),
(637,259,l),
(387,259,l)
);
}
);
};
layerId = "B2CED426-8D3E-4D4E-926E-917DB7E3651C";
shapes = (
{
ref = A.case;
},
{
ref = ring;
}
);
width = 1024;
}
);
unicode = 197;
userData = {
com.typemytype.robofont.mark = (
0.967,
0.6,
1,
1
);
};
},
{
color = 6;
glyphname = Atilde;
layers = (
{
background = {
shapes = (
{
closed = 1;
nodes = (
(765,771,l,{
name = hr00;
}),
(643,771,l),
(643,899,l),
(253,899,l),
(253,771,l),
(125,771,l),
(125,637,l),
(381,637,l),
(381,515,l),
(253,515,l),
(253,387,l),
(125,387,l),
(125,-3,l),
(387,-3,l),
(387,125,l),
(637,125,l),
(637,-3,l),
(899,-3,l),
(899,387,l),
(771,387,l),
(771,515,l),
(643,515,l),
(643,637,l),
(899,637,l),
(899,765,l),
(1027,765,l),
(1027,899,l),
(765,899,l)
);
},
{
closed = 1;
nodes = (
(387,381,l),
(637,381,l),
(637,259,l),
(387,259,l)
);
},
{
closed = 1;
nodes = (
(387,643,l),
(387,765,l),
(509,765,l),
(509,643,l)
);
}
);
};
layerId = "511DE76B-C93C-4D1E-A4F3-1BF977EE06C9";
shapes = (
{
ref = A.case;
},
{
ref = tilde;
}
);
width = 1024;
},
{
background = {
shapes = (
{
closed = 1;
nodes = (
(765,771,l,{
name = hr00;
}),
(643,771,l),
(643,899,l),
(253,899,l),
(253,771,l),
(125,771,l),
(125,637,l),
(381,637,l),
(381,515,l),
(253,515,l),
(253,387,l),
(125,387,l),
(125,-3,l),
(387,-3,l),
(387,125,l),
(637,125,l),
(637,-3,l),
(899,-3,l),
(899,387,l),
(771,387,l),
(771,515,l),
(643,515,l),
(643,637,l),
(899,637,l),
(899,765,l),
(1027,765,l),
(1027,899,l),
(765,899,l)
);
},
{
closed = 1;
nodes = (
(387,381,l),
(637,381,l),
(637,259,l),
(387,259,l)
);
},
{
closed = 1;
nodes = (
(387,643,l),
(387,765,l),
(509,765,l),
(509,643,l)
);
}
);
};
layerId = "A1CF3A9E-1F49-4701-AF3E-F0E694793914";
shapes = (
{
ref = A.case;
},
{
ref = tilde;
}
);
width = 1024;
},
{
background = {
shapes = (
{
closed = 1;
nodes = (
(765,771,l,{
name = hr00;
}),
(643,771,l),
(643,899,l),
(253,899,l),
(253,771,l),
(125,771,l),
(125,637,l),
(381,637,l),
(381,515,l),
(253,515,l),
(253,387,l),
(125,387,l),
(125,-3,l),
(387,-3,l),
(387,125,l),
(637,125,l),
(637,-3,l),
(899,-3,l),
(899,387,l),
(771,387,l),
(771,515,l),
(643,515,l),
(643,637,l),
(899,637,l),
(899,765,l),
(1027,765,l),
(1027,899,l),
(765,899,l)
);
},
{
closed = 1;
nodes = (
(387,381,l),
(637,381,l),
(637,259,l),
(387,259,l)
);
},
{
closed = 1;
nodes = (
(387,643,l),
(387,765,l),
(509,765,l),
(509,643,l)
);
}
);
};
layerId = "93054D9F-9072-4363-B5A9-8BAB03B66C21";
shapes = (
{
ref = A.case;
},
{
ref = tilde;
}
);
width = 1024;
},
{
background = {
shapes = (
{
closed = 1;
nodes = (
(765,771,l,{
name = hr00;
}),
(643,771,l),
(643,899,l),
(253,899,l),
(253,771,l),
(125,771,l),
(125,637,l),
(381,637,l),
(381,515,l),
(253,515,l),
(253,387,l),
(125,387,l),
(125,-3,l),
(387,-3,l),
(387,125,l),
(637,125,l),
(637,-3,l),
(899,-3,l),
(899,387,l),
(771,387,l),
(771,515,l),
(643,515,l),
(643,637,l),
(899,637,l),
(899,765,l),
(1027,765,l),
(1027,899,l),
(765,899,l)
);
},
{
closed = 1;
nodes = (
(387,381,l),
(637,381,l),
(637,259,l),
(387,259,l)
);
},
{
closed = 1;
nodes = (
(387,643,l),
(387,765,l),
(509,765,l),
(509,643,l)
);
}
);
};
layerId = "B2CED426-8D3E-4D4E-926E-917DB7E3651C";
shapes = (
{
ref = A.case;
},
{
ref = tilde;
}
);
width = 1024;
}
);
unicode = 195;
userData = {
com.typemytype.robofont.mark = (
0.967,
0.6,
1,
1
);
};
},
{
color = 4;
glyphname = AE;
layers = (
{
background = {
shapes = (
{
closed = 1;
nodes = (
(387,381,l,{
name = hr00;
}),
(509,381,l),
(509,-3,l),
(1027,-3,l),
(1027,131,l),
(771,131,l),
(771,381,l),
(899,381,l),
(899,515,l),
(771,515,l),
(771,765,l),
(1027,765,l),
(1027,899,l),
(381,899,l),
(381,771,l),
(253,771,l),
(253,643,l),
(125,643,l),
(125,-3,l),
(387,-3,l)
);
},
{
closed = 1;
nodes = (
(387,637,l),
(509,637,l),
(509,515,l),
(387,515,l)
);
}
);
};
layerId = "511DE76B-C93C-4D1E-A4F3-1BF977EE06C9";
shapes = (
{
pos = (128,0);
ref = pixel.2;
},
{
pos = (512,0);
ref = pixel.4;
},
{
pos = (128,128);
ref = pixel.2;
},
{
pos = (512,128);
ref = pixel.2;
},
{
pos = (128,256);
ref = pixel.2;
},
{
pos = (512,256);
ref = pixel.2;
},
{
pos = (128,384);
ref = pixel.6;
},
{
pos = (128,512);
ref = pixel.2;
},
{
pos = (512,512);
ref = pixel.2;
},
{
pos = (256,640);
ref = pixel.4;
},
{
pos = (384,768);
ref = pixel.5;
}
);
width = 1024;
},
{
background = {
shapes = (
{
closed = 1;
nodes = (
(387,381,l,{
name = hr00;
}),
(509,381,l),
(509,-3,l),
(1027,-3,l),
(1027,131,l),
(771,131,l),
(771,381,l),
(899,381,l),
(899,515,l),
(771,515,l),
(771,765,l),
(1027,765,l),
(1027,899,l),
(381,899,l),
(381,771,l),
(253,771,l),
(253,643,l),
(125,643,l),
(125,-3,l),
(387,-3,l)
);
},
{
closed = 1;
nodes = (
(387,637,l),
(509,637,l),
(509,515,l),
(387,515,l)
);
}
);
};
layerId = "A1CF3A9E-1F49-4701-AF3E-F0E694793914";
shapes = (
{
pos = (128,0);
ref = pixel.2;
},
{
pos = (512,0);
ref = pixel.4;
},
{
pos = (128,128);
ref = pixel.2;
},
{
pos = (512,128);
ref = pixel.2;
},
{
pos = (128,256);
ref = pixel.2;
},
{
pos = (512,256);
ref = pixel.2;
},
{
pos = (128,384);
ref = pixel.6;
},
{
pos = (128,512);
ref = pixel.2;
},
{
pos = (512,512);
ref = pixel.2;
},
{
pos = (256,640);
ref = pixel.4;
},
{
pos = (384,768);
ref = pixel.5;
}
);
width = 1024;
},
{
background = {
shapes = (
{
closed = 1;
nodes = (
(387,381,l,{
name = hr00;
}),
(509,381,l),
(509,-3,l),
(1027,-3,l),
(1027,131,l),
(771,131,l),
(771,381,l),
(899,381,l),
(899,515,l),
(771,515,l),
(771,765,l),
(1027,765,l),
(1027,899,l),
(381,899,l),
(381,771,l),
(253,771,l),
(253,643,l),
(125,643,l),
(125,-3,l),
(387,-3,l)
);
},
{
closed = 1;
nodes = (
(387,637,l),
(509,637,l),
(509,515,l),
(387,515,l)
);
}
);
};
layerId = "93054D9F-9072-4363-B5A9-8BAB03B66C21";
shapes = (
{
pos = (128,0);
ref = pixel.2;
},
{
pos = (512,0);
ref = pixel.4;
},
{
pos = (128,128);
ref = pixel.2;
},
{
pos = (512,128);
ref = pixel.2;
},
{
pos = (128,256);
ref = pixel.2;
},
{
pos = (512,256);
ref = pixel.2;
},
{
pos = (128,384);
ref = pixel.6;
},
{
pos = (128,512);
ref = pixel.2;
},
{
pos = (512,512);
ref = pixel.2;
},
{
pos = (256,640);
ref = pixel.4;
},
{
pos = (384,768);
ref = pixel.5;
}
);
width = 1024;
},
{
background = {
shapes = (
{
closed = 1;
nodes = (
(387,381,l,{
name = hr00;
}),
(509,381,l),
(509,-3,l),
(1027,-3,l),
(1027,131,l),
(771,131,l),
(771,381,l),
(899,381,l),
(899,515,l),
(771,515,l),
(771,765,l),
(1027,765,l),
(1027,899,l),
(381,899,l),
(381,771,l),
(253,771,l),
(253,643,l),
(125,643,l),
(125,-3,l),
(387,-3,l)
);
},
{
closed = 1;
nodes = (
(387,637,l),
(509,637,l),
(509,515,l),
(387,515,l)
);
}
);
};
layerId = "B2CED426-8D3E-4D4E-926E-917DB7E3651C";
shapes = (
{
pos = (128,0);
ref = pixel.2;
},
{
pos = (512,0);
ref = pixel.4;
},
{
pos = (128,128);
ref = pixel.2;
},
{
pos = (512,128);
ref = pixel.2;
},
{
pos = (128,256);
ref = pixel.2;
},
{
pos = (512,256);
ref = pixel.2;
},
{
pos = (128,384);
ref = pixel.6;
},
{
pos = (128,512);
ref = pixel.2;
},
{
pos = (512,512);
ref = pixel.2;
},
{
pos = (256,640);
ref = pixel.4;
},
{
pos = (384,768);
ref = pixel.5;
}
);
width = 1024;
}
);
unicode = 198;
userData = {
com.typemytype.robofont.mark = (
0.967,
0.6,
1,
1
);
};
},
{
color = 4;
glyphname = B;
layers = (
{
background = {
shapes = (
{
closed = 1;
nodes = (
(125,-3,l,{
name = hr00;
}),
(771,-3,l),
(771,125,l),
(899,125,l),
(899,387,l),
(771,387,l),
(771,509,l),
(899,509,l),
(899,771,l),
(771,771,l),
(771,899,l),
(125,899,l)
);
},
{
closed = 1;
nodes = (
(637,131,l),
(387,131,l),
(387,381,l),
(637,381,l)
);
},
{
closed = 1;
nodes = (
(387,765,l),
(637,765,l),
(637,515,l),
(387,515,l)
);
}
);
};
layerId = "511DE76B-C93C-4D1E-A4F3-1BF977EE06C9";
shapes = (
{
pos = (128,0);
ref = pixel.5;
},
{
pos = (128,128);
ref = pixel.2;
},
{
pos = (640,128);
ref = pixel.2;
},
{
pos = (128,256);
ref = pixel.2;
},
{
pos = (640,256);
ref = pixel.2;
},
{
pos = (128,384);
ref = pixel.5;
},
{
pos = (128,512);
ref = pixel.2;
},
{
pos = (640,512);
ref = pixel.2;
},
{
pos = (128,640);
ref = pixel.2;
},
{
pos = (640,640);
ref = pixel.2;
},
{
pos = (128,768);
ref = pixel.5;
}
);
width = 1024;
},
{
background = {
shapes = (
{
closed = 1;
nodes = (
(125,-3,l,{
name = hr00;
}),
(771,-3,l),
(771,125,l),
(899,125,l),
(899,387,l),
(771,387,l),
(771,509,l),
(899,509,l),
(899,771,l),
(771,771,l),
(771,899,l),
(125,899,l)
);
},
{
closed = 1;
nodes = (
(637,131,l),
(387,131,l),
(387,381,l),
(637,381,l)
);
},
{
closed = 1;
nodes = (
(387,765,l),
(637,765,l),
(637,515,l),
(387,515,l)
);
}
);
};
layerId = "A1CF3A9E-1F49-4701-AF3E-F0E694793914";
shapes = (
{
pos = (128,0);
ref = pixel.5;
},
{
pos = (128,128);
ref = pixel.2;
},
{
pos = (640,128);
ref = pixel.2;
},
{
pos = (128,256);
ref = pixel.2;
},
{
pos = (640,256);
ref = pixel.2;
},
{
pos = (128,384);
ref = pixel.5;
},
{
pos = (128,512);
ref = pixel.2;
},
{
pos = (640,512);
ref = pixel.2;
},
{
pos = (128,640);
ref = pixel.2;
},
{
pos = (640,640);
ref = pixel.2;
},
{
pos = (128,768);
ref = pixel.5;
}
);
width = 1024;
},
{
background = {
shapes = (
{
closed = 1;
nodes = (
(125,-3,l,{
name = hr00;
}),
(771,-3,l),
(771,125,l),
(899,125,l),
(899,387,l),
(771,387,l),
(771,509,l),
(899,509,l),
(899,771,l),
(771,771,l),
(771,899,l),
(125,899,l)
);
},
{
closed = 1;
nodes = (
(637,131,l),
(387,131,l),
(387,381,l),
(637,381,l)
);
},
{
closed = 1;
nodes = (
(387,765,l),
(637,765,l),
(637,515,l),
(387,515,l)
);
}
);
};
layerId = "93054D9F-9072-4363-B5A9-8BAB03B66C21";
shapes = (
{
pos = (128,0);
ref = pixel.5;
},
{
pos = (128,128);
ref = pixel.2;
},
{
pos = (640,128);
ref = pixel.2;
},
{
pos = (128,256);
ref = pixel.2;
},
{
pos = (640,256);
ref = pixel.2;
},
{
pos = (128,384);
ref = pixel.5;
},
{
pos = (128,512);
ref = pixel.2;
},
{
pos = (640,512);
ref = pixel.2;
},
{
pos = (128,640);
ref = pixel.2;
},
{
pos = (640,640);
ref = pixel.2;
},
{
pos = (128,768);
ref = pixel.5;
}
);
width = 1024;
},
{
background = {
shapes = (
{
closed = 1;
nodes = (
(125,-3,l,{
name = hr00;
}),
(771,-3,l),
(771,125,l),
(899,125,l),
(899,387,l),
(771,387,l),
(771,509,l),
(899,509,l),
(899,771,l),
(771,771,l),
(771,899,l),
(125,899,l)
);
},
{
closed = 1;
nodes = (
(637,131,l),
(387,131,l),
(387,381,l),
(637,381,l)
);
},
{
closed = 1;
nodes = (
(387,765,l),
(637,765,l),
(637,515,l),
(387,515,l)
);
}
);
};
layerId = "B2CED426-8D3E-4D4E-926E-917DB7E3651C";
shapes = (
{
pos = (128,0);
ref = pixel.5;
},
{
pos = (128,128);
ref = pixel.2;
},
{
pos = (640,128);
ref = pixel.2;
},
{
pos = (128,256);
ref = pixel.2;
},
{
pos = (640,256);
ref = pixel.2;
},
{
pos = (128,384);
ref = pixel.5;
},
{
pos = (128,512);
ref = pixel.2;
},
{
pos = (640,512);
ref = pixel.2;
},
{
pos = (128,640);
ref = pixel.2;
},
{
pos = (640,640);
ref = pixel.2;
},
{
pos = (128,768);
ref = pixel.5;
}
);
width = 1024;
}
);
unicode = 66;
userData = {
com.typemytype.robofont.mark = (
1,
0.6,
0.6,
1
);
};
},
{
color = 4;
glyphname = C;
layers = (
{
background = {
shapes = (
{
closed = 1;
nodes = (
(637,637,l,{
name = hr00;
}),
(899,637,l),
(899,771,l),
(771,771,l),
(771,899,l),
(253,899,l),
(253,771,l),
(125,771,l),
(125,125,l),
(253,125,l),
(253,-3,l),
(771,-3,l),
(771,125,l),
(899,125,l),
(899,259,l),
(637,259,l),
(637,131,l),
(387,131,l),
(387,765,l),
(637,765,l)
);
}
);
};
layerId = "511DE76B-C93C-4D1E-A4F3-1BF977EE06C9";
shapes = (
{
pos = (256,0);
ref = pixel.4;
},
{
pos = (128,128);
ref = pixel.2;
},
{
pos = (640,128);
ref = pixel.2;
},
{
pos = (128,256);
ref = pixel.2;
},
{
pos = (128,384);
ref = pixel.2;
},
{
pos = (128,512);
ref = pixel.2;
},
{
pos = (128,640);
ref = pixel.2;
},
{
pos = (640,640);
ref = pixel.2;
},
{
pos = (256,768);
ref = pixel.4;
}
);
width = 1024;
},
{
background = {
shapes = (
{
closed = 1;
nodes = (
(637,637,l,{
name = hr00;
}),
(899,637,l),
(899,771,l),
(771,771,l),
(771,899,l),
(253,899,l),
(253,771,l),
(125,771,l),
(125,125,l),
(253,125,l),
(253,-3,l),
(771,-3,l),
(771,125,l),
(899,125,l),
(899,259,l),
(637,259,l),
(637,131,l),
(387,131,l),
(387,765,l),
(637,765,l)
);
}
);
};
layerId = "A1CF3A9E-1F49-4701-AF3E-F0E694793914";
shapes = (
{
pos = (256,0);
ref = pixel.4;
},
{
pos = (128,128);
ref = pixel.2;
},
{
pos = (640,128);
ref = pixel.2;
},
{
pos = (128,256);
ref = pixel.2;
},
{
pos = (128,384);
ref = pixel.2;
},
{
pos = (128,512);
ref = pixel.2;
},
{
pos = (128,640);
ref = pixel.2;
},
{
pos = (640,640);
ref = pixel.2;
},
{
pos = (256,768);
ref = pixel.4;
}
);
width = 1024;
},
{
background = {
shapes = (
{
closed = 1;
nodes = (
(637,637,l,{
name = hr00;
}),
(899,637,l),
(899,771,l),
(771,771,l),
(771,899,l),
(253,899,l),
(253,771,l),
(125,771,l),
(125,125,l),
(253,125,l),
(253,-3,l),
(771,-3,l),
(771,125,l),
(899,125,l),
(899,259,l),
(637,259,l),
(637,131,l),
(387,131,l),
(387,765,l),
(637,765,l)
);
}
);
};
layerId = "93054D9F-9072-4363-B5A9-8BAB03B66C21";
shapes = (
{
pos = (256,0);
ref = pixel.4;
},
{
pos = (128,128);
ref = pixel.2;
},
{
pos = (640,128);
ref = pixel.2;
},
{
pos = (128,256);
ref = pixel.2;
},
{
pos = (128,384);
ref = pixel.2;
},
{
pos = (128,512);
ref = pixel.2;
},
{
pos = (128,640);
ref = pixel.2;
},
{
pos = (640,640);
ref = pixel.2;
},
{
pos = (256,768);
ref = pixel.4;
}
);
width = 1024;
},
{
background = {
shapes = (
{
closed = 1;
nodes = (
(637,637,l,{
name = hr00;
}),
(899,637,l),
(899,771,l),
(771,771,l),
(771,899,l),
(253,899,l),
(253,771,l),
(125,771,l),
(125,125,l),
(253,125,l),
(253,-3,l),
(771,-3,l),
(771,125,l),
(899,125,l),
(899,259,l),
(637,259,l),
(637,131,l),
(387,131,l),
(387,765,l),
(637,765,l)
);
}
);
};
layerId = "B2CED426-8D3E-4D4E-926E-917DB7E3651C";
shapes = (
{
pos = (256,0);
ref = pixel.4;
},
{
pos = (128,128);
ref = pixel.2;
},
{
pos = (640,128);
ref = pixel.2;
},
{
pos = (128,256);
ref = pixel.2;
},
{
pos = (128,384);
ref = pixel.2;
},
{
pos = (128,512);
ref = pixel.2;
},
{
pos = (128,640);
ref = pixel.2;
},
{
pos = (640,640);
ref = pixel.2;
},
{
pos = (256,768);
ref = pixel.4;
}
);
width = 1024;
}
);
unicode = 67;
userData = {
com.typemytype.robofont.mark = (
1,
0.6,
0.6,
1
);
};
},
{
color = 4;
glyphname = Ccedilla;
layers = (
{
background = {
shapes = (
{
closed = 1;
nodes = (
(637,637,l,{
name = hr00;
}),
(899,637,l),
(899,771,l),
(771,771,l),
(771,899,l),
(253,899,l),
(253,771,l),
(125,771,l),
(125,253,l),
(253,253,l),
(253,125,l),
(381,125,l),
(381,3,l),
(253,3,l),
(253,-131,l),
(515,-131,l),
(515,-3,l),
(643,-3,l),
(643,125,l),
(771,125,l),
(771,253,l),
(899,253,l),
(899,387,l),
(637,387,l),
(637,259,l),
(387,259,l),
(387,765,l),
(637,765,l)
);
}
);
};
layerId = "511DE76B-C93C-4D1E-A4F3-1BF977EE06C9";
shapes = (
{
pos = (256,-128);
ref = pixel.2;
},
{
pos = (384,0);
ref = pixel.2;
},
{
pos = (256,128);
ref = pixel.4;
},
{
pos = (128,256);
ref = pixel.2;
},
{
pos = (640,256);
ref = pixel.2;
},
{
pos = (128,384);
ref = pixel.2;
},
{
pos = (128,512);
ref = pixel.2;
},
{
pos = (128,640);
ref = pixel.2;
},
{
pos = (640,640);
ref = pixel.2;
},
{
pos = (256,768);
ref = pixel.4;
}
);
width = 1024;
},
{
background = {
shapes = (
{
closed = 1;
nodes = (
(637,637,l,{
name = hr00;
}),
(899,637,l),
(899,771,l),
(771,771,l),
(771,899,l),
(253,899,l),
(253,771,l),
(125,771,l),
(125,253,l),
(253,253,l),
(253,125,l),
(381,125,l),
(381,3,l),
(253,3,l),
(253,-131,l),
(515,-131,l),
(515,-3,l),
(643,-3,l),
(643,125,l),
(771,125,l),
(771,253,l),
(899,253,l),
(899,387,l),
(637,387,l),
(637,259,l),
(387,259,l),
(387,765,l),
(637,765,l)
);
}
);
};
layerId = "A1CF3A9E-1F49-4701-AF3E-F0E694793914";
shapes = (
{
pos = (256,-128);
ref = pixel.2;
},
{
pos = (384,0);
ref = pixel.2;
},
{
pos = (256,128);
ref = pixel.4;
},
{
pos = (128,256);
ref = pixel.2;
},
{
pos = (640,256);
ref = pixel.2;
},
{
pos = (128,384);
ref = pixel.2;
},
{
pos = (128,512);
ref = pixel.2;
},
{
pos = (128,640);
ref = pixel.2;
},
{
pos = (640,640);
ref = pixel.2;
},
{
pos = (256,768);
ref = pixel.4;
}
);
width = 1024;
},
{
background = {
shapes = (
{
closed = 1;
nodes = (
(637,637,l,{
name = hr00;
}),
(899,637,l),
(899,771,l),
(771,771,l),
(771,899,l),
(253,899,l),
(253,771,l),
(125,771,l),
(125,253,l),
(253,253,l),
(253,125,l),
(381,125,l),
(381,3,l),
(253,3,l),
(253,-131,l),
(515,-131,l),
(515,-3,l),
(643,-3,l),
(643,125,l),
(771,125,l),
(771,253,l),
(899,253,l),
(899,387,l),
(637,387,l),
(637,259,l),
(387,259,l),
(387,765,l),
(637,765,l)
);
}
);
};
layerId = "93054D9F-9072-4363-B5A9-8BAB03B66C21";
shapes = (
{
pos = (256,-128);
ref = pixel.2;
},
{
pos = (384,0);
ref = pixel.2;
},
{
pos = (256,128);
ref = pixel.4;
},
{
pos = (128,256);
ref = pixel.2;
},
{
pos = (640,256);
ref = pixel.2;
},
{
pos = (128,384);
ref = pixel.2;
},
{
pos = (128,512);
ref = pixel.2;
},
{
pos = (128,640);
ref = pixel.2;
},
{
pos = (640,640);
ref = pixel.2;
},
{
pos = (256,768);
ref = pixel.4;
}
);
width = 1024;
},
{
background = {
shapes = (
{
closed = 1;
nodes = (
(637,637,l,{
name = hr00;
}),
(899,637,l),
(899,771,l),
(771,771,l),
(771,899,l),
(253,899,l),
(253,771,l),
(125,771,l),
(125,253,l),
(253,253,l),
(253,125,l),
(381,125,l),
(381,3,l),
(253,3,l),
(253,-131,l),
(515,-131,l),
(515,-3,l),
(643,-3,l),
(643,125,l),
(771,125,l),
(771,253,l),
(899,253,l),
(899,387,l),
(637,387,l),
(637,259,l),
(387,259,l),
(387,765,l),
(637,765,l)
);
}
);
};
layerId = "B2CED426-8D3E-4D4E-926E-917DB7E3651C";
shapes = (
{
pos = (256,-128);
ref = pixel.2;
},
{
pos = (384,0);
ref = pixel.2;
},
{
pos = (256,128);
ref = pixel.4;
},
{
pos = (128,256);
ref = pixel.2;
},
{
pos = (640,256);
ref = pixel.2;
},
{
pos = (128,384);
ref = pixel.2;
},
{
pos = (128,512);
ref = pixel.2;
},
{
pos = (128,640);
ref = pixel.2;
},
{
pos = (640,640);
ref = pixel.2;
},
{
pos = (256,768);
ref = pixel.4;
}
);
width = 1024;
}
);
unicode = 199;
userData = {
com.typemytype.robofont.mark = (
0.967,
0.6,
1,
1
);
};
},
{
color = 4;
glyphname = D;
layers = (
{
background = {
shapes = (
{
closed = 1;
nodes = (
(125,-3,l,{
name = hr00;
}),
(643,-3,l),
(643,125,l),
(771,125,l),
(771,253,l),
(899,253,l),
(899,643,l),
(771,643,l),
(771,771,l),
(643,771,l),
(643,899,l),
(125,899,l)
);
},
{
closed = 1;
nodes = (
(509,131,l),
(387,131,l),
(387,765,l),
(509,765,l),
(509,637,l),
(637,637,l),
(637,259,l),
(509,259,l)
);
}
);
};
layerId = "511DE76B-C93C-4D1E-A4F3-1BF977EE06C9";
shapes = (
{
pos = (128,0);
ref = pixel.4;
},
{
pos = (128,128);
ref = pixel.2;
},
{
pos = (512,128);
ref = pixel.2;
},
{
pos = (128,256);
ref = pixel.2;
},
{
pos = (640,256);
ref = pixel.2;
},
{
pos = (128,384);
ref = pixel.2;
},
{
pos = (640,384);
ref = pixel.2;
},
{
pos = (128,512);
ref = pixel.2;
},
{
pos = (640,512);
ref = pixel.2;
},
{
pos = (128,640);
ref = pixel.2;
},
{
pos = (512,640);
ref = pixel.2;
},
{
pos = (128,768);
ref = pixel.4;
}
);
width = 1024;
},
{
background = {
shapes = (
{
closed = 1;
nodes = (
(125,-3,l,{
name = hr00;
}),
(643,-3,l),
(643,125,l),
(771,125,l),
(771,253,l),
(899,253,l),
(899,643,l),
(771,643,l),
(771,771,l),
(643,771,l),
(643,899,l),
(125,899,l)
);
},
{
closed = 1;
nodes = (
(509,131,l),
(387,131,l),
(387,765,l),
(509,765,l),
(509,637,l),
(637,637,l),
(637,259,l),
(509,259,l)
);
}
);
};
layerId = "A1CF3A9E-1F49-4701-AF3E-F0E694793914";
shapes = (
{
pos = (128,0);
ref = pixel.4;
},
{
pos = (128,128);
ref = pixel.2;
},
{
pos = (512,128);
ref = pixel.2;
},
{
pos = (128,256);
ref = pixel.2;
},
{
pos = (640,256);
ref = pixel.2;
},
{
pos = (128,384);
ref = pixel.2;
},
{
pos = (640,384);
ref = pixel.2;
},
{
pos = (128,512);
ref = pixel.2;
},
{
pos = (640,512);
ref = pixel.2;
},
{
pos = (128,640);
ref = pixel.2;
},
{
pos = (512,640);
ref = pixel.2;
},
{
pos = (128,768);
ref = pixel.4;
}
);
width = 1024;
},
{
background = {
shapes = (
{
closed = 1;
nodes = (
(125,-3,l,{
name = hr00;
}),
(643,-3,l),
(643,125,l),
(771,125,l),
(771,253,l),
(899,253,l),
(899,643,l),
(771,643,l),
(771,771,l),
(643,771,l),
(643,899,l),
(125,899,l)
);
},
{
closed = 1;
nodes = (
(509,131,l),
(387,131,l),
(387,765,l),
(509,765,l),
(509,637,l),
(637,637,l),
(637,259,l),
(509,259,l)
);
}
);
};
layerId = "93054D9F-9072-4363-B5A9-8BAB03B66C21";
shapes = (
{
pos = (128,0);
ref = pixel.4;
},
{
pos = (128,128);
ref = pixel.2;
},
{
pos = (512,128);
ref = pixel.2;
},
{
pos = (128,256);
ref = pixel.2;
},
{
pos = (640,256);
ref = pixel.2;
},
{
pos = (128,384);
ref = pixel.2;
},
{
pos = (640,384);
ref = pixel.2;
},
{
pos = (128,512);
ref = pixel.2;
},
{
pos = (640,512);
ref = pixel.2;
},
{
pos = (128,640);
ref = pixel.2;
},
{
pos = (512,640);
ref = pixel.2;
},
{
pos = (128,768);
ref = pixel.4;
}
);
width = 1024;
},
{
background = {
shapes = (
{
closed = 1;
nodes = (
(125,-3,l,{
name = hr00;
}),
(643,-3,l),
(643,125,l),
(771,125,l),
(771,253,l),
(899,253,l),
(899,643,l),
(771,643,l),
(771,771,l),
(643,771,l),
(643,899,l),
(125,899,l)
);
},
{
closed = 1;
nodes = (
(509,131,l),
(387,131,l),
(387,765,l),
(509,765,l),
(509,637,l),
(637,637,l),
(637,259,l),
(509,259,l)
);
}
);
};
layerId = "B2CED426-8D3E-4D4E-926E-917DB7E3651C";
shapes = (
{
pos = (128,0);
ref = pixel.4;
},
{
pos = (128,128);
ref = pixel.2;
},
{
pos = (512,128);
ref = pixel.2;
},
{
pos = (128,256);
ref = pixel.2;
},
{
pos = (640,256);
ref = pixel.2;
},
{
pos = (128,384);
ref = pixel.2;
},
{
pos = (640,384);
ref = pixel.2;
},
{
pos = (128,512);
ref = pixel.2;
},
{
pos = (640,512);
ref = pixel.2;
},
{
pos = (128,640);
ref = pixel.2;
},
{
pos = (512,640);
ref = pixel.2;
},
{
pos = (128,768);
ref = pixel.4;
}
);
width = 1024;
}
);
unicode = 68;
userData = {
com.typemytype.robofont.mark = (
1,
0.6,
0.6,
1
);
};
},
{
color = 4;
glyphname = Eth;
layers = (
{
background = {
shapes = (
{
closed = 1;
nodes = (
(-3,381,l,{
name = hr00;
}),
(125,381,l),
(125,-3,l),
(643,-3,l),
(643,125,l),
(771,125,l),
(771,253,l),
(899,253,l),
(899,643,l),
(771,643,l),
(771,771,l),
(643,771,l),
(643,899,l),
(125,899,l),
(125,515,l),
(-3,515,l)
);
},
{
closed = 1;
nodes = (
(387,131,l),
(387,381,l),
(515,381,l),
(515,515,l),
(387,515,l),
(387,765,l),
(509,765,l),
(509,637,l),
(637,637,l),
(637,259,l),
(509,259,l),
(509,131,l)
);
}
);
};
layerId = "511DE76B-C93C-4D1E-A4F3-1BF977EE06C9";
shapes = (
{
pos = (128,0);
ref = pixel.4;
},
{
pos = (128,128);
ref = pixel.2;
},
{
pos = (512,128);
ref = pixel.2;
},
{
pos = (128,256);
ref = pixel.2;
},
{
pos = (640,256);
ref = pixel.2;
},
{
pos = (0,384);
ref = pixel.4;
},
{
pos = (640,384);
ref = pixel.2;
},
{
pos = (128,512);
ref = pixel.2;
},
{
pos = (640,512);
ref = pixel.2;
},
{
pos = (128,640);
ref = pixel.2;
},
{
pos = (512,640);
ref = pixel.2;
},
{
pos = (128,768);
ref = pixel.4;
}
);
width = 1024;
},
{
background = {
shapes = (
{
closed = 1;
nodes = (
(-3,381,l,{
name = hr00;
}),
(125,381,l),
(125,-3,l),
(643,-3,l),
(643,125,l),
(771,125,l),
(771,253,l),
(899,253,l),
(899,643,l),
(771,643,l),
(771,771,l),
(643,771,l),
(643,899,l),
(125,899,l),
(125,515,l),
(-3,515,l)
);
},
{
closed = 1;
nodes = (
(387,131,l),
(387,381,l),
(515,381,l),
(515,515,l),
(387,515,l),
(387,765,l),
(509,765,l),
(509,637,l),
(637,637,l),
(637,259,l),
(509,259,l),
(509,131,l)
);
}
);
};
layerId = "A1CF3A9E-1F49-4701-AF3E-F0E694793914";
shapes = (
{
pos = (128,0);
ref = pixel.4;
},
{
pos = (128,128);
ref = pixel.2;
},
{
pos = (512,128);
ref = pixel.2;
},
{
pos = (128,256);
ref = pixel.2;
},
{
pos = (640,256);
ref = pixel.2;
},
{
pos = (0,384);
ref = pixel.4;
},
{
pos = (640,384);
ref = pixel.2;
},
{
pos = (128,512);
ref = pixel.2;
},
{
pos = (640,512);
ref = pixel.2;
},
{
pos = (128,640);
ref = pixel.2;
},
{
pos = (512,640);
ref = pixel.2;
},
{
pos = (128,768);
ref = pixel.4;
}
);
width = 1024;
},
{
background = {
shapes = (
{
closed = 1;
nodes = (
(-3,381,l,{
name = hr00;
}),
(125,381,l),
(125,-3,l),
(643,-3,l),
(643,125,l),
(771,125,l),
(771,253,l),
(899,253,l),
(899,643,l),
(771,643,l),
(771,771,l),
(643,771,l),
(643,899,l),
(125,899,l),
(125,515,l),
(-3,515,l)
);
},
{
closed = 1;
nodes = (
(387,131,l),
(387,381,l),
(515,381,l),
(515,515,l),
(387,515,l),
(387,765,l),
(509,765,l),
(509,637,l),
(637,637,l),
(637,259,l),
(509,259,l),
(509,131,l)
);
}
);
};
layerId = "93054D9F-9072-4363-B5A9-8BAB03B66C21";
shapes = (
{
pos = (128,0);
ref = pixel.4;
},
{
pos = (128,128);
ref = pixel.2;
},
{
pos = (512,128);
ref = pixel.2;
},
{
pos = (128,256);
ref = pixel.2;
},
{
pos = (640,256);
ref = pixel.2;
},
{
pos = (0,384);
ref = pixel.4;
},
{
pos = (640,384);
ref = pixel.2;
},
{
pos = (128,512);
ref = pixel.2;
},
{
pos = (640,512);
ref = pixel.2;
},
{
pos = (128,640);
ref = pixel.2;
},
{
pos = (512,640);
ref = pixel.2;
},
{
pos = (128,768);
ref = pixel.4;
}
);
width = 1024;
},
{
background = {
shapes = (
{
closed = 1;
nodes = (
(-3,381,l,{
name = hr00;
}),
(125,381,l),
(125,-3,l),
(643,-3,l),
(643,125,l),
(771,125,l),
(771,253,l),
(899,253,l),
(899,643,l),
(771,643,l),
(771,771,l),
(643,771,l),
(643,899,l),
(125,899,l),
(125,515,l),
(-3,515,l)
);
},
{
closed = 1;
nodes = (
(387,131,l),
(387,381,l),
(515,381,l),
(515,515,l),
(387,515,l),
(387,765,l),
(509,765,l),
(509,637,l),
(637,637,l),
(637,259,l),
(509,259,l),
(509,131,l)
);
}
);
};
layerId = "B2CED426-8D3E-4D4E-926E-917DB7E3651C";
shapes = (
{
pos = (128,0);
ref = pixel.4;
},
{
pos = (128,128);
ref = pixel.2;
},
{
pos = (512,128);
ref = pixel.2;
},
{
pos = (128,256);
ref = pixel.2;
},
{
pos = (640,256);
ref = pixel.2;
},
{
pos = (0,384);
ref = pixel.4;
},
{
pos = (640,384);
ref = pixel.2;
},
{
pos = (128,512);
ref = pixel.2;
},
{
pos = (640,512);
ref = pixel.2;
},
{
pos = (128,640);
ref = pixel.2;
},
{
pos = (512,640);
ref = pixel.2;
},
{
pos = (128,768);
ref = pixel.4;
}
);
width = 1024;
}
);
unicode = 208;
userData = {
com.typemytype.robofont.mark = (
0.967,
0.6,
1,
1
);
};
},
{
color = 4;
glyphname = E;
layers = (
{
background = {
shapes = (
{
closed = 1;
nodes = (
(125,-3,l,{
name = hr00;
}),
(899,-3,l),
(899,131,l),
(387,131,l),
(387,381,l),
(643,381,l),
(643,515,l),
(387,515,l),
(387,765,l),
(899,765,l),
(899,899,l),
(125,899,l)
);
}
);
};
layerId = "511DE76B-C93C-4D1E-A4F3-1BF977EE06C9";
shapes = (
{
pos = (128,0);
ref = pixel.6;
},
{
pos = (128,128);
ref = pixel.2;
},
{
pos = (128,256);
ref = pixel.2;
},
{
pos = (128,384);
ref = pixel.4;
},
{
pos = (128,512);
ref = pixel.2;
},
{
pos = (128,640);
ref = pixel.2;
},
{
pos = (128,768);
ref = pixel.6;
}
);
width = 1024;
},
{
background = {
shapes = (
{
closed = 1;
nodes = (
(125,-3,l,{
name = hr00;
}),
(899,-3,l),
(899,131,l),
(387,131,l),
(387,381,l),
(643,381,l),
(643,515,l),
(387,515,l),
(387,765,l),
(899,765,l),
(899,899,l),
(125,899,l)
);
}
);
};
layerId = "A1CF3A9E-1F49-4701-AF3E-F0E694793914";
shapes = (
{
pos = (128,0);
ref = pixel.6;
},
{
pos = (128,128);
ref = pixel.2;
},
{
pos = (128,256);
ref = pixel.2;
},
{
pos = (128,384);
ref = pixel.4;
},
{
pos = (128,512);
ref = pixel.2;
},
{
pos = (128,640);
ref = pixel.2;
},
{
pos = (128,768);
ref = pixel.6;
}
);
width = 1024;
},
{
background = {
shapes = (
{
closed = 1;
nodes = (
(125,-3,l,{
name = hr00;
}),
(899,-3,l),
(899,131,l),
(387,131,l),
(387,381,l),
(643,381,l),
(643,515,l),
(387,515,l),
(387,765,l),
(899,765,l),
(899,899,l),
(125,899,l)
);
}
);
};
layerId = "93054D9F-9072-4363-B5A9-8BAB03B66C21";
shapes = (
{
pos = (128,0);
ref = pixel.6;
},
{
pos = (128,128);
ref = pixel.2;
},
{
pos = (128,256);
ref = pixel.2;
},
{
pos = (128,384);
ref = pixel.4;
},
{
pos = (128,512);
ref = pixel.2;
},
{
pos = (128,640);
ref = pixel.2;
},
{
pos = (128,768);
ref = pixel.6;
}
);
width = 1024;
},
{
background = {
shapes = (
{
closed = 1;
nodes = (
(125,-3,l,{
name = hr00;
}),
(899,-3,l),
(899,131,l),
(387,131,l),
(387,381,l),
(643,381,l),
(643,515,l),
(387,515,l),
(387,765,l),
(899,765,l),
(899,899,l),
(125,899,l)
);
}
);
};
layerId = "B2CED426-8D3E-4D4E-926E-917DB7E3651C";
shapes = (
{
pos = (128,0);
ref = pixel.6;
},
{
pos = (128,128);
ref = pixel.2;
},
{
pos = (128,256);
ref = pixel.2;
},
{
pos = (128,384);
ref = pixel.4;
},
{
pos = (128,512);
ref = pixel.2;
},
{
pos = (128,640);
ref = pixel.2;
},
{
pos = (128,768);
ref = pixel.6;
}
);
width = 1024;
}
);
unicode = 69;
userData = {
com.typemytype.robofont.mark = (
1,
0.6,
0.6,
1
);
};
},
{
color = 6;
glyphname = Eacute;
layers = (
{
background = {
shapes = (
{
closed = 1;
nodes = (
(381,643,l,{
name = hr00;
}),
(125,643,l),
(125,-3,l),
(899,-3,l),
(899,131,l),
(387,131,l),
(387,253,l),
(643,253,l),
(643,387,l),
(387,387,l),
(387,509,l),
(899,509,l),
(899,643,l),
(643,643,l),
(643,765,l),
(771,765,l),
(771,899,l),
(509,899,l),
(509,771,l),
(381,771,l)
);
}
);
};
layerId = "511DE76B-C93C-4D1E-A4F3-1BF977EE06C9";
shapes = (
{
ref = E.case;
},
{
ref = acute;
}
);
width = 1024;
},
{
background = {
shapes = (
{
closed = 1;
nodes = (
(381,643,l,{
name = hr00;
}),
(125,643,l),
(125,-3,l),
(899,-3,l),
(899,131,l),
(387,131,l),
(387,253,l),
(643,253,l),
(643,387,l),
(387,387,l),
(387,509,l),
(899,509,l),
(899,643,l),
(643,643,l),
(643,765,l),
(771,765,l),
(771,899,l),
(509,899,l),
(509,771,l),
(381,771,l)
);
}
);
};
layerId = "A1CF3A9E-1F49-4701-AF3E-F0E694793914";
shapes = (
{
ref = E.case;
},
{
ref = acute;
}
);
width = 1024;
},
{
background = {
shapes = (
{
closed = 1;
nodes = (
(381,643,l,{
name = hr00;
}),
(125,643,l),
(125,-3,l),
(899,-3,l),
(899,131,l),
(387,131,l),
(387,253,l),
(643,253,l),
(643,387,l),
(387,387,l),
(387,509,l),
(899,509,l),
(899,643,l),
(643,643,l),
(643,765,l),
(771,765,l),
(771,899,l),
(509,899,l),
(509,771,l),
(381,771,l)
);
}
);
};
layerId = "93054D9F-9072-4363-B5A9-8BAB03B66C21";
shapes = (
{
ref = E.case;
},
{
ref = acute;
}
);
width = 1024;
},
{
background = {
shapes = (
{
closed = 1;
nodes = (
(381,643,l,{
name = hr00;
}),
(125,643,l),
(125,-3,l),
(899,-3,l),
(899,131,l),
(387,131,l),
(387,253,l),
(643,253,l),
(643,387,l),
(387,387,l),
(387,509,l),
(899,509,l),
(899,643,l),
(643,643,l),
(643,765,l),
(771,765,l),
(771,899,l),
(509,899,l),
(509,771,l),
(381,771,l)
);
}
);
};
layerId = "B2CED426-8D3E-4D4E-926E-917DB7E3651C";
shapes = (
{
ref = E.case;
},
{
ref = acute;
}
);
width = 1024;
}
);
unicode = 201;
userData = {
com.typemytype.robofont.mark = (
0.967,
0.6,
1,
1
);
};
},
{
color = 6;
glyphname = Ecircumflex;
layers = (
{
background = {
shapes = (
{
closed = 1;
nodes = (
(387,253,l,{
name = hr00;
}),
(643,253,l),
(643,387,l),
(387,387,l),
(387,509,l),
(899,509,l),
(899,770,l),
(771,770,l),
(771,898,l),
(253,898,l),
(253,770,l),
(125,770,l),
(125,-3,l),
(899,-3,l),
(899,131,l),
(387,131,l)
);
},
{
closed = 1;
nodes = (
(387,764,l),
(637,764,l),
(637,643,l),
(387,643,l)
);
}
);
};
layerId = "511DE76B-C93C-4D1E-A4F3-1BF977EE06C9";
shapes = (
{
ref = E.case;
},
{
ref = circumflex;
}
);
width = 1024;
},
{
background = {
shapes = (
{
closed = 1;
nodes = (
(387,253,l,{
name = hr00;
}),
(643,253,l),
(643,387,l),
(387,387,l),
(387,509,l),
(899,509,l),
(899,770,l),
(771,770,l),
(771,898,l),
(253,898,l),
(253,770,l),
(125,770,l),
(125,-3,l),
(899,-3,l),
(899,131,l),
(387,131,l)
);
},
{
closed = 1;
nodes = (
(387,764,l),
(637,764,l),
(637,643,l),
(387,643,l)
);
}
);
};
layerId = "A1CF3A9E-1F49-4701-AF3E-F0E694793914";
shapes = (
{
ref = E.case;
},
{
ref = circumflex;
}
);
width = 1024;
},
{
background = {
shapes = (
{
closed = 1;
nodes = (
(387,253,l,{
name = hr00;
}),
(643,253,l),
(643,387,l),
(387,387,l),
(387,509,l),
(899,509,l),
(899,770,l),
(771,770,l),
(771,898,l),
(253,898,l),
(253,770,l),
(125,770,l),
(125,-3,l),
(899,-3,l),
(899,131,l),
(387,131,l)
);
},
{
closed = 1;
nodes = (
(387,764,l),
(637,764,l),
(637,643,l),
(387,643,l)
);
}
);
};
layerId = "93054D9F-9072-4363-B5A9-8BAB03B66C21";
shapes = (
{
ref = E.case;
},
{
ref = circumflex;
}
);
width = 1024;
},
{
background = {
shapes = (
{
closed = 1;
nodes = (
(387,253,l,{
name = hr00;
}),
(643,253,l),
(643,387,l),
(387,387,l),
(387,509,l),
(899,509,l),
(899,770,l),
(771,770,l),
(771,898,l),
(253,898,l),
(253,770,l),
(125,770,l),
(125,-3,l),
(899,-3,l),
(899,131,l),
(387,131,l)
);
},
{
closed = 1;
nodes = (
(387,764,l),
(637,764,l),
(637,643,l),
(387,643,l)
);
}
);
};
layerId = "B2CED426-8D3E-4D4E-926E-917DB7E3651C";
shapes = (
{
ref = E.case;
},
{
ref = circumflex;
}
);
width = 1024;
}
);
unicode = 202;
userData = {
com.typemytype.robofont.mark = (
0.967,
0.6,
1,
1
);
};
},
{
color = 6;
glyphname = Edieresis;
layers = (
{
background = {
shapes = (
{
closed = 1;
nodes = (
(387,253,l,{
name = hr00;
}),
(643,253,l),
(643,387,l),
(387,387,l),
(387,509,l),
(899,509,l),
(899,643,l),
(125,643,l),
(125,-3,l),
(899,-3,l),
(899,131,l),
(387,131,l)
);
},
{
closed = 1;
nodes = (
(125,765,l),
(387,765,l),
(387,899,l),
(125,899,l)
);
},
{
closed = 1;
nodes = (
(637,765,l),
(899,765,l),
(899,899,l),
(637,899,l)
);
}
);
};
layerId = "511DE76B-C93C-4D1E-A4F3-1BF977EE06C9";
shapes = (
{
ref = E.case;
},
{
ref = dieresis;
}
);
width = 1024;
},
{
background = {
shapes = (
{
closed = 1;
nodes = (
(387,253,l,{
name = hr00;
}),
(643,253,l),
(643,387,l),
(387,387,l),
(387,509,l),
(899,509,l),
(899,643,l),
(125,643,l),
(125,-3,l),
(899,-3,l),
(899,131,l),
(387,131,l)
);
},
{
closed = 1;
nodes = (
(125,765,l),
(387,765,l),
(387,899,l),
(125,899,l)
);
},
{
closed = 1;
nodes = (
(637,765,l),
(899,765,l),
(899,899,l),
(637,899,l)
);
}
);
};
layerId = "A1CF3A9E-1F49-4701-AF3E-F0E694793914";
shapes = (
{
ref = E.case;
},
{
ref = dieresis;
}
);
width = 1024;
},
{
background = {
shapes = (
{
closed = 1;
nodes = (
(387,253,l,{
name = hr00;
}),
(643,253,l),
(643,387,l),
(387,387,l),
(387,509,l),
(899,509,l),
(899,643,l),
(125,643,l),
(125,-3,l),
(899,-3,l),
(899,131,l),
(387,131,l)
);
},
{
closed = 1;
nodes = (
(125,765,l),
(387,765,l),
(387,899,l),
(125,899,l)
);
},
{
closed = 1;
nodes = (
(637,765,l),
(899,765,l),
(899,899,l),
(637,899,l)
);
}
);
};
layerId = "93054D9F-9072-4363-B5A9-8BAB03B66C21";
shapes = (
{
ref = E.case;
},
{
ref = dieresis;
}
);
width = 1024;
},
{
background = {
shapes = (
{
closed = 1;
nodes = (
(387,253,l,{
name = hr00;
}),
(643,253,l),
(643,387,l),
(387,387,l),
(387,509,l),
(899,509,l),
(899,643,l),
(125,643,l),
(125,-3,l),
(899,-3,l),
(899,131,l),
(387,131,l)
);
},
{
closed = 1;
nodes = (
(125,765,l),
(387,765,l),
(387,899,l),
(125,899,l)
);
},
{
closed = 1;
nodes = (
(637,765,l),
(899,765,l),
(899,899,l),
(637,899,l)
);
}
);
};
layerId = "B2CED426-8D3E-4D4E-926E-917DB7E3651C";
shapes = (
{
ref = E.case;
},
{
ref = dieresis;
}
);
width = 1024;
}
);
unicode = 203;
userData = {
com.typemytype.robofont.mark = (
0.967,
0.6,
1,
1
);
};
},
{
color = 6;
glyphname = Egrave;
layers = (
{
background = {
shapes = (
{
closed = 1;
nodes = (
(125,643,l,{
name = hr00;
}),
(125,-3,l),
(899,-3,l),
(899,131,l),
(387,131,l),
(387,253,l),
(643,253,l),
(643,387,l),
(387,387,l),
(387,509,l),
(899,509,l),
(899,643,l),
(643,643,l),
(643,765,l),
(771,765,l),
(771,899,l),
(509,899,l),
(509,771,l),
(381,771,l),
(381,643,l)
);
}
);
};
layerId = "511DE76B-C93C-4D1E-A4F3-1BF977EE06C9";
shapes = (
{
ref = E.case;
},
{
ref = grave;
}
);
width = 1024;
},
{
background = {
shapes = (
{
closed = 1;
nodes = (
(125,643,l,{
name = hr00;
}),
(125,-3,l),
(899,-3,l),
(899,131,l),
(387,131,l),
(387,253,l),
(643,253,l),
(643,387,l),
(387,387,l),
(387,509,l),
(899,509,l),
(899,643,l),
(643,643,l),
(643,765,l),
(771,765,l),
(771,899,l),
(509,899,l),
(509,771,l),
(381,771,l),
(381,643,l)
);
}
);
};
layerId = "A1CF3A9E-1F49-4701-AF3E-F0E694793914";
shapes = (
{
ref = E.case;
},
{
ref = grave;
}
);
width = 1024;
},
{
background = {
shapes = (
{
closed = 1;
nodes = (
(125,643,l,{
name = hr00;
}),
(125,-3,l),
(899,-3,l),
(899,131,l),
(387,131,l),
(387,253,l),
(643,253,l),
(643,387,l),
(387,387,l),
(387,509,l),
(899,509,l),
(899,643,l),
(643,643,l),
(643,765,l),
(771,765,l),
(771,899,l),
(509,899,l),
(509,771,l),
(381,771,l),
(381,643,l)
);
}
);
};
layerId = "93054D9F-9072-4363-B5A9-8BAB03B66C21";
shapes = (
{
ref = E.case;
},
{
ref = grave;
}
);
width = 1024;
},
{
background = {
shapes = (
{
closed = 1;
nodes = (
(125,643,l,{
name = hr00;
}),
(125,-3,l),
(899,-3,l),
(899,131,l),
(387,131,l),
(387,253,l),
(643,253,l),
(643,387,l),
(387,387,l),
(387,509,l),
(899,509,l),
(899,643,l),
(643,643,l),
(643,765,l),
(771,765,l),
(771,899,l),
(509,899,l),
(509,771,l),
(381,771,l),
(381,643,l)
);
}
);
};
layerId = "B2CED426-8D3E-4D4E-926E-917DB7E3651C";
shapes = (
{
ref = E.case;
},
{
ref = grave;
}
);
width = 1024;
}
);
unicode = 200;
userData = {
com.typemytype.robofont.mark = (
0.967,
0.6,
1,
1
);
};
},
{
color = 4;
glyphname = F;
layers = (
{
background = {
shapes = (
{
closed = 1;
nodes = (
(387,381,l,{
name = hr00;
}),
(643,381,l),
(643,515,l),
(387,515,l),
(387,765,l),
(899,765,l),
(899,899,l),
(125,899,l),
(125,-3,l),
(387,-3,l)
);
}
);
};
layerId = "511DE76B-C93C-4D1E-A4F3-1BF977EE06C9";
shapes = (
{
pos = (128,0);
ref = pixel.2;
},
{
pos = (128,128);
ref = pixel.2;
},
{
pos = (128,256);
ref = pixel.2;
},
{
pos = (128,384);
ref = pixel.4;
},
{
pos = (128,512);
ref = pixel.2;
},
{
pos = (128,640);
ref = pixel.2;
},
{
pos = (128,768);
ref = pixel.6;
}
);
width = 1024;
},
{
background = {
shapes = (
{
closed = 1;
nodes = (
(387,381,l,{
name = hr00;
}),
(643,381,l),
(643,515,l),
(387,515,l),
(387,765,l),
(899,765,l),
(899,899,l),
(125,899,l),
(125,-3,l),
(387,-3,l)
);
}
);
};
layerId = "A1CF3A9E-1F49-4701-AF3E-F0E694793914";
shapes = (
{
pos = (128,0);
ref = pixel.2;
},
{
pos = (128,128);
ref = pixel.2;
},
{
pos = (128,256);
ref = pixel.2;
},
{
pos = (128,384);
ref = pixel.4;
},
{
pos = (128,512);
ref = pixel.2;
},
{
pos = (128,640);
ref = pixel.2;
},
{
pos = (128,768);
ref = pixel.6;
}
);
width = 1024;
},
{
background = {
shapes = (
{
closed = 1;
nodes = (
(387,381,l,{
name = hr00;
}),
(643,381,l),
(643,515,l),
(387,515,l),
(387,765,l),
(899,765,l),
(899,899,l),
(125,899,l),
(125,-3,l),
(387,-3,l)
);
}
);
};
layerId = "93054D9F-9072-4363-B5A9-8BAB03B66C21";
shapes = (
{
pos = (128,0);
ref = pixel.2;
},
{
pos = (128,128);
ref = pixel.2;
},
{
pos = (128,256);
ref = pixel.2;
},
{
pos = (128,384);
ref = pixel.4;
},
{
pos = (128,512);
ref = pixel.2;
},
{
pos = (128,640);
ref = pixel.2;
},
{
pos = (128,768);
ref = pixel.6;
}
);
width = 1024;
},
{
background = {
shapes = (
{
closed = 1;
nodes = (
(387,381,l,{
name = hr00;
}),
(643,381,l),
(643,515,l),
(387,515,l),
(387,765,l),
(899,765,l),
(899,899,l),
(125,899,l),
(125,-3,l),
(387,-3,l)
);
}
);
};
layerId = "B2CED426-8D3E-4D4E-926E-917DB7E3651C";
shapes = (
{
pos = (128,0);
ref = pixel.2;
},
{
pos = (128,128);
ref = pixel.2;
},
{
pos = (128,256);
ref = pixel.2;
},
{
pos = (128,384);
ref = pixel.4;
},
{
pos = (128,512);
ref = pixel.2;
},
{
pos = (128,640);
ref = pixel.2;
},
{
pos = (128,768);
ref = pixel.6;
}
);
width = 1024;
}
);
unicode = 70;
userData = {
com.typemytype.robofont.mark = (
1,
0.6,
0.6,
1
);
};
},
{
color = 4;
glyphname = G;
layers = (
{
background = {
shapes = (
{
closed = 1;
nodes = (
(509,381,l,{
name = hr00;
}),
(637,381,l),
(637,131,l),
(387,131,l),
(387,765,l),
(637,765,l),
(637,637,l),
(899,637,l),
(899,771,l),
(771,771,l),
(771,899,l),
(253,899,l),
(253,771,l),
(125,771,l),
(125,125,l),
(253,125,l),
(253,-3,l),
(771,-3,l),
(771,125,l),
(899,125,l),
(899,515,l),
(509,515,l)
);
}
);
};
layerId = "511DE76B-C93C-4D1E-A4F3-1BF977EE06C9";
shapes = (
{
pos = (256,0);
ref = pixel.4;
},
{
pos = (128,128);
ref = pixel.2;
},
{
pos = (640,128);
ref = pixel.2;
},
{
pos = (128,256);
ref = pixel.2;
},
{
pos = (640,256);
ref = pixel.2;
},
{
pos = (128,384);
ref = pixel.2;
},
{
pos = (512,384);
ref = pixel.3;
},
{
pos = (128,512);
ref = pixel.2;
},
{
pos = (128,640);
ref = pixel.2;
},
{
pos = (640,640);
ref = pixel.2;
},
{
pos = (256,768);
ref = pixel.4;
}
);
width = 1024;
},
{
background = {
shapes = (
{
closed = 1;
nodes = (
(509,381,l,{
name = hr00;
}),
(637,381,l),
(637,131,l),
(387,131,l),
(387,765,l),
(637,765,l),
(637,637,l),
(899,637,l),
(899,771,l),
(771,771,l),
(771,899,l),
(253,899,l),
(253,771,l),
(125,771,l),
(125,125,l),
(253,125,l),
(253,-3,l),
(771,-3,l),
(771,125,l),
(899,125,l),
(899,515,l),
(509,515,l)
);
}
);
};
layerId = "A1CF3A9E-1F49-4701-AF3E-F0E694793914";
shapes = (
{
pos = (256,0);
ref = pixel.4;
},
{
pos = (128,128);
ref = pixel.2;
},
{
pos = (640,128);
ref = pixel.2;
},
{
pos = (128,256);
ref = pixel.2;
},
{
pos = (640,256);
ref = pixel.2;
},
{
pos = (128,384);
ref = pixel.2;
},
{
pos = (512,384);
ref = pixel.3;
},
{
pos = (128,512);
ref = pixel.2;
},
{
pos = (128,640);
ref = pixel.2;
},
{
pos = (640,640);
ref = pixel.2;
},
{
pos = (256,768);
ref = pixel.4;
}
);
width = 1024;
},
{
background = {
shapes = (
{
closed = 1;
nodes = (
(509,381,l,{
name = hr00;
}),
(637,381,l),
(637,131,l),
(387,131,l),
(387,765,l),
(637,765,l),
(637,637,l),
(899,637,l),
(899,771,l),
(771,771,l),
(771,899,l),
(253,899,l),
(253,771,l),
(125,771,l),
(125,125,l),
(253,125,l),
(253,-3,l),
(771,-3,l),
(771,125,l),
(899,125,l),
(899,515,l),
(509,515,l)
);
}
);
};
layerId = "93054D9F-9072-4363-B5A9-8BAB03B66C21";
shapes = (
{
pos = (256,0);
ref = pixel.4;
},
{
pos = (128,128);
ref = pixel.2;
},
{
pos = (640,128);
ref = pixel.2;
},
{
pos = (128,256);
ref = pixel.2;
},
{
pos = (640,256);
ref = pixel.2;
},
{
pos = (128,384);
ref = pixel.2;
},
{
pos = (512,384);
ref = pixel.3;
},
{
pos = (128,512);
ref = pixel.2;
},
{
pos = (128,640);
ref = pixel.2;
},
{
pos = (640,640);
ref = pixel.2;
},
{
pos = (256,768);
ref = pixel.4;
}
);
width = 1024;
},
{
background = {
shapes = (
{
closed = 1;
nodes = (
(509,381,l,{
name = hr00;
}),
(637,381,l),
(637,131,l),
(387,131,l),
(387,765,l),
(637,765,l),
(637,637,l),
(899,637,l),
(899,771,l),
(771,771,l),
(771,899,l),
(253,899,l),
(253,771,l),
(125,771,l),
(125,125,l),
(253,125,l),
(253,-3,l),
(771,-3,l),
(771,125,l),
(899,125,l),
(899,515,l),
(509,515,l)
);
}
);
};
layerId = "B2CED426-8D3E-4D4E-926E-917DB7E3651C";
shapes = (
{
pos = (256,0);
ref = pixel.4;
},
{
pos = (128,128);
ref = pixel.2;
},
{
pos = (640,128);
ref = pixel.2;
},
{
pos = (128,256);
ref = pixel.2;
},
{
pos = (640,256);
ref = pixel.2;
},
{
pos = (128,384);
ref = pixel.2;
},
{
pos = (512,384);
ref = pixel.3;
},
{
pos = (128,512);
ref = pixel.2;
},
{
pos = (128,640);
ref = pixel.2;
},
{
pos = (640,640);
ref = pixel.2;
},
{
pos = (256,768);
ref = pixel.4;
}
);
width = 1024;
}
);
unicode = 71;
userData = {
com.typemytype.robofont.mark = (
1,
0.6,
0.6,
1
);
};
},
{
color = 4;
glyphname = H;
layers = (
{
background = {
shapes = (
{
closed = 1;
nodes = (
(387,381,l,{
name = hr00;
}),
(637,381,l),
(637,-3,l),
(899,-3,l),
(899,899,l),
(637,899,l),
(637,515,l),
(387,515,l),
(387,899,l),
(125,899,l),
(125,-3,l),
(387,-3,l)
);
}
);
};
layerId = "511DE76B-C93C-4D1E-A4F3-1BF977EE06C9";
shapes = (
{
pos = (128,0);
ref = pixel.2;
},
{
pos = (640,0);
ref = pixel.2;
},
{
pos = (128,128);
ref = pixel.2;
},
{
pos = (640,128);
ref = pixel.2;
},
{
pos = (128,256);
ref = pixel.2;
},
{
pos = (640,256);
ref = pixel.2;
},
{
pos = (128,384);
ref = pixel.6;
},
{
pos = (128,512);
ref = pixel.2;
},
{
pos = (640,512);
ref = pixel.2;
},
{
pos = (128,640);
ref = pixel.2;
},
{
pos = (640,640);
ref = pixel.2;
},
{
pos = (128,768);
ref = pixel.2;
},
{
pos = (640,768);
ref = pixel.2;
}
);
width = 1024;
},
{
background = {
shapes = (
{
closed = 1;
nodes = (
(387,381,l,{
name = hr00;
}),
(637,381,l),
(637,-3,l),
(899,-3,l),
(899,899,l),
(637,899,l),
(637,515,l),
(387,515,l),
(387,899,l),
(125,899,l),
(125,-3,l),
(387,-3,l)
);
}
);
};
layerId = "A1CF3A9E-1F49-4701-AF3E-F0E694793914";
shapes = (
{
pos = (128,0);
ref = pixel.2;
},
{
pos = (640,0);
ref = pixel.2;
},
{
pos = (128,128);
ref = pixel.2;
},
{
pos = (640,128);
ref = pixel.2;
},
{
pos = (128,256);
ref = pixel.2;
},
{
pos = (640,256);
ref = pixel.2;
},
{
pos = (128,384);
ref = pixel.6;
},
{
pos = (128,512);
ref = pixel.2;
},
{
pos = (640,512);
ref = pixel.2;
},
{
pos = (128,640);
ref = pixel.2;
},
{
pos = (640,640);
ref = pixel.2;
},
{
pos = (128,768);
ref = pixel.2;
},
{
pos = (640,768);
ref = pixel.2;
}
);
width = 1024;
},
{
background = {
shapes = (
{
closed = 1;
nodes = (
(387,381,l,{
name = hr00;
}),
(637,381,l),
(637,-3,l),
(899,-3,l),
(899,899,l),
(637,899,l),
(637,515,l),
(387,515,l),
(387,899,l),
(125,899,l),
(125,-3,l),
(387,-3,l)
);
}
);
};
layerId = "93054D9F-9072-4363-B5A9-8BAB03B66C21";
shapes = (
{
pos = (128,0);
ref = pixel.2;
},
{
pos = (640,0);
ref = pixel.2;
},
{
pos = (128,128);
ref = pixel.2;
},
{
pos = (640,128);
ref = pixel.2;
},
{
pos = (128,256);
ref = pixel.2;
},
{
pos = (640,256);
ref = pixel.2;
},
{
pos = (128,384);
ref = pixel.6;
},
{
pos = (128,512);
ref = pixel.2;
},
{
pos = (640,512);
ref = pixel.2;
},
{
pos = (128,640);
ref = pixel.2;
},
{
pos = (640,640);
ref = pixel.2;
},
{
pos = (128,768);
ref = pixel.2;
},
{
pos = (640,768);
ref = pixel.2;
}
);
width = 1024;
},
{
background = {
shapes = (
{
closed = 1;
nodes = (
(387,381,l,{
name = hr00;
}),
(637,381,l),
(637,-3,l),
(899,-3,l),
(899,899,l),
(637,899,l),
(637,515,l),
(387,515,l),
(387,899,l),
(125,899,l),
(125,-3,l),
(387,-3,l)
);
}
);
};
layerId = "B2CED426-8D3E-4D4E-926E-917DB7E3651C";
shapes = (
{
pos = (128,0);
ref = pixel.2;
},
{
pos = (640,0);
ref = pixel.2;
},
{
pos = (128,128);
ref = pixel.2;
},
{
pos = (640,128);
ref = pixel.2;
},
{
pos = (128,256);
ref = pixel.2;
},
{
pos = (640,256);
ref = pixel.2;
},
{
pos = (128,384);
ref = pixel.6;
},
{
pos = (128,512);
ref = pixel.2;
},
{
pos = (640,512);
ref = pixel.2;
},
{
pos = (128,640);
ref = pixel.2;
},
{
pos = (640,640);
ref = pixel.2;
},
{
pos = (128,768);
ref = pixel.2;
},
{
pos = (640,768);
ref = pixel.2;
}
);
width = 1024;
}
);
unicode = 72;
userData = {
com.typemytype.robofont.mark = (
1,
0.6,
0.6,
1
);
};
},
{
color = 4;
glyphname = I;
layers = (
{
background = {
shapes = (
{
closed = 1;
nodes = (
(253,765,l,{
name = hr00;
}),
(381,765,l),
(381,131,l),
(253,131,l),
(253,-3,l),
(771,-3,l),
(771,131,l),
(643,131,l),
(643,765,l),
(771,765,l),
(771,899,l),
(253,899,l)
);
}
);
};
layerId = "511DE76B-C93C-4D1E-A4F3-1BF977EE06C9";
shapes = (
{
pos = (256,0);
ref = pixel.4;
},
{
pos = (384,128);
ref = pixel.2;
},
{
pos = (384,256);
ref = pixel.2;
},
{
pos = (384,384);
ref = pixel.2;
},
{
pos = (384,512);
ref = pixel.2;
},
{
pos = (384,640);
ref = pixel.2;
},
{
pos = (256,768);
ref = pixel.4;
}
);
width = 1024;
},
{
background = {
shapes = (
{
closed = 1;
nodes = (
(253,765,l,{
name = hr00;
}),
(381,765,l),
(381,131,l),
(253,131,l),
(253,-3,l),
(771,-3,l),
(771,131,l),
(643,131,l),
(643,765,l),
(771,765,l),
(771,899,l),
(253,899,l)
);
}
);
};
layerId = "A1CF3A9E-1F49-4701-AF3E-F0E694793914";
shapes = (
{
pos = (256,0);
ref = pixel.4;
},
{
pos = (384,128);
ref = pixel.2;
},
{
pos = (384,256);
ref = pixel.2;
},
{
pos = (384,384);
ref = pixel.2;
},
{
pos = (384,512);
ref = pixel.2;
},
{
pos = (384,640);
ref = pixel.2;
},
{
pos = (256,768);
ref = pixel.4;
}
);
width = 1024;
},
{
background = {
shapes = (
{
closed = 1;
nodes = (
(253,765,l,{
name = hr00;
}),
(381,765,l),
(381,131,l),
(253,131,l),
(253,-3,l),
(771,-3,l),
(771,131,l),
(643,131,l),
(643,765,l),
(771,765,l),
(771,899,l),
(253,899,l)
);
}
);
};
layerId = "93054D9F-9072-4363-B5A9-8BAB03B66C21";
shapes = (
{
pos = (256,0);
ref = pixel.4;
},
{
pos = (384,128);
ref = pixel.2;
},
{
pos = (384,256);
ref = pixel.2;
},
{
pos = (384,384);
ref = pixel.2;
},
{
pos = (384,512);
ref = pixel.2;
},
{
pos = (384,640);
ref = pixel.2;
},
{
pos = (256,768);
ref = pixel.4;
}
);
width = 1024;
},
{
background = {
shapes = (
{
closed = 1;
nodes = (
(253,765,l,{
name = hr00;
}),
(381,765,l),
(381,131,l),
(253,131,l),
(253,-3,l),
(771,-3,l),
(771,131,l),
(643,131,l),
(643,765,l),
(771,765,l),
(771,899,l),
(253,899,l)
);
}
);
};
layerId = "B2CED426-8D3E-4D4E-926E-917DB7E3651C";
shapes = (
{
pos = (256,0);
ref = pixel.4;
},
{
pos = (384,128);
ref = pixel.2;
},
{
pos = (384,256);
ref = pixel.2;
},
{
pos = (384,384);
ref = pixel.2;
},
{
pos = (384,512);
ref = pixel.2;
},
{
pos = (384,640);
ref = pixel.2;
},
{
pos = (256,768);
ref = pixel.4;
}
);
width = 1024;
}
);
unicode = 73;
userData = {
com.typemytype.robofont.mark = (
1,
0.6,
0.6,
1
);
};
},
{
color = 6;
glyphname = Iacute;
layers = (
{
background = {
shapes = (
{
closed = 1;
nodes = (
(253,381,l,{
name = hr00;
}),
(381,381,l),
(381,131,l),
(253,131,l),
(253,-3,l),
(771,-3,l),
(771,131,l),
(643,131,l),
(643,381,l),
(771,381,l),
(771,515,l),
(253,515,l)
);
},
{
closed = 1;
nodes = (
(771,899,l),
(509,899,l),
(509,771,l),
(381,771,l),
(381,637,l),
(643,637,l),
(643,765,l),
(771,765,l)
);
}
);
};
layerId = "511DE76B-C93C-4D1E-A4F3-1BF977EE06C9";
shapes = (
{
ref = I.case;
},
{
ref = acute;
}
);
width = 1024;
},
{
background = {
shapes = (
{
closed = 1;
nodes = (
(253,381,l,{
name = hr00;
}),
(381,381,l),
(381,131,l),
(253,131,l),
(253,-3,l),
(771,-3,l),
(771,131,l),
(643,131,l),
(643,381,l),
(771,381,l),
(771,515,l),
(253,515,l)
);
},
{
closed = 1;
nodes = (
(771,899,l),
(509,899,l),
(509,771,l),
(381,771,l),
(381,637,l),
(643,637,l),
(643,765,l),
(771,765,l)
);
}
);
};
layerId = "A1CF3A9E-1F49-4701-AF3E-F0E694793914";
shapes = (
{
ref = I.case;
},
{
ref = acute;
}
);
width = 1024;
},
{
background = {
shapes = (
{
closed = 1;
nodes = (
(253,381,l,{
name = hr00;
}),
(381,381,l),
(381,131,l),
(253,131,l),
(253,-3,l),
(771,-3,l),
(771,131,l),
(643,131,l),
(643,381,l),
(771,381,l),
(771,515,l),
(253,515,l)
);
},
{
closed = 1;
nodes = (
(771,899,l),
(509,899,l),
(509,771,l),
(381,771,l),
(381,637,l),
(643,637,l),
(643,765,l),
(771,765,l)
);
}
);
};
layerId = "93054D9F-9072-4363-B5A9-8BAB03B66C21";
shapes = (
{
ref = I.case;
},
{
ref = acute;
}
);
width = 1024;
},
{
background = {
shapes = (
{
closed = 1;
nodes = (
(253,381,l,{
name = hr00;
}),
(381,381,l),
(381,131,l),
(253,131,l),
(253,-3,l),
(771,-3,l),
(771,131,l),
(643,131,l),
(643,381,l),
(771,381,l),
(771,515,l),
(253,515,l)
);
},
{
closed = 1;
nodes = (
(771,899,l),
(509,899,l),
(509,771,l),
(381,771,l),
(381,637,l),
(643,637,l),
(643,765,l),
(771,765,l)
);
}
);
};
layerId = "B2CED426-8D3E-4D4E-926E-917DB7E3651C";
shapes = (
{
ref = I.case;
},
{
ref = acute;
}
);
width = 1024;
}
);
unicode = 205;
userData = {
com.typemytype.robofont.mark = (
0.967,
0.6,
1,
1
);
};
},
{
color = 6;
glyphname = Icircumflex;
layers = (
{
background = {
shapes = (
{
closed = 1;
nodes = (
(253,381,l,{
name = hr00;
}),
(381,381,l),
(381,131,l),
(253,131,l),
(253,-3,l),
(771,-3,l),
(771,131,l),
(643,131,l),
(643,381,l),
(771,381,l),
(771,515,l),
(253,515,l)
);
},
{
closed = 1;
nodes = (
(637,637,l),
(899,637,l),
(899,771,l),
(771,771,l),
(771,899,l),
(253,899,l),
(253,771,l),
(125,771,l),
(125,637,l),
(387,637,l),
(387,765,l),
(637,765,l)
);
}
);
};
layerId = "511DE76B-C93C-4D1E-A4F3-1BF977EE06C9";
shapes = (
{
ref = I.case;
},
{
ref = circumflex;
}
);
width = 1024;
},
{
background = {
shapes = (
{
closed = 1;
nodes = (
(253,381,l,{
name = hr00;
}),
(381,381,l),
(381,131,l),
(253,131,l),
(253,-3,l),
(771,-3,l),
(771,131,l),
(643,131,l),
(643,381,l),
(771,381,l),
(771,515,l),
(253,515,l)
);
},
{
closed = 1;
nodes = (
(637,637,l),
(899,637,l),
(899,771,l),
(771,771,l),
(771,899,l),
(253,899,l),
(253,771,l),
(125,771,l),
(125,637,l),
(387,637,l),
(387,765,l),
(637,765,l)
);
}
);
};
layerId = "A1CF3A9E-1F49-4701-AF3E-F0E694793914";
shapes = (
{
ref = I.case;
},
{
ref = circumflex;
}
);
width = 1024;
},
{
background = {
shapes = (
{
closed = 1;
nodes = (
(253,381,l,{
name = hr00;
}),
(381,381,l),
(381,131,l),
(253,131,l),
(253,-3,l),
(771,-3,l),
(771,131,l),
(643,131,l),
(643,381,l),
(771,381,l),
(771,515,l),
(253,515,l)
);
},
{
closed = 1;
nodes = (
(637,637,l),
(899,637,l),
(899,771,l),
(771,771,l),
(771,899,l),
(253,899,l),
(253,771,l),
(125,771,l),
(125,637,l),
(387,637,l),
(387,765,l),
(637,765,l)
);
}
);
};
layerId = "93054D9F-9072-4363-B5A9-8BAB03B66C21";
shapes = (
{
ref = I.case;
},
{
ref = circumflex;
}
);
width = 1024;
},
{
background = {
shapes = (
{
closed = 1;
nodes = (
(253,381,l,{
name = hr00;
}),
(381,381,l),
(381,131,l),
(253,131,l),
(253,-3,l),
(771,-3,l),
(771,131,l),
(643,131,l),
(643,381,l),
(771,381,l),
(771,515,l),
(253,515,l)
);
},
{
closed = 1;
nodes = (
(637,637,l),
(899,637,l),
(899,771,l),
(771,771,l),
(771,899,l),
(253,899,l),
(253,771,l),
(125,771,l),
(125,637,l),
(387,637,l),
(387,765,l),
(637,765,l)
);
}
);
};
layerId = "B2CED426-8D3E-4D4E-926E-917DB7E3651C";
shapes = (
{
ref = I.case;
},
{
ref = circumflex;
}
);
width = 1024;
}
);
unicode = 206;
userData = {
com.typemytype.robofont.mark = (
0.967,
0.6,
1,
1
);
};
},
{
color = 6;
glyphname = Idieresis;
layers = (
{
background = {
shapes = (
{
closed = 1;
nodes = (
(253,509,l,{
name = hr00;
}),
(381,509,l),
(381,131,l),
(253,131,l),
(253,-3,l),
(771,-3,l),
(771,131,l),
(643,131,l),
(643,509,l),
(771,509,l),
(771,643,l),
(253,643,l)
);
},
{
closed = 1;
nodes = (
(637,765,l),
(899,765,l),
(899,899,l),
(637,899,l)
);
},
{
closed = 1;
nodes = (
(125,765,l),
(387,765,l),
(387,899,l),
(125,899,l)
);
}
);
};
layerId = "511DE76B-C93C-4D1E-A4F3-1BF977EE06C9";
shapes = (
{
ref = I.case.2;
},
{
ref = dieresis;
}
);
width = 1024;
},
{
background = {
shapes = (
{
closed = 1;
nodes = (
(253,509,l,{
name = hr00;
}),
(381,509,l),
(381,131,l),
(253,131,l),
(253,-3,l),
(771,-3,l),
(771,131,l),
(643,131,l),
(643,509,l),
(771,509,l),
(771,643,l),
(253,643,l)
);
},
{
closed = 1;
nodes = (
(637,765,l),
(899,765,l),
(899,899,l),
(637,899,l)
);
},
{
closed = 1;
nodes = (
(125,765,l),
(387,765,l),
(387,899,l),
(125,899,l)
);
}
);
};
layerId = "A1CF3A9E-1F49-4701-AF3E-F0E694793914";
shapes = (
{
ref = I.case.2;
},
{
ref = dieresis;
}
);
width = 1024;
},
{
background = {
shapes = (
{
closed = 1;
nodes = (
(253,509,l,{
name = hr00;
}),
(381,509,l),
(381,131,l),
(253,131,l),
(253,-3,l),
(771,-3,l),
(771,131,l),
(643,131,l),
(643,509,l),
(771,509,l),
(771,643,l),
(253,643,l)
);
},
{
closed = 1;
nodes = (
(637,765,l),
(899,765,l),
(899,899,l),
(637,899,l)
);
},
{
closed = 1;
nodes = (
(125,765,l),
(387,765,l),
(387,899,l),
(125,899,l)
);
}
);
};
layerId = "93054D9F-9072-4363-B5A9-8BAB03B66C21";
shapes = (
{
ref = I.case.2;
},
{
ref = dieresis;
}
);
width = 1024;
},
{
background = {
shapes = (
{
closed = 1;
nodes = (
(253,509,l,{
name = hr00;
}),
(381,509,l),
(381,131,l),
(253,131,l),
(253,-3,l),
(771,-3,l),
(771,131,l),
(643,131,l),
(643,509,l),
(771,509,l),
(771,643,l),
(253,643,l)
);
},
{
closed = 1;
nodes = (
(637,765,l),
(899,765,l),
(899,899,l),
(637,899,l)
);
},
{
closed = 1;
nodes = (
(125,765,l),
(387,765,l),
(387,899,l),
(125,899,l)
);
}
);
};
layerId = "B2CED426-8D3E-4D4E-926E-917DB7E3651C";
shapes = (
{
ref = I.case.2;
},
{
ref = dieresis;
}
);
width = 1024;
}
);
unicode = 207;
userData = {
com.typemytype.robofont.mark = (
0.967,
0.6,
1,
1
);
};
},
{
color = 6;
glyphname = Igrave;
layers = (
{
background = {
shapes = (
{
closed = 1;
nodes = (
(253,381,l,{
name = hr00;
}),
(381,381,l),
(381,131,l),
(253,131,l),
(253,-3,l),
(771,-3,l),
(771,131,l),
(643,131,l),
(643,381,l),
(771,381,l),
(771,515,l),
(253,515,l)
);
},
{
closed = 1;
nodes = (
(253,765,l),
(381,765,l),
(381,637,l),
(643,637,l),
(643,771,l),
(515,771,l),
(515,899,l),
(253,899,l)
);
}
);
};
layerId = "511DE76B-C93C-4D1E-A4F3-1BF977EE06C9";
shapes = (
{
ref = I.case;
},
{
ref = grave;
}
);
width = 1024;
},
{
background = {
shapes = (
{
closed = 1;
nodes = (
(253,381,l,{
name = hr00;
}),
(381,381,l),
(381,131,l),
(253,131,l),
(253,-3,l),
(771,-3,l),
(771,131,l),
(643,131,l),
(643,381,l),
(771,381,l),
(771,515,l),
(253,515,l)
);
},
{
closed = 1;
nodes = (
(253,765,l),
(381,765,l),
(381,637,l),
(643,637,l),
(643,771,l),
(515,771,l),
(515,899,l),
(253,899,l)
);
}
);
};
layerId = "A1CF3A9E-1F49-4701-AF3E-F0E694793914";
shapes = (
{
ref = I.case;
},
{
ref = grave;
}
);
width = 1024;
},
{
background = {
shapes = (
{
closed = 1;
nodes = (
(253,381,l,{
name = hr00;
}),
(381,381,l),
(381,131,l),
(253,131,l),
(253,-3,l),
(771,-3,l),
(771,131,l),
(643,131,l),
(643,381,l),
(771,381,l),
(771,515,l),
(253,515,l)
);
},
{
closed = 1;
nodes = (
(253,765,l),
(381,765,l),
(381,637,l),
(643,637,l),
(643,771,l),
(515,771,l),
(515,899,l),
(253,899,l)
);
}
);
};
layerId = "93054D9F-9072-4363-B5A9-8BAB03B66C21";
shapes = (
{
ref = I.case;
},
{
ref = grave;
}
);
width = 1024;
},
{
background = {
shapes = (
{
closed = 1;
nodes = (
(253,381,l,{
name = hr00;
}),
(381,381,l),
(381,131,l),
(253,131,l),
(253,-3,l),
(771,-3,l),
(771,131,l),
(643,131,l),
(643,381,l),
(771,381,l),
(771,515,l),
(253,515,l)
);
},
{
closed = 1;
nodes = (
(253,765,l),
(381,765,l),
(381,637,l),
(643,637,l),
(643,771,l),
(515,771,l),
(515,899,l),
(253,899,l)
);
}
);
};
layerId = "B2CED426-8D3E-4D4E-926E-917DB7E3651C";
shapes = (
{
ref = I.case;
},
{
ref = grave;
}
);
width = 1024;
}
);
unicode = 204;
userData = {
com.typemytype.robofont.mark = (
0.967,
0.6,
1,
1
);
};
},
{
color = 4;
glyphname = J;
layers = (
{
background = {
shapes = (
{
closed = 1;
nodes = (
(381,765,l,{
name = hr00;
}),
(509,765,l),
(509,131,l),
(387,131,l),
(387,259,l),
(125,259,l),
(125,125,l),
(253,125,l),
(253,-3,l),
(643,-3,l),
(643,125,l),
(771,125,l),
(771,765,l),
(899,765,l),
(899,899,l),
(381,899,l)
);
}
);
};
layerId = "511DE76B-C93C-4D1E-A4F3-1BF977EE06C9";
shapes = (
{
pos = (256,0);
ref = pixel.3;
},
{
pos = (128,128);
ref = pixel.2;
},
{
pos = (512,128);
ref = pixel.2;
},
{
pos = (512,256);
ref = pixel.2;
},
{
pos = (512,384);
ref = pixel.2;
},
{
pos = (512,512);
ref = pixel.2;
},
{
pos = (512,640);
ref = pixel.2;
},
{
pos = (384,768);
ref = pixel.4;
}
);
width = 1024;
},
{
background = {
shapes = (
{
closed = 1;
nodes = (
(381,765,l,{
name = hr00;
}),
(509,765,l),
(509,131,l),
(387,131,l),
(387,259,l),
(125,259,l),
(125,125,l),
(253,125,l),
(253,-3,l),
(643,-3,l),
(643,125,l),
(771,125,l),
(771,765,l),
(899,765,l),
(899,899,l),
(381,899,l)
);
}
);
};
layerId = "A1CF3A9E-1F49-4701-AF3E-F0E694793914";
shapes = (
{
pos = (256,0);
ref = pixel.3;
},
{
pos = (128,128);
ref = pixel.2;
},
{
pos = (512,128);
ref = pixel.2;
},
{
pos = (512,256);
ref = pixel.2;
},
{
pos = (512,384);
ref = pixel.2;
},
{
pos = (512,512);
ref = pixel.2;
},
{
pos = (512,640);
ref = pixel.2;
},
{
pos = (384,768);
ref = pixel.4;
}
);
width = 1024;
},
{
background = {
shapes = (
{
closed = 1;
nodes = (
(381,765,l,{
name = hr00;
}),
(509,765,l),
(509,131,l),
(387,131,l),
(387,259,l),
(125,259,l),
(125,125,l),
(253,125,l),
(253,-3,l),
(643,-3,l),
(643,125,l),
(771,125,l),
(771,765,l),
(899,765,l),
(899,899,l),
(381,899,l)
);
}
);
};
layerId = "93054D9F-9072-4363-B5A9-8BAB03B66C21";
shapes = (
{
pos = (256,0);
ref = pixel.3;
},
{
pos = (128,128);
ref = pixel.2;
},
{
pos = (512,128);
ref = pixel.2;
},
{
pos = (512,256);
ref = pixel.2;
},
{
pos = (512,384);
ref = pixel.2;
},
{
pos = (512,512);
ref = pixel.2;
},
{
pos = (512,640);
ref = pixel.2;
},
{
pos = (384,768);
ref = pixel.4;
}
);
width = 1024;
},
{
background = {
shapes = (
{
closed = 1;
nodes = (
(381,765,l,{
name = hr00;
}),
(509,765,l),
(509,131,l),
(387,131,l),
(387,259,l),
(125,259,l),
(125,125,l),
(253,125,l),
(253,-3,l),
(643,-3,l),
(643,125,l),
(771,125,l),
(771,765,l),
(899,765,l),
(899,899,l),
(381,899,l)
);
}
);
};
layerId = "B2CED426-8D3E-4D4E-926E-917DB7E3651C";
shapes = (
{
pos = (256,0);
ref = pixel.3;
},
{
pos = (128,128);
ref = pixel.2;
},
{
pos = (512,128);
ref = pixel.2;
},
{
pos = (512,256);
ref = pixel.2;
},
{
pos = (512,384);
ref = pixel.2;
},
{
pos = (512,512);
ref = pixel.2;
},
{
pos = (512,640);
ref = pixel.2;
},
{
pos = (384,768);
ref = pixel.4;
}
);
width = 1024;
}
);
unicode = 74;
userData = {
com.typemytype.robofont.mark = (
1,
0.6,
0.6,
1
);
};
},
{
color = 4;
glyphname = K;
layers = (
{
background = {
shapes = (
{
closed = 1;
nodes = (
(509,125,l,{
name = hr00;
}),
(637,125,l),
(637,-3,l),
(899,-3,l),
(899,131,l),
(771,131,l),
(771,259,l),
(643,259,l),
(643,387,l),
(515,387,l),
(515,509,l),
(643,509,l),
(643,637,l),
(771,637,l),
(771,765,l),
(899,765,l),
(899,899,l),
(637,899,l),
(637,771,l),
(509,771,l),
(509,643,l),
(387,643,l),
(387,899,l),
(125,899,l),
(125,-3,l),
(387,-3,l),
(387,253,l),
(509,253,l)
);
}
);
};
layerId = "511DE76B-C93C-4D1E-A4F3-1BF977EE06C9";
shapes = (
{
pos = (128,0);
ref = pixel.2;
},
{
pos = (640,0);
ref = pixel.2;
},
{
pos = (128,128);
ref = pixel.2;
},
{
pos = (512,128);
ref = pixel.2;
},
{
pos = (128,256);
ref = pixel.4;
},
{
pos = (128,384);
ref = pixel.3;
},
{
pos = (128,512);
ref = pixel.4;
},
{
pos = (128,640);
ref = pixel.2;
},
{
pos = (512,640);
ref = pixel.2;
},
{
pos = (128,768);
ref = pixel.2;
},
{
pos = (640,768);
ref = pixel.2;
}
);
width = 1024;
},
{
background = {
shapes = (
{
closed = 1;
nodes = (
(509,125,l,{
name = hr00;
}),
(637,125,l),
(637,-3,l),
(899,-3,l),
(899,131,l),
(771,131,l),
(771,259,l),
(643,259,l),
(643,387,l),
(515,387,l),
(515,509,l),
(643,509,l),
(643,637,l),
(771,637,l),
(771,765,l),
(899,765,l),
(899,899,l),
(637,899,l),
(637,771,l),
(509,771,l),
(509,643,l),
(387,643,l),
(387,899,l),
(125,899,l),
(125,-3,l),
(387,-3,l),
(387,253,l),
(509,253,l)
);
}
);
};
layerId = "A1CF3A9E-1F49-4701-AF3E-F0E694793914";
shapes = (
{
pos = (128,0);
ref = pixel.2;
},
{
pos = (640,0);
ref = pixel.2;
},
{
pos = (128,128);
ref = pixel.2;
},
{
pos = (512,128);
ref = pixel.2;
},
{
pos = (128,256);
ref = pixel.4;
},
{
pos = (128,384);
ref = pixel.3;
},
{
pos = (128,512);
ref = pixel.4;
},
{
pos = (128,640);
ref = pixel.2;
},
{
pos = (512,640);
ref = pixel.2;
},
{
pos = (128,768);
ref = pixel.2;
},
{
pos = (640,768);
ref = pixel.2;
}
);
width = 1024;
},
{
background = {
shapes = (
{
closed = 1;
nodes = (
(509,125,l,{
name = hr00;
}),
(637,125,l),
(637,-3,l),
(899,-3,l),
(899,131,l),
(771,131,l),
(771,259,l),
(643,259,l),
(643,387,l),
(515,387,l),
(515,509,l),
(643,509,l),
(643,637,l),
(771,637,l),
(771,765,l),
(899,765,l),
(899,899,l),
(637,899,l),
(637,771,l),
(509,771,l),
(509,643,l),
(387,643,l),
(387,899,l),
(125,899,l),
(125,-3,l),
(387,-3,l),
(387,253,l),
(509,253,l)
);
}
);
};
layerId = "93054D9F-9072-4363-B5A9-8BAB03B66C21";
shapes = (
{
pos = (128,0);
ref = pixel.2;
},
{
pos = (640,0);
ref = pixel.2;
},
{
pos = (128,128);
ref = pixel.2;
},
{
pos = (512,128);
ref = pixel.2;
},
{
pos = (128,256);
ref = pixel.4;
},
{
pos = (128,384);
ref = pixel.3;
},
{
pos = (128,512);
ref = pixel.4;
},
{
pos = (128,640);
ref = pixel.2;
},
{
pos = (512,640);
ref = pixel.2;
},
{
pos = (128,768);
ref = pixel.2;
},
{
pos = (640,768);
ref = pixel.2;
}
);
width = 1024;
},
{
background = {
shapes = (
{
closed = 1;
nodes = (
(509,125,l,{
name = hr00;
}),
(637,125,l),
(637,-3,l),
(899,-3,l),
(899,131,l),
(771,131,l),
(771,259,l),
(643,259,l),
(643,387,l),
(515,387,l),
(515,509,l),
(643,509,l),
(643,637,l),
(771,637,l),
(771,765,l),
(899,765,l),
(899,899,l),
(637,899,l),
(637,771,l),
(509,771,l),
(509,643,l),
(387,643,l),
(387,899,l),
(125,899,l),
(125,-3,l),
(387,-3,l),
(387,253,l),
(509,253,l)
);
}
);
};
layerId = "B2CED426-8D3E-4D4E-926E-917DB7E3651C";
shapes = (
{
pos = (128,0);
ref = pixel.2;
},
{
pos = (640,0);
ref = pixel.2;
},
{
pos = (128,128);
ref = pixel.2;
},
{
pos = (512,128);
ref = pixel.2;
},
{
pos = (128,256);
ref = pixel.4;
},
{
pos = (128,384);
ref = pixel.3;
},
{
pos = (128,512);
ref = pixel.4;
},
{
pos = (128,640);
ref = pixel.2;
},
{
pos = (512,640);
ref = pixel.2;
},
{
pos = (128,768);
ref = pixel.2;
},
{
pos = (640,768);
ref = pixel.2;
}
);
width = 1024;
}
);
unicode = 75;
userData = {
com.typemytype.robofont.mark = (
1,
0.6,
0.6,
1
);
};
},
{
color = 4;
glyphname = L;
layers = (
{
background = {
shapes = (
{
closed = 1;
nodes = (
(125,-3,l,{
name = hr00;
}),
(899,-3,l),
(899,131,l),
(387,131,l),
(387,899,l),
(125,899,l)
);
}
);
};
layerId = "511DE76B-C93C-4D1E-A4F3-1BF977EE06C9";
shapes = (
{
pos = (128,0);
ref = pixel.6;
},
{
pos = (128,128);
ref = pixel.2;
},
{
pos = (128,256);
ref = pixel.2;
},
{
pos = (128,384);
ref = pixel.2;
},
{
pos = (128,512);
ref = pixel.2;
},
{
pos = (128,640);
ref = pixel.2;
},
{
pos = (128,768);
ref = pixel.2;
}
);
width = 1024;
},
{
background = {
shapes = (
{
closed = 1;
nodes = (
(125,-3,l,{
name = hr00;
}),
(899,-3,l),
(899,131,l),
(387,131,l),
(387,899,l),
(125,899,l)
);
}
);
};
layerId = "A1CF3A9E-1F49-4701-AF3E-F0E694793914";
shapes = (
{
pos = (128,0);
ref = pixel.6;
},
{
pos = (128,128);
ref = pixel.2;
},
{
pos = (128,256);
ref = pixel.2;
},
{
pos = (128,384);
ref = pixel.2;
},
{
pos = (128,512);
ref = pixel.2;
},
{
pos = (128,640);
ref = pixel.2;
},
{
pos = (128,768);
ref = pixel.2;
}
);
width = 1024;
},
{
background = {
shapes = (
{
closed = 1;
nodes = (
(125,-3,l,{
name = hr00;
}),
(899,-3,l),
(899,131,l),
(387,131,l),
(387,899,l),
(125,899,l)
);
}
);
};
layerId = "93054D9F-9072-4363-B5A9-8BAB03B66C21";
shapes = (
{
pos = (128,0);
ref = pixel.6;
},
{
pos = (128,128);
ref = pixel.2;
},
{
pos = (128,256);
ref = pixel.2;
},
{
pos = (128,384);
ref = pixel.2;
},
{
pos = (128,512);
ref = pixel.2;
},
{
pos = (128,640);
ref = pixel.2;
},
{
pos = (128,768);
ref = pixel.2;
}
);
width = 1024;
},
{
background = {
shapes = (
{
closed = 1;
nodes = (
(125,-3,l,{
name = hr00;
}),
(899,-3,l),
(899,131,l),
(387,131,l),
(387,899,l),
(125,899,l)
);
}
);
};
layerId = "B2CED426-8D3E-4D4E-926E-917DB7E3651C";
shapes = (
{
pos = (128,0);
ref = pixel.6;
},
{
pos = (128,128);
ref = pixel.2;
},
{
pos = (128,256);
ref = pixel.2;
},
{
pos = (128,384);
ref = pixel.2;
},
{
pos = (128,512);
ref = pixel.2;
},
{
pos = (128,640);
ref = pixel.2;
},
{
pos = (128,768);
ref = pixel.2;
}
);
width = 1024;
}
);
unicode = 76;
userData = {
com.typemytype.robofont.mark = (
1,
0.6,
0.6,
1
);
};
},
{
color = 4;
glyphname = M;
layers = (
{
background = {
shapes = (
{
closed = 1;
nodes = (
(765,-3,l,{
name = hr00;
}),
(1027,-3,l),
(1027,899,l),
(765,899,l),
(765,771,l),
(637,771,l),
(637,643,l),
(515,643,l),
(515,771,l),
(387,771,l),
(387,899,l),
(125,899,l),
(125,-3,l),
(387,-3,l),
(387,509,l),
(509,509,l),
(509,381,l),
(643,381,l),
(643,509,l),
(765,509,l)
);
}
);
};
layerId = "511DE76B-C93C-4D1E-A4F3-1BF977EE06C9";
shapes = (
{
pos = (128,0);
ref = pixel.2;
},
{
pos = (768,0);
ref = pixel.2;
},
{
pos = (128,128);
ref = pixel.2;
},
{
pos = (768,128);
ref = pixel.2;
},
{
pos = (128,256);
ref = pixel.2;
},
{
pos = (768,256);
ref = pixel.2;
},
{
pos = (128,384);
ref = pixel.2;
},
{
pos = (512,384);
ref = pixel.1;
},
{
pos = (768,384);
ref = pixel.2;
},
{
pos = (128,512);
ref = pixel.7;
},
{
pos = (128,640);
ref = pixel.3;
},
{
pos = (640,640);
ref = pixel.3;
},
{
pos = (128,768);
ref = pixel.2;
},
{
pos = (768,768);
ref = pixel.2;
}
);
width = 1024;
},
{
background = {
shapes = (
{
closed = 1;
nodes = (
(765,-3,l,{
name = hr00;
}),
(1027,-3,l),
(1027,899,l),
(765,899,l),
(765,771,l),
(637,771,l),
(637,643,l),
(515,643,l),
(515,771,l),
(387,771,l),
(387,899,l),
(125,899,l),
(125,-3,l),
(387,-3,l),
(387,509,l),
(509,509,l),
(509,381,l),
(643,381,l),
(643,509,l),
(765,509,l)
);
}
);
};
layerId = "A1CF3A9E-1F49-4701-AF3E-F0E694793914";
shapes = (
{
pos = (128,0);
ref = pixel.2;
},
{
pos = (768,0);
ref = pixel.2;
},
{
pos = (128,128);
ref = pixel.2;
},
{
pos = (768,128);
ref = pixel.2;
},
{
pos = (128,256);
ref = pixel.2;
},
{
pos = (768,256);
ref = pixel.2;
},
{
pos = (128,384);
ref = pixel.2;
},
{
pos = (512,384);
ref = pixel.1;
},
{
pos = (768,384);
ref = pixel.2;
},
{
pos = (128,512);
ref = pixel.7;
},
{
pos = (128,640);
ref = pixel.3;
},
{
pos = (640,640);
ref = pixel.3;
},
{
pos = (128,768);
ref = pixel.2;
},
{
pos = (768,768);
ref = pixel.2;
}
);
width = 1024;
},
{
background = {
shapes = (
{
closed = 1;
nodes = (
(765,-3,l,{
name = hr00;
}),
(1027,-3,l),
(1027,899,l),
(765,899,l),
(765,771,l),
(637,771,l),
(637,643,l),
(515,643,l),
(515,771,l),
(387,771,l),
(387,899,l),
(125,899,l),
(125,-3,l),
(387,-3,l),
(387,509,l),
(509,509,l),
(509,381,l),
(643,381,l),
(643,509,l),
(765,509,l)
);
}
);
};
layerId = "93054D9F-9072-4363-B5A9-8BAB03B66C21";
shapes = (
{
pos = (128,0);
ref = pixel.2;
},
{
pos = (768,0);
ref = pixel.2;
},
{
pos = (128,128);
ref = pixel.2;
},
{
pos = (768,128);
ref = pixel.2;
},
{
pos = (128,256);
ref = pixel.2;
},
{
pos = (768,256);
ref = pixel.2;
},
{
pos = (128,384);
ref = pixel.2;
},
{
pos = (512,384);
ref = pixel.1;
},
{
pos = (768,384);
ref = pixel.2;
},
{
pos = (128,512);
ref = pixel.7;
},
{
pos = (128,640);
ref = pixel.3;
},
{
pos = (640,640);
ref = pixel.3;
},
{
pos = (128,768);
ref = pixel.2;
},
{
pos = (768,768);
ref = pixel.2;
}
);
width = 1024;
},
{
background = {
shapes = (
{
closed = 1;
nodes = (
(765,-3,l,{
name = hr00;
}),
(1027,-3,l),
(1027,899,l),
(765,899,l),
(765,771,l),
(637,771,l),
(637,643,l),
(515,643,l),
(515,771,l),
(387,771,l),
(387,899,l),
(125,899,l),
(125,-3,l),
(387,-3,l),
(387,509,l),
(509,509,l),
(509,381,l),
(643,381,l),
(643,509,l),
(765,509,l)
);
}
);
};
layerId = "B2CED426-8D3E-4D4E-926E-917DB7E3651C";
shapes = (
{
pos = (128,0);
ref = pixel.2;
},
{
pos = (768,0);
ref = pixel.2;
},
{
pos = (128,128);
ref = pixel.2;
},
{
pos = (768,128);
ref = pixel.2;
},
{
pos = (128,256);
ref = pixel.2;
},
{
pos = (768,256);
ref = pixel.2;
},
{
pos = (128,384);
ref = pixel.2;
},
{
pos = (512,384);
ref = pixel.1;
},
{
pos = (768,384);
ref = pixel.2;
},
{
pos = (128,512);
ref = pixel.7;
},
{
pos = (128,640);
ref = pixel.3;
},
{
pos = (640,640);
ref = pixel.3;
},
{
pos = (128,768);
ref = pixel.2;
},
{
pos = (768,768);
ref = pixel.2;
}
);
width = 1024;
}
);
unicode = 77;
userData = {
com.typemytype.robofont.mark = (
1,
0.6,
0.6,
1
);
};
},
{
color = 4;
glyphname = N;
layers = (
{
background = {
shapes = (
{
closed = 1;
nodes = (
(637,-3,l,{
name = hr00;
}),
(899,-3,l),
(899,899,l),
(637,899,l),
(637,643,l),
(515,643,l),
(515,771,l),
(387,771,l),
(387,899,l),
(125,899,l),
(125,-3,l),
(387,-3,l),
(387,509,l),
(509,509,l),
(509,381,l),
(637,381,l)
);
}
);
};
layerId = "511DE76B-C93C-4D1E-A4F3-1BF977EE06C9";
shapes = (
{
pos = (128,0);
ref = pixel.2;
},
{
pos = (640,0);
ref = pixel.2;
},
{
pos = (128,128);
ref = pixel.2;
},
{
pos = (640,128);
ref = pixel.2;
},
{
pos = (128,256);
ref = pixel.2;
},
{
pos = (640,256);
ref = pixel.2;
},
{
pos = (128,384);
ref = pixel.2;
},
{
pos = (512,384);
ref = pixel.3;
},
{
pos = (128,512);
ref = pixel.6;
},
{
pos = (128,640);
ref = pixel.3;
},
{
pos = (640,640);
ref = pixel.2;
},
{
pos = (128,768);
ref = pixel.2;
},
{
pos = (640,768);
ref = pixel.2;
}
);
width = 1024;
},
{
background = {
shapes = (
{
closed = 1;
nodes = (
(637,-3,l,{
name = hr00;
}),
(899,-3,l),
(899,899,l),
(637,899,l),
(637,643,l),
(515,643,l),
(515,771,l),
(387,771,l),
(387,899,l),
(125,899,l),
(125,-3,l),
(387,-3,l),
(387,509,l),
(509,509,l),
(509,381,l),
(637,381,l)
);
}
);
};
layerId = "A1CF3A9E-1F49-4701-AF3E-F0E694793914";
shapes = (
{
pos = (128,0);
ref = pixel.2;
},
{
pos = (640,0);
ref = pixel.2;
},
{
pos = (128,128);
ref = pixel.2;
},
{
pos = (640,128);
ref = pixel.2;
},
{
pos = (128,256);
ref = pixel.2;
},
{
pos = (640,256);
ref = pixel.2;
},
{
pos = (128,384);
ref = pixel.2;
},
{
pos = (512,384);
ref = pixel.3;
},
{
pos = (128,512);
ref = pixel.6;
},
{
pos = (128,640);
ref = pixel.3;
},
{
pos = (640,640);
ref = pixel.2;
},
{
pos = (128,768);
ref = pixel.2;
},
{
pos = (640,768);
ref = pixel.2;
}
);
width = 1024;
},
{
background = {
shapes = (
{
closed = 1;
nodes = (
(637,-3,l,{
name = hr00;
}),
(899,-3,l),
(899,899,l),
(637,899,l),
(637,643,l),
(515,643,l),
(515,771,l),
(387,771,l),
(387,899,l),
(125,899,l),
(125,-3,l),
(387,-3,l),
(387,509,l),
(509,509,l),
(509,381,l),
(637,381,l)
);
}
);
};
layerId = "93054D9F-9072-4363-B5A9-8BAB03B66C21";
shapes = (
{
pos = (128,0);
ref = pixel.2;
},
{
pos = (640,0);
ref = pixel.2;
},
{
pos = (128,128);
ref = pixel.2;
},
{
pos = (640,128);
ref = pixel.2;
},
{
pos = (128,256);
ref = pixel.2;
},
{
pos = (640,256);
ref = pixel.2;
},
{
pos = (128,384);
ref = pixel.2;
},
{
pos = (512,384);
ref = pixel.3;
},
{
pos = (128,512);
ref = pixel.6;
},
{
pos = (128,640);
ref = pixel.3;
},
{
pos = (640,640);
ref = pixel.2;
},
{
pos = (128,768);
ref = pixel.2;
},
{
pos = (640,768);
ref = pixel.2;
}
);
width = 1024;
},
{
background = {
shapes = (
{
closed = 1;
nodes = (
(637,-3,l,{
name = hr00;
}),
(899,-3,l),
(899,899,l),
(637,899,l),
(637,643,l),
(515,643,l),
(515,771,l),
(387,771,l),
(387,899,l),
(125,899,l),
(125,-3,l),
(387,-3,l),
(387,509,l),
(509,509,l),
(509,381,l),
(637,381,l)
);
}
);
};
layerId = "B2CED426-8D3E-4D4E-926E-917DB7E3651C";
shapes = (
{
pos = (128,0);
ref = pixel.2;
},
{
pos = (640,0);
ref = pixel.2;
},
{
pos = (128,128);
ref = pixel.2;
},
{
pos = (640,128);
ref = pixel.2;
},
{
pos = (128,256);
ref = pixel.2;
},
{
pos = (640,256);
ref = pixel.2;
},
{
pos = (128,384);
ref = pixel.2;
},
{
pos = (512,384);
ref = pixel.3;
},
{
pos = (128,512);
ref = pixel.6;
},
{
pos = (128,640);
ref = pixel.3;
},
{
pos = (640,640);
ref = pixel.2;
},
{
pos = (128,768);
ref = pixel.2;
},
{
pos = (640,768);
ref = pixel.2;
}
);
width = 1024;
}
);
unicode = 78;
userData = {
com.typemytype.robofont.mark = (
1,
0.6,
0.6,
1
);
};
},
{
color = 6;
glyphname = Ntilde;
layers = (
{
background = {
shapes = (
{
closed = 1;
nodes = (
(765,771,l,{
name = hr00;
}),
(643,771,l),
(643,899,l),
(253,899,l),
(253,771,l),
(125,771,l),
(125,-3,l),
(387,-3,l),
(387,253,l),
(509,253,l),
(509,125,l),
(637,125,l),
(637,-3,l),
(899,-3,l),
(899,765,l),
(1027,765,l),
(1027,899,l),
(765,899,l)
);
},
{
closed = 1;
nodes = (
(637,387,l),
(515,387,l),
(515,515,l),
(387,515,l),
(387,765,l),
(509,765,l),
(509,637,l),
(637,637,l)
);
}
);
};
layerId = "511DE76B-C93C-4D1E-A4F3-1BF977EE06C9";
shapes = (
{
ref = N.case;
},
{
ref = tilde;
}
);
width = 1024;
},
{
background = {
shapes = (
{
closed = 1;
nodes = (
(765,771,l,{
name = hr00;
}),
(643,771,l),
(643,899,l),
(253,899,l),
(253,771,l),
(125,771,l),
(125,-3,l),
(387,-3,l),
(387,253,l),
(509,253,l),
(509,125,l),
(637,125,l),
(637,-3,l),
(899,-3,l),
(899,765,l),
(1027,765,l),
(1027,899,l),
(765,899,l)
);
},
{
closed = 1;
nodes = (
(637,387,l),
(515,387,l),
(515,515,l),
(387,515,l),
(387,765,l),
(509,765,l),
(509,637,l),
(637,637,l)
);
}
);
};
layerId = "A1CF3A9E-1F49-4701-AF3E-F0E694793914";
shapes = (
{
ref = N.case;
},
{
ref = tilde;
}
);
width = 1024;
},
{
background = {
shapes = (
{
closed = 1;
nodes = (
(765,771,l,{
name = hr00;
}),
(643,771,l),
(643,899,l),
(253,899,l),
(253,771,l),
(125,771,l),
(125,-3,l),
(387,-3,l),
(387,253,l),
(509,253,l),
(509,125,l),
(637,125,l),
(637,-3,l),
(899,-3,l),
(899,765,l),
(1027,765,l),
(1027,899,l),
(765,899,l)
);
},
{
closed = 1;
nodes = (
(637,387,l),
(515,387,l),
(515,515,l),
(387,515,l),
(387,765,l),
(509,765,l),
(509,637,l),
(637,637,l)
);
}
);
};
layerId = "93054D9F-9072-4363-B5A9-8BAB03B66C21";
shapes = (
{
ref = N.case;
},
{
ref = tilde;
}
);
width = 1024;
},
{
background = {
shapes = (
{
closed = 1;
nodes = (
(765,771,l,{
name = hr00;
}),
(643,771,l),
(643,899,l),
(253,899,l),
(253,771,l),
(125,771,l),
(125,-3,l),
(387,-3,l),
(387,253,l),
(509,253,l),
(509,125,l),
(637,125,l),
(637,-3,l),
(899,-3,l),
(899,765,l),
(1027,765,l),
(1027,899,l),
(765,899,l)
);
},
{
closed = 1;
nodes = (
(637,387,l),
(515,387,l),
(515,515,l),
(387,515,l),
(387,765,l),
(509,765,l),
(509,637,l),
(637,637,l)
);
}
);
};
layerId = "B2CED426-8D3E-4D4E-926E-917DB7E3651C";
shapes = (
{
ref = N.case;
},
{
ref = tilde;
}
);
width = 1024;
}
);
unicode = 209;
userData = {
com.typemytype.robofont.mark = (
0.967,
0.6,
1,
1
);
};
},
{
color = 4;
glyphname = O;
layers = (
{
background = {
shapes = (
{
closed = 1;
nodes = (
(253,-3,l,{
name = hr00;
}),
(771,-3,l),
(771,125,l),
(899,125,l),
(899,771,l),
(771,771,l),
(771,899,l),
(253,899,l),
(253,771,l),
(125,771,l),
(125,125,l),
(253,125,l)
);
},
{
closed = 1;
nodes = (
(637,131,l),
(387,131,l),
(387,765,l),
(637,765,l)
);
}
);
};
layerId = "511DE76B-C93C-4D1E-A4F3-1BF977EE06C9";
shapes = (
{
pos = (256,0);
ref = pixel.4;
},
{
pos = (128,128);
ref = pixel.2;
},
{
pos = (640,128);
ref = pixel.2;
},
{
pos = (128,256);
ref = pixel.2;
},
{
pos = (640,256);
ref = pixel.2;
},
{
pos = (128,384);
ref = pixel.2;
},
{
pos = (640,384);
ref = pixel.2;
},
{
pos = (128,512);
ref = pixel.2;
},
{
pos = (640,512);
ref = pixel.2;
},
{
pos = (128,640);
ref = pixel.2;
},
{
pos = (640,640);
ref = pixel.2;
},
{
pos = (256,768);
ref = pixel.4;
}
);
width = 1024;
},
{
background = {
shapes = (
{
closed = 1;
nodes = (
(253,-3,l,{
name = hr00;
}),
(771,-3,l),
(771,125,l),
(899,125,l),
(899,771,l),
(771,771,l),
(771,899,l),
(253,899,l),
(253,771,l),
(125,771,l),
(125,125,l),
(253,125,l)
);
},
{
closed = 1;
nodes = (
(637,131,l),
(387,131,l),
(387,765,l),
(637,765,l)
);
}
);
};
layerId = "A1CF3A9E-1F49-4701-AF3E-F0E694793914";
shapes = (
{
pos = (256,0);
ref = pixel.4;
},
{
pos = (128,128);
ref = pixel.2;
},
{
pos = (640,128);
ref = pixel.2;
},
{
pos = (128,256);
ref = pixel.2;
},
{
pos = (640,256);
ref = pixel.2;
},
{
pos = (128,384);
ref = pixel.2;
},
{
pos = (640,384);
ref = pixel.2;
},
{
pos = (128,512);
ref = pixel.2;
},
{
pos = (640,512);
ref = pixel.2;
},
{
pos = (128,640);
ref = pixel.2;
},
{
pos = (640,640);
ref = pixel.2;
},
{
pos = (256,768);
ref = pixel.4;
}
);
width = 1024;
},
{
background = {
shapes = (
{
closed = 1;
nodes = (
(253,-3,l,{
name = hr00;
}),
(771,-3,l),
(771,125,l),
(899,125,l),
(899,771,l),
(771,771,l),
(771,899,l),
(253,899,l),
(253,771,l),
(125,771,l),
(125,125,l),
(253,125,l)
);
},
{
closed = 1;
nodes = (
(637,131,l),
(387,131,l),
(387,765,l),
(637,765,l)
);
}
);
};
layerId = "93054D9F-9072-4363-B5A9-8BAB03B66C21";
shapes = (
{
pos = (256,0);
ref = pixel.4;
},
{
pos = (128,128);
ref = pixel.2;
},
{
pos = (640,128);
ref = pixel.2;
},
{
pos = (128,256);
ref = pixel.2;
},
{
pos = (640,256);
ref = pixel.2;
},
{
pos = (128,384);
ref = pixel.2;
},
{
pos = (640,384);
ref = pixel.2;
},
{
pos = (128,512);
ref = pixel.2;
},
{
pos = (640,512);
ref = pixel.2;
},
{
pos = (128,640);
ref = pixel.2;
},
{
pos = (640,640);
ref = pixel.2;
},
{
pos = (256,768);
ref = pixel.4;
}
);
width = 1024;
},
{
background = {
shapes = (
{
closed = 1;
nodes = (
(253,-3,l,{
name = hr00;
}),
(771,-3,l),
(771,125,l),
(899,125,l),
(899,771,l),
(771,771,l),
(771,899,l),
(253,899,l),
(253,771,l),
(125,771,l),
(125,125,l),
(253,125,l)
);
},
{
closed = 1;
nodes = (
(637,131,l),
(387,131,l),
(387,765,l),
(637,765,l)
);
}
);
};
layerId = "B2CED426-8D3E-4D4E-926E-917DB7E3651C";
shapes = (
{
pos = (256,0);
ref = pixel.4;
},
{
pos = (128,128);
ref = pixel.2;
},
{
pos = (640,128);
ref = pixel.2;
},
{
pos = (128,256);
ref = pixel.2;
},
{
pos = (640,256);
ref = pixel.2;
},
{
pos = (128,384);
ref = pixel.2;
},
{
pos = (640,384);
ref = pixel.2;
},
{
pos = (128,512);
ref = pixel.2;
},
{
pos = (640,512);
ref = pixel.2;
},
{
pos = (128,640);
ref = pixel.2;
},
{
pos = (640,640);
ref = pixel.2;
},
{
pos = (256,768);
ref = pixel.4;
}
);
width = 1024;
}
);
unicode = 79;
userData = {
com.typemytype.robofont.mark = (
1,
0.6,
0.6,
1
);
};
},
{
color = 6;
glyphname = Odieresis;
layers = (
{
background = {
shapes = (
{
closed = 1;
nodes = (
(125,765,l,{
name = hr00;
}),
(253,765,l),
(253,643,l),
(125,643,l),
(125,125,l),
(253,125,l),
(253,-3,l),
(771,-3,l),
(771,125,l),
(899,125,l),
(899,643,l),
(771,643,l),
(771,765,l),
(899,765,l),
(899,899,l),
(637,899,l),
(637,771,l),
(387,771,l),
(387,899,l),
(125,899,l)
);
},
{
closed = 1;
nodes = (
(637,131,l),
(387,131,l),
(387,637,l),
(637,637,l)
);
}
);
};
layerId = "511DE76B-C93C-4D1E-A4F3-1BF977EE06C9";
shapes = (
{
ref = O.case;
},
{
ref = dieresis;
}
);
width = 1024;
},
{
background = {
shapes = (
{
closed = 1;
nodes = (
(125,765,l,{
name = hr00;
}),
(253,765,l),
(253,643,l),
(125,643,l),
(125,125,l),
(253,125,l),
(253,-3,l),
(771,-3,l),
(771,125,l),
(899,125,l),
(899,643,l),
(771,643,l),
(771,765,l),
(899,765,l),
(899,899,l),
(637,899,l),
(637,771,l),
(387,771,l),
(387,899,l),
(125,899,l)
);
},
{
closed = 1;
nodes = (
(637,131,l),
(387,131,l),
(387,637,l),
(637,637,l)
);
}
);
};
layerId = "A1CF3A9E-1F49-4701-AF3E-F0E694793914";
shapes = (
{
ref = O.case;
},
{
ref = dieresis;
}
);
width = 1024;
},
{
background = {
shapes = (
{
closed = 1;
nodes = (
(125,765,l,{
name = hr00;
}),
(253,765,l),
(253,643,l),
(125,643,l),
(125,125,l),
(253,125,l),
(253,-3,l),
(771,-3,l),
(771,125,l),
(899,125,l),
(899,643,l),
(771,643,l),
(771,765,l),
(899,765,l),
(899,899,l),
(637,899,l),
(637,771,l),
(387,771,l),
(387,899,l),
(125,899,l)
);
},
{
closed = 1;
nodes = (
(637,131,l),
(387,131,l),
(387,637,l),
(637,637,l)
);
}
);
};
layerId = "93054D9F-9072-4363-B5A9-8BAB03B66C21";
shapes = (
{
ref = O.case;
},
{
ref = dieresis;
}
);
width = 1024;
},
{
background = {
shapes = (
{
closed = 1;
nodes = (
(125,765,l,{
name = hr00;
}),
(253,765,l),
(253,643,l),
(125,643,l),
(125,125,l),
(253,125,l),
(253,-3,l),
(771,-3,l),
(771,125,l),
(899,125,l),
(899,643,l),
(771,643,l),
(771,765,l),
(899,765,l),
(899,899,l),
(637,899,l),
(637,771,l),
(387,771,l),
(387,899,l),
(125,899,l)
);
},
{
closed = 1;
nodes = (
(637,131,l),
(387,131,l),
(387,637,l),
(637,637,l)
);
}
);
};
layerId = "B2CED426-8D3E-4D4E-926E-917DB7E3651C";
shapes = (
{
ref = O.case;
},
{
ref = dieresis;
}
);
width = 1024;
}
);
unicode = 214;
userData = {
com.typemytype.robofont.mark = (
0.967,
0.6,
1,
1
);
};
},
{
color = 4;
glyphname = Oslash;
layers = (
{
background = {
shapes = (
{
closed = 1;
nodes = (
(125,-3,l,{
name = hr00;
}),
(771,-3,l),
(771,125,l),
(899,125,l),
(899,899,l),
(253,899,l),
(253,771,l),
(125,771,l)
);
},
{
closed = 1;
nodes = (
(515,381,l),
(637,381,l),
(637,131,l),
(387,131,l),
(387,253,l),
(515,253,l)
);
},
{
closed = 1;
nodes = (
(509,515,l),
(387,515,l),
(387,765,l),
(637,765,l),
(637,643,l),
(509,643,l)
);
}
);
};
layerId = "511DE76B-C93C-4D1E-A4F3-1BF977EE06C9";
shapes = (
{
pos = (128,0);
ref = pixel.5;
},
{
pos = (128,128);
ref = pixel.2;
},
{
pos = (640,128);
ref = pixel.2;
},
{
pos = (128,256);
ref = pixel.3;
},
{
pos = (640,256);
ref = pixel.2;
},
{
pos = (128,384);
ref = pixel.6;
},
{
pos = (128,512);
ref = pixel.2;
},
{
pos = (512,512);
ref = pixel.3;
},
{
pos = (128,640);
ref = pixel.2;
},
{
pos = (640,640);
ref = pixel.2;
},
{
pos = (256,768);
ref = pixel.5;
}
);
width = 1024;
},
{
background = {
shapes = (
{
closed = 1;
nodes = (
(125,-3,l,{
name = hr00;
}),
(771,-3,l),
(771,125,l),
(899,125,l),
(899,899,l),
(253,899,l),
(253,771,l),
(125,771,l)
);
},
{
closed = 1;
nodes = (
(515,381,l),
(637,381,l),
(637,131,l),
(387,131,l),
(387,253,l),
(515,253,l)
);
},
{
closed = 1;
nodes = (
(509,515,l),
(387,515,l),
(387,765,l),
(637,765,l),
(637,643,l),
(509,643,l)
);
}
);
};
layerId = "A1CF3A9E-1F49-4701-AF3E-F0E694793914";
shapes = (
{
pos = (128,0);
ref = pixel.5;
},
{
pos = (128,128);
ref = pixel.2;
},
{
pos = (640,128);
ref = pixel.2;
},
{
pos = (128,256);
ref = pixel.3;
},
{
pos = (640,256);
ref = pixel.2;
},
{
pos = (128,384);
ref = pixel.6;
},
{
pos = (128,512);
ref = pixel.2;
},
{
pos = (512,512);
ref = pixel.3;
},
{
pos = (128,640);
ref = pixel.2;
},
{
pos = (640,640);
ref = pixel.2;
},
{
pos = (256,768);
ref = pixel.5;
}
);
width = 1024;
},
{
background = {
shapes = (
{
closed = 1;
nodes = (
(125,-3,l,{
name = hr00;
}),
(771,-3,l),
(771,125,l),
(899,125,l),
(899,899,l),
(253,899,l),
(253,771,l),
(125,771,l)
);
},
{
closed = 1;
nodes = (
(515,381,l),
(637,381,l),
(637,131,l),
(387,131,l),
(387,253,l),
(515,253,l)
);
},
{
closed = 1;
nodes = (
(509,515,l),
(387,515,l),
(387,765,l),
(637,765,l),
(637,643,l),
(509,643,l)
);
}
);
};
layerId = "93054D9F-9072-4363-B5A9-8BAB03B66C21";
shapes = (
{
pos = (128,0);
ref = pixel.5;
},
{
pos = (128,128);
ref = pixel.2;
},
{
pos = (640,128);
ref = pixel.2;
},
{
pos = (128,256);
ref = pixel.3;
},
{
pos = (640,256);
ref = pixel.2;
},
{
pos = (128,384);
ref = pixel.6;
},
{
pos = (128,512);
ref = pixel.2;
},
{
pos = (512,512);
ref = pixel.3;
},
{
pos = (128,640);
ref = pixel.2;
},
{
pos = (640,640);
ref = pixel.2;
},
{
pos = (256,768);
ref = pixel.5;
}
);
width = 1024;
},
{
background = {
shapes = (
{
closed = 1;
nodes = (
(125,-3,l,{
name = hr00;
}),
(771,-3,l),
(771,125,l),
(899,125,l),
(899,899,l),
(253,899,l),
(253,771,l),
(125,771,l)
);
},
{
closed = 1;
nodes = (
(515,381,l),
(637,381,l),
(637,131,l),
(387,131,l),
(387,253,l),
(515,253,l)
);
},
{
closed = 1;
nodes = (
(509,515,l),
(387,515,l),
(387,765,l),
(637,765,l),
(637,643,l),
(509,643,l)
);
}
);
};
layerId = "B2CED426-8D3E-4D4E-926E-917DB7E3651C";
shapes = (
{
pos = (128,0);
ref = pixel.5;
},
{
pos = (128,128);
ref = pixel.2;
},
{
pos = (640,128);
ref = pixel.2;
},
{
pos = (128,256);
ref = pixel.3;
},
{
pos = (640,256);
ref = pixel.2;
},
{
pos = (128,384);
ref = pixel.6;
},
{
pos = (128,512);
ref = pixel.2;
},
{
pos = (512,512);
ref = pixel.3;
},
{
pos = (128,640);
ref = pixel.2;
},
{
pos = (640,640);
ref = pixel.2;
},
{
pos = (256,768);
ref = pixel.5;
}
);
width = 1024;
}
);
unicode = 216;
userData = {
com.typemytype.robofont.mark = (
0.967,
0.6,
1,
1
);
};
},
{
color = 4;
glyphname = OE;
layers = (
{
background = {
shapes = (
{
closed = 1;
nodes = (
(771,381,l,{
name = hr00;
}),
(899,381,l),
(899,515,l),
(771,515,l),
(771,765,l),
(1027,765,l),
(1027,899,l),
(253,899,l),
(253,771,l),
(125,771,l),
(125,125,l),
(253,125,l),
(253,-3,l),
(1027,-3,l),
(1027,131,l),
(771,131,l)
);
},
{
closed = 1;
nodes = (
(509,131,l),
(387,131,l),
(387,765,l),
(509,765,l)
);
}
);
};
layerId = "511DE76B-C93C-4D1E-A4F3-1BF977EE06C9";
shapes = (
{
pos = (256,0);
ref = pixel.6;
},
{
pos = (128,128);
ref = pixel.2;
},
{
pos = (512,128);
ref = pixel.2;
},
{
pos = (128,256);
ref = pixel.2;
},
{
pos = (512,256);
ref = pixel.2;
},
{
pos = (128,384);
ref = pixel.2;
},
{
pos = (512,384);
ref = pixel.3;
},
{
pos = (128,512);
ref = pixel.2;
},
{
pos = (512,512);
ref = pixel.2;
},
{
pos = (128,640);
ref = pixel.2;
},
{
pos = (512,640);
ref = pixel.2;
},
{
pos = (256,768);
ref = pixel.6;
}
);
width = 1024;
},
{
background = {
shapes = (
{
closed = 1;
nodes = (
(771,381,l,{
name = hr00;
}),
(899,381,l),
(899,515,l),
(771,515,l),
(771,765,l),
(1027,765,l),
(1027,899,l),
(253,899,l),
(253,771,l),
(125,771,l),
(125,125,l),
(253,125,l),
(253,-3,l),
(1027,-3,l),
(1027,131,l),
(771,131,l)
);
},
{
closed = 1;
nodes = (
(509,131,l),
(387,131,l),
(387,765,l),
(509,765,l)
);
}
);
};
layerId = "A1CF3A9E-1F49-4701-AF3E-F0E694793914";
shapes = (
{
pos = (256,0);
ref = pixel.6;
},
{
pos = (128,128);
ref = pixel.2;
},
{
pos = (512,128);
ref = pixel.2;
},
{
pos = (128,256);
ref = pixel.2;
},
{
pos = (512,256);
ref = pixel.2;
},
{
pos = (128,384);
ref = pixel.2;
},
{
pos = (512,384);
ref = pixel.3;
},
{
pos = (128,512);
ref = pixel.2;
},
{
pos = (512,512);
ref = pixel.2;
},
{
pos = (128,640);
ref = pixel.2;
},
{
pos = (512,640);
ref = pixel.2;
},
{
pos = (256,768);
ref = pixel.6;
}
);
width = 1024;
},
{
background = {
shapes = (
{
closed = 1;
nodes = (
(771,381,l,{
name = hr00;
}),
(899,381,l),
(899,515,l),
(771,515,l),
(771,765,l),
(1027,765,l),
(1027,899,l),
(253,899,l),
(253,771,l),
(125,771,l),
(125,125,l),
(253,125,l),
(253,-3,l),
(1027,-3,l),
(1027,131,l),
(771,131,l)
);
},
{
closed = 1;
nodes = (
(509,131,l),
(387,131,l),
(387,765,l),
(509,765,l)
);
}
);
};
layerId = "93054D9F-9072-4363-B5A9-8BAB03B66C21";
shapes = (
{
pos = (256,0);
ref = pixel.6;
},
{
pos = (128,128);
ref = pixel.2;
},
{
pos = (512,128);
ref = pixel.2;
},
{
pos = (128,256);
ref = pixel.2;
},
{
pos = (512,256);
ref = pixel.2;
},
{
pos = (128,384);
ref = pixel.2;
},
{
pos = (512,384);
ref = pixel.3;
},
{
pos = (128,512);
ref = pixel.2;
},
{
pos = (512,512);
ref = pixel.2;
},
{
pos = (128,640);
ref = pixel.2;
},
{
pos = (512,640);
ref = pixel.2;
},
{
pos = (256,768);
ref = pixel.6;
}
);
width = 1024;
},
{
background = {
shapes = (
{
closed = 1;
nodes = (
(771,381,l,{
name = hr00;
}),
(899,381,l),
(899,515,l),
(771,515,l),
(771,765,l),
(1027,765,l),
(1027,899,l),
(253,899,l),
(253,771,l),
(125,771,l),
(125,125,l),
(253,125,l),
(253,-3,l),
(1027,-3,l),
(1027,131,l),
(771,131,l)
);
},
{
closed = 1;
nodes = (
(509,131,l),
(387,131,l),
(387,765,l),
(509,765,l)
);
}
);
};
layerId = "B2CED426-8D3E-4D4E-926E-917DB7E3651C";
shapes = (
{
pos = (256,0);
ref = pixel.6;
},
{
pos = (128,128);
ref = pixel.2;
},
{
pos = (512,128);
ref = pixel.2;
},
{
pos = (128,256);
ref = pixel.2;
},
{
pos = (512,256);
ref = pixel.2;
},
{
pos = (128,384);
ref = pixel.2;
},
{
pos = (512,384);
ref = pixel.3;
},
{
pos = (128,512);
ref = pixel.2;
},
{
pos = (512,512);
ref = pixel.2;
},
{
pos = (128,640);
ref = pixel.2;
},
{
pos = (512,640);
ref = pixel.2;
},
{
pos = (256,768);
ref = pixel.6;
}
);
width = 1024;
}
);
unicode = 338;
userData = {
com.typemytype.robofont.mark = (
0.967,
0.6,
1,
1
);
};
},
{
color = 4;
glyphname = P;
layers = (
{
background = {
shapes = (
{
closed = 1;
nodes = (
(387,381,l,{
name = hr00;
}),
(771,381,l),
(771,509,l),
(899,509,l),
(899,771,l),
(771,771,l),
(771,899,l),
(125,899,l),
(125,-3,l),
(387,-3,l)
);
},
{
closed = 1;
nodes = (
(387,765,l),
(637,765,l),
(637,515,l),
(387,515,l)
);
}
);
};
layerId = "511DE76B-C93C-4D1E-A4F3-1BF977EE06C9";
shapes = (
{
pos = (128,0);
ref = pixel.2;
},
{
pos = (128,128);
ref = pixel.2;
},
{
pos = (128,256);
ref = pixel.2;
},
{
pos = (128,384);
ref = pixel.5;
},
{
pos = (128,512);
ref = pixel.2;
},
{
pos = (640,512);
ref = pixel.2;
},
{
pos = (128,640);
ref = pixel.2;
},
{
pos = (640,640);
ref = pixel.2;
},
{
pos = (128,768);
ref = pixel.5;
}
);
width = 1024;
},
{
background = {
shapes = (
{
closed = 1;
nodes = (
(387,381,l,{
name = hr00;
}),
(771,381,l),
(771,509,l),
(899,509,l),
(899,771,l),
(771,771,l),
(771,899,l),
(125,899,l),
(125,-3,l),
(387,-3,l)
);
},
{
closed = 1;
nodes = (
(387,765,l),
(637,765,l),
(637,515,l),
(387,515,l)
);
}
);
};
layerId = "A1CF3A9E-1F49-4701-AF3E-F0E694793914";
shapes = (
{
pos = (128,0);
ref = pixel.2;
},
{
pos = (128,128);
ref = pixel.2;
},
{
pos = (128,256);
ref = pixel.2;
},
{
pos = (128,384);
ref = pixel.5;
},
{
pos = (128,512);
ref = pixel.2;
},
{
pos = (640,512);
ref = pixel.2;
},
{
pos = (128,640);
ref = pixel.2;
},
{
pos = (640,640);
ref = pixel.2;
},
{
pos = (128,768);
ref = pixel.5;
}
);
width = 1024;
},
{
background = {
shapes = (
{
closed = 1;
nodes = (
(387,381,l,{
name = hr00;
}),
(771,381,l),
(771,509,l),
(899,509,l),
(899,771,l),
(771,771,l),
(771,899,l),
(125,899,l),
(125,-3,l),
(387,-3,l)
);
},
{
closed = 1;
nodes = (
(387,765,l),
(637,765,l),
(637,515,l),
(387,515,l)
);
}
);
};
layerId = "93054D9F-9072-4363-B5A9-8BAB03B66C21";
shapes = (
{
pos = (128,0);
ref = pixel.2;
},
{
pos = (128,128);
ref = pixel.2;
},
{
pos = (128,256);
ref = pixel.2;
},
{
pos = (128,384);
ref = pixel.5;
},
{
pos = (128,512);
ref = pixel.2;
},
{
pos = (640,512);
ref = pixel.2;
},
{
pos = (128,640);
ref = pixel.2;
},
{
pos = (640,640);
ref = pixel.2;
},
{
pos = (128,768);
ref = pixel.5;
}
);
width = 1024;
},
{
background = {
shapes = (
{
closed = 1;
nodes = (
(387,381,l,{
name = hr00;
}),
(771,381,l),
(771,509,l),
(899,509,l),
(899,771,l),
(771,771,l),
(771,899,l),
(125,899,l),
(125,-3,l),
(387,-3,l)
);
},
{
closed = 1;
nodes = (
(387,765,l),
(637,765,l),
(637,515,l),
(387,515,l)
);
}
);
};
layerId = "B2CED426-8D3E-4D4E-926E-917DB7E3651C";
shapes = (
{
pos = (128,0);
ref = pixel.2;
},
{
pos = (128,128);
ref = pixel.2;
},
{
pos = (128,256);
ref = pixel.2;
},
{
pos = (128,384);
ref = pixel.5;
},
{
pos = (128,512);
ref = pixel.2;
},
{
pos = (640,512);
ref = pixel.2;
},
{
pos = (128,640);
ref = pixel.2;
},
{
pos = (640,640);
ref = pixel.2;
},
{
pos = (128,768);
ref = pixel.5;
}
);
width = 1024;
}
);
unicode = 80;
userData = {
com.typemytype.robofont.mark = (
1,
0.6,
0.6,
1
);
};
},
{
color = 4;
glyphname = Thorn;
layers = (
{
background = {
shapes = (
{
closed = 1;
nodes = (
(387,125,l,{
name = hr00;
}),
(771,125,l),
(771,253,l),
(899,253,l),
(899,643,l),
(771,643,l),
(771,771,l),
(387,771,l),
(387,899,l),
(125,899,l),
(125,-3,l),
(387,-3,l)
);
},
{
closed = 1;
nodes = (
(387,637,l),
(637,637,l),
(637,259,l),
(387,259,l)
);
}
);
};
layerId = "511DE76B-C93C-4D1E-A4F3-1BF977EE06C9";
shapes = (
{
pos = (128,0);
ref = pixel.2;
},
{
pos = (128,128);
ref = pixel.5;
},
{
pos = (128,256);
ref = pixel.2;
},
{
pos = (640,256);
ref = pixel.2;
},
{
pos = (128,384);
ref = pixel.2;
},
{
pos = (640,384);
ref = pixel.2;
},
{
pos = (128,512);
ref = pixel.2;
},
{
pos = (640,512);
ref = pixel.2;
},
{
pos = (128,640);
ref = pixel.5;
},
{
pos = (128,768);
ref = pixel.2;
}
);
width = 1024;
},
{
background = {
shapes = (
{
closed = 1;
nodes = (
(387,125,l,{
name = hr00;
}),
(771,125,l),
(771,253,l),
(899,253,l),
(899,643,l),
(771,643,l),
(771,771,l),
(387,771,l),
(387,899,l),
(125,899,l),
(125,-3,l),
(387,-3,l)
);
},
{
closed = 1;
nodes = (
(387,637,l),
(637,637,l),
(637,259,l),
(387,259,l)
);
}
);
};
layerId = "A1CF3A9E-1F49-4701-AF3E-F0E694793914";
shapes = (
{
pos = (128,0);
ref = pixel.2;
},
{
pos = (128,128);
ref = pixel.5;
},
{
pos = (128,256);
ref = pixel.2;
},
{
pos = (640,256);
ref = pixel.2;
},
{
pos = (128,384);
ref = pixel.2;
},
{
pos = (640,384);
ref = pixel.2;
},
{
pos = (128,512);
ref = pixel.2;
},
{
pos = (640,512);
ref = pixel.2;
},
{
pos = (128,640);
ref = pixel.5;
},
{
pos = (128,768);
ref = pixel.2;
}
);
width = 1024;
},
{
background = {
shapes = (
{
closed = 1;
nodes = (
(387,125,l,{
name = hr00;
}),
(771,125,l),
(771,253,l),
(899,253,l),
(899,643,l),
(771,643,l),
(771,771,l),
(387,771,l),
(387,899,l),
(125,899,l),
(125,-3,l),
(387,-3,l)
);
},
{
closed = 1;
nodes = (
(387,637,l),
(637,637,l),
(637,259,l),
(387,259,l)
);
}
);
};
layerId = "93054D9F-9072-4363-B5A9-8BAB03B66C21";
shapes = (
{
pos = (128,0);
ref = pixel.2;
},
{
pos = (128,128);
ref = pixel.5;
},
{
pos = (128,256);
ref = pixel.2;
},
{
pos = (640,256);
ref = pixel.2;
},
{
pos = (128,384);
ref = pixel.2;
},
{
pos = (640,384);
ref = pixel.2;
},
{
pos = (128,512);
ref = pixel.2;
},
{
pos = (640,512);
ref = pixel.2;
},
{
pos = (128,640);
ref = pixel.5;
},
{
pos = (128,768);
ref = pixel.2;
}
);
width = 1024;
},
{
background = {
shapes = (
{
closed = 1;
nodes = (
(387,125,l,{
name = hr00;
}),
(771,125,l),
(771,253,l),
(899,253,l),
(899,643,l),
(771,643,l),
(771,771,l),
(387,771,l),
(387,899,l),
(125,899,l),
(125,-3,l),
(387,-3,l)
);
},
{
closed = 1;
nodes = (
(387,637,l),
(637,637,l),
(637,259,l),
(387,259,l)
);
}
);
};
layerId = "B2CED426-8D3E-4D4E-926E-917DB7E3651C";
shapes = (
{
pos = (128,0);
ref = pixel.2;
},
{
pos = (128,128);
ref = pixel.5;
},
{
pos = (128,256);
ref = pixel.2;
},
{
pos = (640,256);
ref = pixel.2;
},
{
pos = (128,384);
ref = pixel.2;
},
{
pos = (640,384);
ref = pixel.2;
},
{
pos = (128,512);
ref = pixel.2;
},
{
pos = (640,512);
ref = pixel.2;
},
{
pos = (128,640);
ref = pixel.5;
},
{
pos = (128,768);
ref = pixel.2;
}
);
width = 1024;
}
);
unicode = 222;
userData = {
com.typemytype.robofont.mark = (
0.967,
0.6,
1,
1
);
};
},
{
color = 4;
glyphname = Q;
layers = (
{
background = {
shapes = (
{
closed = 1;
nodes = (
(253,125,l,{
name = hr00;
}),
(509,125,l),
(509,-3,l),
(899,-3,l),
(899,131,l),
(771,131,l),
(771,253,l),
(899,253,l),
(899,771,l),
(771,771,l),
(771,899,l),
(253,899,l),
(253,771,l),
(125,771,l),
(125,253,l),
(253,253,l)
);
},
{
closed = 1;
nodes = (
(637,259,l),
(387,259,l),
(387,765,l),
(637,765,l)
);
}
);
};
layerId = "511DE76B-C93C-4D1E-A4F3-1BF977EE06C9";
shapes = (
{
pos = (512,0);
ref = pixel.3;
},
{
pos = (256,128);
ref = pixel.4;
},
{
pos = (128,256);
ref = pixel.2;
},
{
pos = (640,256);
ref = pixel.2;
},
{
pos = (128,384);
ref = pixel.2;
},
{
pos = (640,384);
ref = pixel.2;
},
{
pos = (128,512);
ref = pixel.2;
},
{
pos = (640,512);
ref = pixel.2;
},
{
pos = (128,640);
ref = pixel.2;
},
{
pos = (640,640);
ref = pixel.2;
},
{
pos = (256,768);
ref = pixel.4;
}
);
width = 1024;
},
{
background = {
shapes = (
{
closed = 1;
nodes = (
(253,125,l,{
name = hr00;
}),
(509,125,l),
(509,-3,l),
(899,-3,l),
(899,131,l),
(771,131,l),
(771,253,l),
(899,253,l),
(899,771,l),
(771,771,l),
(771,899,l),
(253,899,l),
(253,771,l),
(125,771,l),
(125,253,l),
(253,253,l)
);
},
{
closed = 1;
nodes = (
(637,259,l),
(387,259,l),
(387,765,l),
(637,765,l)
);
}
);
};
layerId = "A1CF3A9E-1F49-4701-AF3E-F0E694793914";
shapes = (
{
pos = (512,0);
ref = pixel.3;
},
{
pos = (256,128);
ref = pixel.4;
},
{
pos = (128,256);
ref = pixel.2;
},
{
pos = (640,256);
ref = pixel.2;
},
{
pos = (128,384);
ref = pixel.2;
},
{
pos = (640,384);
ref = pixel.2;
},
{
pos = (128,512);
ref = pixel.2;
},
{
pos = (640,512);
ref = pixel.2;
},
{
pos = (128,640);
ref = pixel.2;
},
{
pos = (640,640);
ref = pixel.2;
},
{
pos = (256,768);
ref = pixel.4;
}
);
width = 1024;
},
{
background = {
shapes = (
{
closed = 1;
nodes = (
(253,125,l,{
name = hr00;
}),
(509,125,l),
(509,-3,l),
(899,-3,l),
(899,131,l),
(771,131,l),
(771,253,l),
(899,253,l),
(899,771,l),
(771,771,l),
(771,899,l),
(253,899,l),
(253,771,l),
(125,771,l),
(125,253,l),
(253,253,l)
);
},
{
closed = 1;
nodes = (
(637,259,l),
(387,259,l),
(387,765,l),
(637,765,l)
);
}
);
};
layerId = "93054D9F-9072-4363-B5A9-8BAB03B66C21";
shapes = (
{
pos = (512,0);
ref = pixel.3;
},
{
pos = (256,128);
ref = pixel.4;
},
{
pos = (128,256);
ref = pixel.2;
},
{
pos = (640,256);
ref = pixel.2;
},
{
pos = (128,384);
ref = pixel.2;
},
{
pos = (640,384);
ref = pixel.2;
},
{
pos = (128,512);
ref = pixel.2;
},
{
pos = (640,512);
ref = pixel.2;
},
{
pos = (128,640);
ref = pixel.2;
},
{
pos = (640,640);
ref = pixel.2;
},
{
pos = (256,768);
ref = pixel.4;
}
);
width = 1024;
},
{
background = {
shapes = (
{
closed = 1;
nodes = (
(253,125,l,{
name = hr00;
}),
(509,125,l),
(509,-3,l),
(899,-3,l),
(899,131,l),
(771,131,l),
(771,253,l),
(899,253,l),
(899,771,l),
(771,771,l),
(771,899,l),
(253,899,l),
(253,771,l),
(125,771,l),
(125,253,l),
(253,253,l)
);
},
{
closed = 1;
nodes = (
(637,259,l),
(387,259,l),
(387,765,l),
(637,765,l)
);
}
);
};
layerId = "B2CED426-8D3E-4D4E-926E-917DB7E3651C";
shapes = (
{
pos = (512,0);
ref = pixel.3;
},
{
pos = (256,128);
ref = pixel.4;
},
{
pos = (128,256);
ref = pixel.2;
},
{
pos = (640,256);
ref = pixel.2;
},
{
pos = (128,384);
ref = pixel.2;
},
{
pos = (640,384);
ref = pixel.2;
},
{
pos = (128,512);
ref = pixel.2;
},
{
pos = (640,512);
ref = pixel.2;
},
{
pos = (128,640);
ref = pixel.2;
},
{
pos = (640,640);
ref = pixel.2;
},
{
pos = (256,768);
ref = pixel.4;
}
);
width = 1024;
}
);
unicode = 81;
userData = {
com.typemytype.robofont.mark = (
1,
0.6,
0.6,
1
);
};
},
{
color = 4;
glyphname = R;
layers = (
{
background = {
shapes = (
{
closed = 1;
nodes = (
(387,253,l,{
name = hr00;
}),
(509,253,l),
(509,125,l),
(637,125,l),
(637,-3,l),
(899,-3,l),
(899,131,l),
(771,131,l),
(771,259,l),
(643,259,l),
(643,381,l),
(771,381,l),
(771,509,l),
(899,509,l),
(899,771,l),
(771,771,l),
(771,899,l),
(125,899,l),
(125,-3,l),
(387,-3,l)
);
},
{
closed = 1;
nodes = (
(387,765,l),
(637,765,l),
(637,515,l),
(387,515,l)
);
}
);
};
layerId = "511DE76B-C93C-4D1E-A4F3-1BF977EE06C9";
shapes = (
{
pos = (128,0);
ref = pixel.2;
},
{
pos = (640,0);
ref = pixel.2;
},
{
pos = (128,128);
ref = pixel.2;
},
{
pos = (512,128);
ref = pixel.2;
},
{
pos = (128,256);
ref = pixel.4;
},
{
pos = (128,384);
ref = pixel.5;
},
{
pos = (128,512);
ref = pixel.2;
},
{
pos = (640,512);
ref = pixel.2;
},
{
pos = (128,640);
ref = pixel.2;
},
{
pos = (640,640);
ref = pixel.2;
},
{
pos = (128,768);
ref = pixel.5;
}
);
width = 1024;
},
{
background = {
shapes = (
{
closed = 1;
nodes = (
(387,253,l,{
name = hr00;
}),
(509,253,l),
(509,125,l),
(637,125,l),
(637,-3,l),
(899,-3,l),
(899,131,l),
(771,131,l),
(771,259,l),
(643,259,l),
(643,381,l),
(771,381,l),
(771,509,l),
(899,509,l),
(899,771,l),
(771,771,l),
(771,899,l),
(125,899,l),
(125,-3,l),
(387,-3,l)
);
},
{
closed = 1;
nodes = (
(387,765,l),
(637,765,l),
(637,515,l),
(387,515,l)
);
}
);
};
layerId = "A1CF3A9E-1F49-4701-AF3E-F0E694793914";
shapes = (
{
pos = (128,0);
ref = pixel.2;
},
{
pos = (640,0);
ref = pixel.2;
},
{
pos = (128,128);
ref = pixel.2;
},
{
pos = (512,128);
ref = pixel.2;
},
{
pos = (128,256);
ref = pixel.4;
},
{
pos = (128,384);
ref = pixel.5;
},
{
pos = (128,512);
ref = pixel.2;
},
{
pos = (640,512);
ref = pixel.2;
},
{
pos = (128,640);
ref = pixel.2;
},
{
pos = (640,640);
ref = pixel.2;
},
{
pos = (128,768);
ref = pixel.5;
}
);
width = 1024;
},
{
background = {
shapes = (
{
closed = 1;
nodes = (
(387,253,l,{
name = hr00;
}),
(509,253,l),
(509,125,l),
(637,125,l),
(637,-3,l),
(899,-3,l),
(899,131,l),
(771,131,l),
(771,259,l),
(643,259,l),
(643,381,l),
(771,381,l),
(771,509,l),
(899,509,l),
(899,771,l),
(771,771,l),
(771,899,l),
(125,899,l),
(125,-3,l),
(387,-3,l)
);
},
{
closed = 1;
nodes = (
(387,765,l),
(637,765,l),
(637,515,l),
(387,515,l)
);
}
);
};
layerId = "93054D9F-9072-4363-B5A9-8BAB03B66C21";
shapes = (
{
pos = (128,0);
ref = pixel.2;
},
{
pos = (640,0);
ref = pixel.2;
},
{
pos = (128,128);
ref = pixel.2;
},
{
pos = (512,128);
ref = pixel.2;
},
{
pos = (128,256);
ref = pixel.4;
},
{
pos = (128,384);
ref = pixel.5;
},
{
pos = (128,512);
ref = pixel.2;
},
{
pos = (640,512);
ref = pixel.2;
},
{
pos = (128,640);
ref = pixel.2;
},
{
pos = (640,640);
ref = pixel.2;
},
{
pos = (128,768);
ref = pixel.5;
}
);
width = 1024;
},
{
background = {
shapes = (
{
closed = 1;
nodes = (
(387,253,l,{
name = hr00;
}),
(509,253,l),
(509,125,l),
(637,125,l),
(637,-3,l),
(899,-3,l),
(899,131,l),
(771,131,l),
(771,259,l),
(643,259,l),
(643,381,l),
(771,381,l),
(771,509,l),
(899,509,l),
(899,771,l),
(771,771,l),
(771,899,l),
(125,899,l),
(125,-3,l),
(387,-3,l)
);
},
{
closed = 1;
nodes = (
(387,765,l),
(637,765,l),
(637,515,l),
(387,515,l)
);
}
);
};
layerId = "B2CED426-8D3E-4D4E-926E-917DB7E3651C";
shapes = (
{
pos = (128,0);
ref = pixel.2;
},
{
pos = (640,0);
ref = pixel.2;
},
{
pos = (128,128);
ref = pixel.2;
},
{
pos = (512,128);
ref = pixel.2;
},
{
pos = (128,256);
ref = pixel.4;
},
{
pos = (128,384);
ref = pixel.5;
},
{
pos = (128,512);
ref = pixel.2;
},
{
pos = (640,512);
ref = pixel.2;
},
{
pos = (128,640);
ref = pixel.2;
},
{
pos = (640,640);
ref = pixel.2;
},
{
pos = (128,768);
ref = pixel.5;
}
);
width = 1024;
}
);
unicode = 82;
userData = {
com.typemytype.robofont.mark = (
1,
0.6,
0.6,
1
);
};
},
{
color = 4;
glyphname = S;
layers = (
{
background = {
shapes = (
{
closed = 1;
nodes = (
(125,125,l,{
name = hr00;
}),
(253,125,l),
(253,-3,l),
(771,-3,l),
(771,125,l),
(899,125,l),
(899,387,l),
(771,387,l),
(771,515,l),
(387,515,l),
(387,765,l),
(637,765,l),
(637,637,l),
(899,637,l),
(899,771,l),
(771,771,l),
(771,899,l),
(253,899,l),
(253,771,l),
(125,771,l),
(125,509,l),
(253,509,l),
(253,381,l),
(637,381,l),
(637,131,l),
(387,131,l),
(387,259,l),
(125,259,l)
);
}
);
};
layerId = "511DE76B-C93C-4D1E-A4F3-1BF977EE06C9";
shapes = (
{
pos = (256,0);
ref = pixel.4;
},
{
pos = (128,128);
ref = pixel.2;
},
{
pos = (640,128);
ref = pixel.2;
},
{
pos = (640,256);
ref = pixel.2;
},
{
pos = (256,384);
ref = pixel.4;
},
{
pos = (128,512);
ref = pixel.2;
},
{
pos = (128,640);
ref = pixel.2;
},
{
pos = (640,640);
ref = pixel.2;
},
{
pos = (256,768);
ref = pixel.4;
}
);
width = 1024;
},
{
background = {
shapes = (
{
closed = 1;
nodes = (
(125,125,l,{
name = hr00;
}),
(253,125,l),
(253,-3,l),
(771,-3,l),
(771,125,l),
(899,125,l),
(899,387,l),
(771,387,l),
(771,515,l),
(387,515,l),
(387,765,l),
(637,765,l),
(637,637,l),
(899,637,l),
(899,771,l),
(771,771,l),
(771,899,l),
(253,899,l),
(253,771,l),
(125,771,l),
(125,509,l),
(253,509,l),
(253,381,l),
(637,381,l),
(637,131,l),
(387,131,l),
(387,259,l),
(125,259,l)
);
}
);
};
layerId = "A1CF3A9E-1F49-4701-AF3E-F0E694793914";
shapes = (
{
pos = (256,0);
ref = pixel.4;
},
{
pos = (128,128);
ref = pixel.2;
},
{
pos = (640,128);
ref = pixel.2;
},
{
pos = (640,256);
ref = pixel.2;
},
{
pos = (256,384);
ref = pixel.4;
},
{
pos = (128,512);
ref = pixel.2;
},
{
pos = (128,640);
ref = pixel.2;
},
{
pos = (640,640);
ref = pixel.2;
},
{
pos = (256,768);
ref = pixel.4;
}
);
width = 1024;
},
{
background = {
shapes = (
{
closed = 1;
nodes = (
(125,125,l,{
name = hr00;
}),
(253,125,l),
(253,-3,l),
(771,-3,l),
(771,125,l),
(899,125,l),
(899,387,l),
(771,387,l),
(771,515,l),
(387,515,l),
(387,765,l),
(637,765,l),
(637,637,l),
(899,637,l),
(899,771,l),
(771,771,l),
(771,899,l),
(253,899,l),
(253,771,l),
(125,771,l),
(125,509,l),
(253,509,l),
(253,381,l),
(637,381,l),
(637,131,l),
(387,131,l),
(387,259,l),
(125,259,l)
);
}
);
};
layerId = "93054D9F-9072-4363-B5A9-8BAB03B66C21";
shapes = (
{
pos = (256,0);
ref = pixel.4;
},
{
pos = (128,128);
ref = pixel.2;
},
{
pos = (640,128);
ref = pixel.2;
},
{
pos = (640,256);
ref = pixel.2;
},
{
pos = (256,384);
ref = pixel.4;
},
{
pos = (128,512);
ref = pixel.2;
},
{
pos = (128,640);
ref = pixel.2;
},
{
pos = (640,640);
ref = pixel.2;
},
{
pos = (256,768);
ref = pixel.4;
}
);
width = 1024;
},
{
background = {
shapes = (
{
closed = 1;
nodes = (
(125,125,l,{
name = hr00;
}),
(253,125,l),
(253,-3,l),
(771,-3,l),
(771,125,l),
(899,125,l),
(899,387,l),
(771,387,l),
(771,515,l),
(387,515,l),
(387,765,l),
(637,765,l),
(637,637,l),
(899,637,l),
(899,771,l),
(771,771,l),
(771,899,l),
(253,899,l),
(253,771,l),
(125,771,l),
(125,509,l),
(253,509,l),
(253,381,l),
(637,381,l),
(637,131,l),
(387,131,l),
(387,259,l),
(125,259,l)
);
}
);
};
layerId = "B2CED426-8D3E-4D4E-926E-917DB7E3651C";
shapes = (
{
pos = (256,0);
ref = pixel.4;
},
{
pos = (128,128);
ref = pixel.2;
},
{
pos = (640,128);
ref = pixel.2;
},
{
pos = (640,256);
ref = pixel.2;
},
{
pos = (256,384);
ref = pixel.4;
},
{
pos = (128,512);
ref = pixel.2;
},
{
pos = (128,640);
ref = pixel.2;
},
{
pos = (640,640);
ref = pixel.2;
},
{
pos = (256,768);
ref = pixel.4;
}
);
width = 1024;
}
);
unicode = 83;
userData = {
com.typemytype.robofont.mark = (
1,
0.6,
0.6,
1
);
};
},
{
color = 4;
glyphname = T;
layers = (
{
background = {
shapes = (
{
closed = 1;
nodes = (
(125,765,l,{
name = hr00;
}),
(381,765,l),
(381,-3,l),
(643,-3,l),
(643,765,l),
(899,765,l),
(899,899,l),
(125,899,l)
);
}
);
};
layerId = "511DE76B-C93C-4D1E-A4F3-1BF977EE06C9";
shapes = (
{
pos = (384,0);
ref = pixel.2;
},
{
pos = (384,128);
ref = pixel.2;
},
{
pos = (384,256);
ref = pixel.2;
},
{
pos = (384,384);
ref = pixel.2;
},
{
pos = (384,512);
ref = pixel.2;
},
{
pos = (384,640);
ref = pixel.2;
},
{
pos = (128,768);
ref = pixel.6;
}
);
width = 1024;
},
{
background = {
shapes = (
{
closed = 1;
nodes = (
(125,765,l,{
name = hr00;
}),
(381,765,l),
(381,-3,l),
(643,-3,l),
(643,765,l),
(899,765,l),
(899,899,l),
(125,899,l)
);
}
);
};
layerId = "A1CF3A9E-1F49-4701-AF3E-F0E694793914";
shapes = (
{
pos = (384,0);
ref = pixel.2;
},
{
pos = (384,128);
ref = pixel.2;
},
{
pos = (384,256);
ref = pixel.2;
},
{
pos = (384,384);
ref = pixel.2;
},
{
pos = (384,512);
ref = pixel.2;
},
{
pos = (384,640);
ref = pixel.2;
},
{
pos = (128,768);
ref = pixel.6;
}
);
width = 1024;
},
{
background = {
shapes = (
{
closed = 1;
nodes = (
(125,765,l,{
name = hr00;
}),
(381,765,l),
(381,-3,l),
(643,-3,l),
(643,765,l),
(899,765,l),
(899,899,l),
(125,899,l)
);
}
);
};
layerId = "93054D9F-9072-4363-B5A9-8BAB03B66C21";
shapes = (
{
pos = (384,0);
ref = pixel.2;
},
{
pos = (384,128);
ref = pixel.2;
},
{
pos = (384,256);
ref = pixel.2;
},
{
pos = (384,384);
ref = pixel.2;
},
{
pos = (384,512);
ref = pixel.2;
},
{
pos = (384,640);
ref = pixel.2;
},
{
pos = (128,768);
ref = pixel.6;
}
);
width = 1024;
},
{
background = {
shapes = (
{
closed = 1;
nodes = (
(125,765,l,{
name = hr00;
}),
(381,765,l),
(381,-3,l),
(643,-3,l),
(643,765,l),
(899,765,l),
(899,899,l),
(125,899,l)
);
}
);
};
layerId = "B2CED426-8D3E-4D4E-926E-917DB7E3651C";
shapes = (
{
pos = (384,0);
ref = pixel.2;
},
{
pos = (384,128);
ref = pixel.2;
},
{
pos = (384,256);
ref = pixel.2;
},
{
pos = (384,384);
ref = pixel.2;
},
{
pos = (384,512);
ref = pixel.2;
},
{
pos = (384,640);
ref = pixel.2;
},
{
pos = (128,768);
ref = pixel.6;
}
);
width = 1024;
}
);
unicode = 84;
userData = {
com.typemytype.robofont.mark = (
1,
0.6,
0.6,
1
);
};
},
{
color = 4;
glyphname = U;
layers = (
{
background = {
shapes = (
{
closed = 1;
nodes = (
(125,125,l,{
name = hr00;
}),
(253,125,l),
(253,-3,l),
(771,-3,l),
(771,125,l),
(899,125,l),
(899,899,l),
(637,899,l),
(637,131,l),
(387,131,l),
(387,899,l),
(125,899,l)
);
}
);
};
layerId = "511DE76B-C93C-4D1E-A4F3-1BF977EE06C9";
shapes = (
{
pos = (256,0);
ref = pixel.4;
},
{
pos = (128,128);
ref = pixel.2;
},
{
pos = (640,128);
ref = pixel.2;
},
{
pos = (128,256);
ref = pixel.2;
},
{
pos = (640,256);
ref = pixel.2;
},
{
pos = (128,384);
ref = pixel.2;
},
{
pos = (640,384);
ref = pixel.2;
},
{
pos = (128,512);
ref = pixel.2;
},
{
pos = (640,512);
ref = pixel.2;
},
{
pos = (128,640);
ref = pixel.2;
},
{
pos = (640,640);
ref = pixel.2;
},
{
pos = (128,768);
ref = pixel.2;
},
{
pos = (640,768);
ref = pixel.2;
}
);
width = 1024;
},
{
background = {
shapes = (
{
closed = 1;
nodes = (
(125,125,l,{
name = hr00;
}),
(253,125,l),
(253,-3,l),
(771,-3,l),
(771,125,l),
(899,125,l),
(899,899,l),
(637,899,l),
(637,131,l),
(387,131,l),
(387,899,l),
(125,899,l)
);
}
);
};
layerId = "A1CF3A9E-1F49-4701-AF3E-F0E694793914";
shapes = (
{
pos = (256,0);
ref = pixel.4;
},
{
pos = (128,128);
ref = pixel.2;
},
{
pos = (640,128);
ref = pixel.2;
},
{
pos = (128,256);
ref = pixel.2;
},
{
pos = (640,256);
ref = pixel.2;
},
{
pos = (128,384);
ref = pixel.2;
},
{
pos = (640,384);
ref = pixel.2;
},
{
pos = (128,512);
ref = pixel.2;
},
{
pos = (640,512);
ref = pixel.2;
},
{
pos = (128,640);
ref = pixel.2;
},
{
pos = (640,640);
ref = pixel.2;
},
{
pos = (128,768);
ref = pixel.2;
},
{
pos = (640,768);
ref = pixel.2;
}
);
width = 1024;
},
{
background = {
shapes = (
{
closed = 1;
nodes = (
(125,125,l,{
name = hr00;
}),
(253,125,l),
(253,-3,l),
(771,-3,l),
(771,125,l),
(899,125,l),
(899,899,l),
(637,899,l),
(637,131,l),
(387,131,l),
(387,899,l),
(125,899,l)
);
}
);
};
layerId = "93054D9F-9072-4363-B5A9-8BAB03B66C21";
shapes = (
{
pos = (256,0);
ref = pixel.4;
},
{
pos = (128,128);
ref = pixel.2;
},
{
pos = (640,128);
ref = pixel.2;
},
{
pos = (128,256);
ref = pixel.2;
},
{
pos = (640,256);
ref = pixel.2;
},
{
pos = (128,384);
ref = pixel.2;
},
{
pos = (640,384);
ref = pixel.2;
},
{
pos = (128,512);
ref = pixel.2;
},
{
pos = (640,512);
ref = pixel.2;
},
{
pos = (128,640);
ref = pixel.2;
},
{
pos = (640,640);
ref = pixel.2;
},
{
pos = (128,768);
ref = pixel.2;
},
{
pos = (640,768);
ref = pixel.2;
}
);
width = 1024;
},
{
background = {
shapes = (
{
closed = 1;
nodes = (
(125,125,l,{
name = hr00;
}),
(253,125,l),
(253,-3,l),
(771,-3,l),
(771,125,l),
(899,125,l),
(899,899,l),
(637,899,l),
(637,131,l),
(387,131,l),
(387,899,l),
(125,899,l)
);
}
);
};
layerId = "B2CED426-8D3E-4D4E-926E-917DB7E3651C";
shapes = (
{
pos = (256,0);
ref = pixel.4;
},
{
pos = (128,128);
ref = pixel.2;
},
{
pos = (640,128);
ref = pixel.2;
},
{
pos = (128,256);
ref = pixel.2;
},
{
pos = (640,256);
ref = pixel.2;
},
{
pos = (128,384);
ref = pixel.2;
},
{
pos = (640,384);
ref = pixel.2;
},
{
pos = (128,512);
ref = pixel.2;
},
{
pos = (640,512);
ref = pixel.2;
},
{
pos = (128,640);
ref = pixel.2;
},
{
pos = (640,640);
ref = pixel.2;
},
{
pos = (128,768);
ref = pixel.2;
},
{
pos = (640,768);
ref = pixel.2;
}
);
width = 1024;
}
);
unicode = 85;
userData = {
com.typemytype.robofont.mark = (
1,
0.6,
0.6,
1
);
};
},
{
color = 4;
glyphname = Uacute;
layers = (
{
background = {
shapes = (
{
closed = 1;
nodes = (
(771,899,l,{
name = hr00;
}),
(509,899,l),
(509,771,l),
(381,771,l),
(381,643,l),
(125,643,l),
(125,125,l),
(253,125,l),
(253,-3,l),
(771,-3,l),
(771,125,l),
(899,125,l),
(899,643,l),
(643,643,l),
(643,765,l),
(771,765,l)
);
},
{
closed = 1;
nodes = (
(387,131,l),
(387,637,l),
(637,637,l),
(637,131,l)
);
}
);
};
layerId = "511DE76B-C93C-4D1E-A4F3-1BF977EE06C9";
shapes = (
{
ref = U.case.2;
},
{
ref = acute;
}
);
width = 1024;
},
{
background = {
shapes = (
{
closed = 1;
nodes = (
(771,899,l,{
name = hr00;
}),
(509,899,l),
(509,771,l),
(381,771,l),
(381,643,l),
(125,643,l),
(125,125,l),
(253,125,l),
(253,-3,l),
(771,-3,l),
(771,125,l),
(899,125,l),
(899,643,l),
(643,643,l),
(643,765,l),
(771,765,l)
);
},
{
closed = 1;
nodes = (
(387,131,l),
(387,637,l),
(637,637,l),
(637,131,l)
);
}
);
};
layerId = "A1CF3A9E-1F49-4701-AF3E-F0E694793914";
shapes = (
{
ref = U.case.2;
},
{
ref = acute;
}
);
width = 1024;
},
{
background = {
shapes = (
{
closed = 1;
nodes = (
(771,899,l,{
name = hr00;
}),
(509,899,l),
(509,771,l),
(381,771,l),
(381,643,l),
(125,643,l),
(125,125,l),
(253,125,l),
(253,-3,l),
(771,-3,l),
(771,125,l),
(899,125,l),
(899,643,l),
(643,643,l),
(643,765,l),
(771,765,l)
);
},
{
closed = 1;
nodes = (
(387,131,l),
(387,637,l),
(637,637,l),
(637,131,l)
);
}
);
};
layerId = "93054D9F-9072-4363-B5A9-8BAB03B66C21";
shapes = (
{
ref = U.case.2;
},
{
ref = acute;
}
);
width = 1024;
},
{
background = {
shapes = (
{
closed = 1;
nodes = (
(771,899,l,{
name = hr00;
}),
(509,899,l),
(509,771,l),
(381,771,l),
(381,643,l),
(125,643,l),
(125,125,l),
(253,125,l),
(253,-3,l),
(771,-3,l),
(771,125,l),
(899,125,l),
(899,643,l),
(643,643,l),
(643,765,l),
(771,765,l)
);
},
{
closed = 1;
nodes = (
(387,131,l),
(387,637,l),
(637,637,l),
(637,131,l)
);
}
);
};
layerId = "B2CED426-8D3E-4D4E-926E-917DB7E3651C";
shapes = (
{
ref = U.case.2;
},
{
ref = acute;
}
);
width = 1024;
}
);
unicode = 218;
userData = {
com.typemytype.robofont.mark = (
0.967,
0.6,
1,
1
);
};
},
{
color = 4;
glyphname = Ucircumflex;
layers = (
{
background = {
shapes = (
{
closed = 1;
nodes = (
(125,125,l,{
name = hr00;
}),
(253,125,l),
(253,-3,l),
(771,-3,l),
(771,125,l),
(899,125,l),
(899,515,l),
(637,515,l),
(637,131,l),
(387,131,l),
(387,515,l),
(125,515,l)
);
},
{
closed = 1;
nodes = (
(637,637,l),
(899,637,l),
(899,771,l),
(771,771,l),
(771,899,l),
(253,899,l),
(253,771,l),
(125,771,l),
(125,637,l),
(387,637,l),
(387,765,l),
(637,765,l)
);
}
);
};
layerId = "511DE76B-C93C-4D1E-A4F3-1BF977EE06C9";
shapes = (
{
ref = U.case;
},
{
ref = circumflex;
}
);
width = 1024;
},
{
background = {
shapes = (
{
closed = 1;
nodes = (
(125,125,l,{
name = hr00;
}),
(253,125,l),
(253,-3,l),
(771,-3,l),
(771,125,l),
(899,125,l),
(899,515,l),
(637,515,l),
(637,131,l),
(387,131,l),
(387,515,l),
(125,515,l)
);
},
{
closed = 1;
nodes = (
(637,637,l),
(899,637,l),
(899,771,l),
(771,771,l),
(771,899,l),
(253,899,l),
(253,771,l),
(125,771,l),
(125,637,l),
(387,637,l),
(387,765,l),
(637,765,l)
);
}
);
};
layerId = "A1CF3A9E-1F49-4701-AF3E-F0E694793914";
shapes = (
{
ref = U.case;
},
{
ref = circumflex;
}
);
width = 1024;
},
{
background = {
shapes = (
{
closed = 1;
nodes = (
(125,125,l,{
name = hr00;
}),
(253,125,l),
(253,-3,l),
(771,-3,l),
(771,125,l),
(899,125,l),
(899,515,l),
(637,515,l),
(637,131,l),
(387,131,l),
(387,515,l),
(125,515,l)
);
},
{
closed = 1;
nodes = (
(637,637,l),
(899,637,l),
(899,771,l),
(771,771,l),
(771,899,l),
(253,899,l),
(253,771,l),
(125,771,l),
(125,637,l),
(387,637,l),
(387,765,l),
(637,765,l)
);
}
);
};
layerId = "93054D9F-9072-4363-B5A9-8BAB03B66C21";
shapes = (
{
ref = U.case;
},
{
ref = circumflex;
}
);
width = 1024;
},
{
background = {
shapes = (
{
closed = 1;
nodes = (
(125,125,l,{
name = hr00;
}),
(253,125,l),
(253,-3,l),
(771,-3,l),
(771,125,l),
(899,125,l),
(899,515,l),
(637,515,l),
(637,131,l),
(387,131,l),
(387,515,l),
(125,515,l)
);
},
{
closed = 1;
nodes = (
(637,637,l),
(899,637,l),
(899,771,l),
(771,771,l),
(771,899,l),
(253,899,l),
(253,771,l),
(125,771,l),
(125,637,l),
(387,637,l),
(387,765,l),
(637,765,l)
);
}
);
};
layerId = "B2CED426-8D3E-4D4E-926E-917DB7E3651C";
shapes = (
{
ref = U.case;
},
{
ref = circumflex;
}
);
width = 1024;
}
);
unicode = 219;
userData = {
com.typemytype.robofont.mark = (
0.967,
0.6,
1,
1
);
};
},
{
color = 4;
glyphname = Udieresis;
layers = (
{
background = {
shapes = (
{
closed = 1;
nodes = (
(125,125,l,{
name = hr00;
}),
(253,125,l),
(253,-3,l),
(771,-3,l),
(771,125,l),
(899,125,l),
(899,643,l),
(637,643,l),
(637,131,l),
(387,131,l),
(387,643,l),
(125,643,l)
);
},
{
closed = 1;
nodes = (
(125,765,l),
(387,765,l),
(387,899,l),
(125,899,l)
);
},
{
closed = 1;
nodes = (
(637,765,l),
(899,765,l),
(899,899,l),
(637,899,l)
);
}
);
};
layerId = "511DE76B-C93C-4D1E-A4F3-1BF977EE06C9";
shapes = (
{
ref = U.case.2;
},
{
ref = dieresis;
}
);
width = 1024;
},
{
background = {
shapes = (
{
closed = 1;
nodes = (
(125,125,l,{
name = hr00;
}),
(253,125,l),
(253,-3,l),
(771,-3,l),
(771,125,l),
(899,125,l),
(899,643,l),
(637,643,l),
(637,131,l),
(387,131,l),
(387,643,l),
(125,643,l)
);
},
{
closed = 1;
nodes = (
(125,765,l),
(387,765,l),
(387,899,l),
(125,899,l)
);
},
{
closed = 1;
nodes = (
(637,765,l),
(899,765,l),
(899,899,l),
(637,899,l)
);
}
);
};
layerId = "A1CF3A9E-1F49-4701-AF3E-F0E694793914";
shapes = (
{
ref = U.case.2;
},
{
ref = dieresis;
}
);
width = 1024;
},
{
background = {
shapes = (
{
closed = 1;
nodes = (
(125,125,l,{
name = hr00;
}),
(253,125,l),
(253,-3,l),
(771,-3,l),
(771,125,l),
(899,125,l),
(899,643,l),
(637,643,l),
(637,131,l),
(387,131,l),
(387,643,l),
(125,643,l)
);
},
{
closed = 1;
nodes = (
(125,765,l),
(387,765,l),
(387,899,l),
(125,899,l)
);
},
{
closed = 1;
nodes = (
(637,765,l),
(899,765,l),
(899,899,l),
(637,899,l)
);
}
);
};
layerId = "93054D9F-9072-4363-B5A9-8BAB03B66C21";
shapes = (
{
ref = U.case.2;
},
{
ref = dieresis;
}
);
width = 1024;
},
{
background = {
shapes = (
{
closed = 1;
nodes = (
(125,125,l,{
name = hr00;
}),
(253,125,l),
(253,-3,l),
(771,-3,l),
(771,125,l),
(899,125,l),
(899,643,l),
(637,643,l),
(637,131,l),
(387,131,l),
(387,643,l),
(125,643,l)
);
},
{
closed = 1;
nodes = (
(125,765,l),
(387,765,l),
(387,899,l),
(125,899,l)
);
},
{
closed = 1;
nodes = (
(637,765,l),
(899,765,l),
(899,899,l),
(637,899,l)
);
}
);
};
layerId = "B2CED426-8D3E-4D4E-926E-917DB7E3651C";
shapes = (
{
ref = U.case.2;
},
{
ref = dieresis;
}
);
width = 1024;
}
);
unicode = 220;
userData = {
com.typemytype.robofont.mark = (
0.967,
0.6,
1,
1
);
};
},
{
color = 4;
glyphname = Ugrave;
layers = (
{
background = {
shapes = (
{
closed = 1;
nodes = (
(253,765,l,{
name = hr00;
}),
(381,765,l),
(381,643,l),
(125,643,l),
(125,125,l),
(253,125,l),
(253,-3,l),
(771,-3,l),
(771,125,l),
(899,125,l),
(899,643,l),
(643,643,l),
(643,771,l),
(515,771,l),
(515,899,l),
(253,899,l)
);
},
{
closed = 1;
nodes = (
(387,131,l),
(387,637,l),
(637,637,l),
(637,131,l)
);
}
);
};
layerId = "511DE76B-C93C-4D1E-A4F3-1BF977EE06C9";
shapes = (
{
ref = U.case.2;
},
{
ref = grave;
}
);
width = 1024;
},
{
background = {
shapes = (
{
closed = 1;
nodes = (
(253,765,l,{
name = hr00;
}),
(381,765,l),
(381,643,l),
(125,643,l),
(125,125,l),
(253,125,l),
(253,-3,l),
(771,-3,l),
(771,125,l),
(899,125,l),
(899,643,l),
(643,643,l),
(643,771,l),
(515,771,l),
(515,899,l),
(253,899,l)
);
},
{
closed = 1;
nodes = (
(387,131,l),
(387,637,l),
(637,637,l),
(637,131,l)
);
}
);
};
layerId = "A1CF3A9E-1F49-4701-AF3E-F0E694793914";
shapes = (
{
ref = U.case.2;
},
{
ref = grave;
}
);
width = 1024;
},
{
background = {
shapes = (
{
closed = 1;
nodes = (
(253,765,l,{
name = hr00;
}),
(381,765,l),
(381,643,l),
(125,643,l),
(125,125,l),
(253,125,l),
(253,-3,l),
(771,-3,l),
(771,125,l),
(899,125,l),
(899,643,l),
(643,643,l),
(643,771,l),
(515,771,l),
(515,899,l),
(253,899,l)
);
},
{
closed = 1;
nodes = (
(387,131,l),
(387,637,l),
(637,637,l),
(637,131,l)
);
}
);
};
layerId = "93054D9F-9072-4363-B5A9-8BAB03B66C21";
shapes = (
{
ref = U.case.2;
},
{
ref = grave;
}
);
width = 1024;
},
{
background = {
shapes = (
{
closed = 1;
nodes = (
(253,765,l,{
name = hr00;
}),
(381,765,l),
(381,643,l),
(125,643,l),
(125,125,l),
(253,125,l),
(253,-3,l),
(771,-3,l),
(771,125,l),
(899,125,l),
(899,643,l),
(643,643,l),
(643,771,l),
(515,771,l),
(515,899,l),
(253,899,l)
);
},
{
closed = 1;
nodes = (
(387,131,l),
(387,637,l),
(637,637,l),
(637,131,l)
);
}
);
};
layerId = "B2CED426-8D3E-4D4E-926E-917DB7E3651C";
shapes = (
{
ref = U.case.2;
},
{
ref = grave;
}
);
width = 1024;
}
);
unicode = 217;
userData = {
com.typemytype.robofont.mark = (
0.967,
0.6,
1,
1
);
};
},
{
color = 4;
glyphname = V;
layers = (
{
background = {
shapes = (
{
closed = 1;
nodes = (
(637,259,l,{
name = hr00;
}),
(387,259,l),
(387,899,l),
(125,899,l),
(125,253,l),
(253,253,l),
(253,125,l),
(381,125,l),
(381,-3,l),
(643,-3,l),
(643,125,l),
(771,125,l),
(771,253,l),
(899,253,l),
(899,899,l),
(637,899,l)
);
}
);
};
layerId = "511DE76B-C93C-4D1E-A4F3-1BF977EE06C9";
shapes = (
{
pos = (384,0);
ref = pixel.2;
},
{
pos = (256,128);
ref = pixel.4;
},
{
pos = (128,256);
ref = pixel.2;
},
{
pos = (640,256);
ref = pixel.2;
},
{
pos = (128,384);
ref = pixel.2;
},
{
pos = (640,384);
ref = pixel.2;
},
{
pos = (128,512);
ref = pixel.2;
},
{
pos = (640,512);
ref = pixel.2;
},
{
pos = (128,640);
ref = pixel.2;
},
{
pos = (640,640);
ref = pixel.2;
},
{
pos = (128,768);
ref = pixel.2;
},
{
pos = (640,768);
ref = pixel.2;
}
);
width = 1024;
},
{
background = {
shapes = (
{
closed = 1;
nodes = (
(637,259,l,{
name = hr00;
}),
(387,259,l),
(387,899,l),
(125,899,l),
(125,253,l),
(253,253,l),
(253,125,l),
(381,125,l),
(381,-3,l),
(643,-3,l),
(643,125,l),
(771,125,l),
(771,253,l),
(899,253,l),
(899,899,l),
(637,899,l)
);
}
);
};
layerId = "A1CF3A9E-1F49-4701-AF3E-F0E694793914";
shapes = (
{
pos = (384,0);
ref = pixel.2;
},
{
pos = (256,128);
ref = pixel.4;
},
{
pos = (128,256);
ref = pixel.2;
},
{
pos = (640,256);
ref = pixel.2;
},
{
pos = (128,384);
ref = pixel.2;
},
{
pos = (640,384);
ref = pixel.2;
},
{
pos = (128,512);
ref = pixel.2;
},
{
pos = (640,512);
ref = pixel.2;
},
{
pos = (128,640);
ref = pixel.2;
},
{
pos = (640,640);
ref = pixel.2;
},
{
pos = (128,768);
ref = pixel.2;
},
{
pos = (640,768);
ref = pixel.2;
}
);
width = 1024;
},
{
background = {
shapes = (
{
closed = 1;
nodes = (
(637,259,l,{
name = hr00;
}),
(387,259,l),
(387,899,l),
(125,899,l),
(125,253,l),
(253,253,l),
(253,125,l),
(381,125,l),
(381,-3,l),
(643,-3,l),
(643,125,l),
(771,125,l),
(771,253,l),
(899,253,l),
(899,899,l),
(637,899,l)
);
}
);
};
layerId = "93054D9F-9072-4363-B5A9-8BAB03B66C21";
shapes = (
{
pos = (384,0);
ref = pixel.2;
},
{
pos = (256,128);
ref = pixel.4;
},
{
pos = (128,256);
ref = pixel.2;
},
{
pos = (640,256);
ref = pixel.2;
},
{
pos = (128,384);
ref = pixel.2;
},
{
pos = (640,384);
ref = pixel.2;
},
{
pos = (128,512);
ref = pixel.2;
},
{
pos = (640,512);
ref = pixel.2;
},
{
pos = (128,640);
ref = pixel.2;
},
{
pos = (640,640);
ref = pixel.2;
},
{
pos = (128,768);
ref = pixel.2;
},
{
pos = (640,768);
ref = pixel.2;
}
);
width = 1024;
},
{
background = {
shapes = (
{
closed = 1;
nodes = (
(637,259,l,{
name = hr00;
}),
(387,259,l),
(387,899,l),
(125,899,l),
(125,253,l),
(253,253,l),
(253,125,l),
(381,125,l),
(381,-3,l),
(643,-3,l),
(643,125,l),
(771,125,l),
(771,253,l),
(899,253,l),
(899,899,l),
(637,899,l)
);
}
);
};
layerId = "B2CED426-8D3E-4D4E-926E-917DB7E3651C";
shapes = (
{
pos = (384,0);
ref = pixel.2;
},
{
pos = (256,128);
ref = pixel.4;
},
{
pos = (128,256);
ref = pixel.2;
},
{
pos = (640,256);
ref = pixel.2;
},
{
pos = (128,384);
ref = pixel.2;
},
{
pos = (640,384);
ref = pixel.2;
},
{
pos = (128,512);
ref = pixel.2;
},
{
pos = (640,512);
ref = pixel.2;
},
{
pos = (128,640);
ref = pixel.2;
},
{
pos = (640,640);
ref = pixel.2;
},
{
pos = (128,768);
ref = pixel.2;
},
{
pos = (640,768);
ref = pixel.2;
}
);
width = 1024;
}
);
unicode = 86;
userData = {
com.typemytype.robofont.mark = (
1,
0.6,
0.6,
1
);
};
},
{
color = 4;
glyphname = W;
layers = (
{
background = {
shapes = (
{
closed = 1;
nodes = (
(765,-3,l,{
name = hr00;
}),
(1027,-3,l),
(1027,899,l),
(765,899,l),
(765,387,l),
(643,387,l),
(643,515,l),
(509,515,l),
(509,387,l),
(387,387,l),
(387,899,l),
(125,899,l),
(125,-3,l),
(387,-3,l),
(387,125,l),
(515,125,l),
(515,253,l),
(637,253,l),
(637,125,l),
(765,125,l)
);
}
);
};
layerId = "511DE76B-C93C-4D1E-A4F3-1BF977EE06C9";
shapes = (
{
pos = (128,0);
ref = pixel.2;
},
{
pos = (768,0);
ref = pixel.2;
},
{
pos = (128,128);
ref = pixel.3;
},
{
pos = (640,128);
ref = pixel.3;
},
{
pos = (128,256);
ref = pixel.7;
},
{
pos = (128,384);
ref = pixel.2;
},
{
pos = (512,384);
ref = pixel.1;
},
{
pos = (768,384);
ref = pixel.2;
},
{
pos = (128,512);
ref = pixel.2;
},
{
pos = (768,512);
ref = pixel.2;
},
{
pos = (128,640);
ref = pixel.2;
},
{
pos = (768,640);
ref = pixel.2;
},
{
pos = (128,768);
ref = pixel.2;
},
{
pos = (768,768);
ref = pixel.2;
}
);
width = 1024;
},
{
background = {
shapes = (
{
closed = 1;
nodes = (
(765,-3,l,{
name = hr00;
}),
(1027,-3,l),
(1027,899,l),
(765,899,l),
(765,387,l),
(643,387,l),
(643,515,l),
(509,515,l),
(509,387,l),
(387,387,l),
(387,899,l),
(125,899,l),
(125,-3,l),
(387,-3,l),
(387,125,l),
(515,125,l),
(515,253,l),
(637,253,l),
(637,125,l),
(765,125,l)
);
}
);
};
layerId = "A1CF3A9E-1F49-4701-AF3E-F0E694793914";
shapes = (
{
pos = (128,0);
ref = pixel.2;
},
{
pos = (768,0);
ref = pixel.2;
},
{
pos = (128,128);
ref = pixel.3;
},
{
pos = (640,128);
ref = pixel.3;
},
{
pos = (128,256);
ref = pixel.7;
},
{
pos = (128,384);
ref = pixel.2;
},
{
pos = (512,384);
ref = pixel.1;
},
{
pos = (768,384);
ref = pixel.2;
},
{
pos = (128,512);
ref = pixel.2;
},
{
pos = (768,512);
ref = pixel.2;
},
{
pos = (128,640);
ref = pixel.2;
},
{
pos = (768,640);
ref = pixel.2;
},
{
pos = (128,768);
ref = pixel.2;
},
{
pos = (768,768);
ref = pixel.2;
}
);
width = 1024;
},
{
background = {
shapes = (
{
closed = 1;
nodes = (
(1088,387,ls),
(1121.689,387,o),
(1149,414.311,o),
(1149,448,cs),
(1149,481.689,o),
(1121.689,509,o),
(1088,509,cs),
(64,509,ls),
(30.311,509,o),
(3,481.689,o),
(3,448,cs),
(3,414.311,o),
(30.311,387,o),
(64,387,cs)
);
},
{
closed = 1;
nodes = (
(448,3,ls),
(481.689,3,o),
(509,30.311,o),
(509,64,cs),
(509,97.689,o),
(481.689,125,o),
(448,125,cs),
(64,125,ls),
(30.311,125,o),
(3,97.689,o),
(3,64,cs),
(3,30.311,o),
(30.311,3,o),
(64,3,cs)
);
},
{
closed = 1;
nodes = (
(1088,131,ls),
(1121.689,131,o),
(1149,158.311,o),
(1149,192,cs),
(1149,225.689,o),
(1121.689,253,o),
(1088,253,cs),
(64,253,ls),
(30.311,253,o),
(3,225.689,o),
(3,192,cs),
(3,158.311,o),
(30.311,131,o),
(64,131,cs)
);
},
{
closed = 1;
nodes = (
(448,515,ls),
(481.689,515,o),
(509,542.311,o),
(509,576,cs),
(509,609.689,o),
(481.689,637,o),
(448,637,cs),
(64,637,ls),
(30.311,637,o),
(3,609.689,o),
(3,576,cs),
(3,542.311,o),
(30.311,515,o),
(64,515,cs)
);
},
{
closed = 1;
nodes = (
(1088,259,ls),
(1121.689,259,o),
(1149,286.311,o),
(1149,320,cs),
(1149,353.689,o),
(1121.689,381,o),
(1088,381,cs),
(64,381,ls),
(30.311,381,o),
(3,353.689,o),
(3,320,cs),
(3,286.311,o),
(30.311,259,o),
(64,259,cs)
);
},
{
closed = 1;
nodes = (
(448,643,ls),
(481.689,643,o),
(509,670.311,o),
(509,704,cs),
(509,737.689,o),
(481.689,765,o),
(448,765,cs),
(64,765,ls),
(30.311,765,o),
(3,737.689,o),
(3,704,cs),
(3,670.311,o),
(30.311,643,o),
(64,643,cs)
);
},
{
closed = 1;
nodes = (
(1088,3,ls),
(1121.689,3,o),
(1149,30.311,o),
(1149,64,cs),
(1149,97.689,o),
(1121.689,125,o),
(1088,125,cs),
(704,125,ls),
(670.311,125,o),
(643,97.689,o),
(643,64,cs),
(643,30.311,o),
(670.311,3,o),
(704,3,cs)
);
},
{
closed = 1;
nodes = (
(448,771,ls),
(481.689,771,o),
(509,798.311,o),
(509,832,cs),
(509,865.689,o),
(481.689,893,o),
(448,893,cs),
(64,893,ls),
(30.311,893,o),
(3,865.689,o),
(3,832,cs),
(3,798.311,o),
(30.311,771,o),
(64,771,cs)
);
},
{
closed = 1;
nodes = (
(1088,515,ls),
(1121.689,515,o),
(1149,542.311,o),
(1149,576,cs),
(1149,609.689,o),
(1121.689,637,o),
(1088,637,cs),
(704,637,ls),
(670.311,637,o),
(643,609.689,o),
(643,576,cs),
(643,542.311,o),
(670.311,515,o),
(704,515,cs)
);
},
{
closed = 1;
nodes = (
(1088,643,ls),
(1121.689,643,o),
(1149,670.311,o),
(1149,704,cs),
(1149,737.689,o),
(1121.689,765,o),
(1088,765,cs),
(704,765,ls),
(670.311,765,o),
(643,737.689,o),
(643,704,cs),
(643,670.311,o),
(670.311,643,o),
(704,643,cs)
);
},
{
closed = 1;
nodes = (
(1088,771,ls),
(1121.689,771,o),
(1149,798.311,o),
(1149,832,cs),
(1149,865.689,o),
(1121.689,893,o),
(1088,893,cs),
(704,893,ls),
(670.311,893,o),
(643,865.689,o),
(643,832,cs),
(643,798.311,o),
(670.311,771,o),
(704,771,cs)
);
}
);
};
layerId = "93054D9F-9072-4363-B5A9-8BAB03B66C21";
shapes = (
{
pos = (128,0);
ref = pixel.2;
},
{
pos = (768,0);
ref = pixel.2;
},
{
pos = (128,128);
ref = pixel.3;
},
{
pos = (640,128);
ref = pixel.3;
},
{
pos = (128,256);
ref = pixel.7;
},
{
pos = (128,384);
ref = pixel.2;
},
{
pos = (512,384);
ref = pixel.1;
},
{
pos = (768,384);
ref = pixel.2;
},
{
pos = (128,512);
ref = pixel.2;
},
{
pos = (768,512);
ref = pixel.2;
},
{
pos = (128,640);
ref = pixel.2;
},
{
pos = (768,640);
ref = pixel.2;
},
{
pos = (128,768);
ref = pixel.2;
},
{
pos = (768,768);
ref = pixel.2;
}
);
width = 1024;
},
{
background = {
shapes = (
{
closed = 1;
nodes = (
(1127,438,ls),
(1132.523,438,o),
(1137,442.477,o),
(1137,448,cs),
(1137,453.523,o),
(1132.523,458,o),
(1127,458,cs),
(25,458,ls),
(19.477,458,o),
(15,453.523,o),
(15,448,cs),
(15,442.477,o),
(19.477,438,o),
(25,438,cs)
);
},
{
closed = 1;
nodes = (
(487,54,ls),
(492.523,54,o),
(497,58.477,o),
(497,64,cs),
(497,69.523,o),
(492.523,74,o),
(487,74,cs),
(25,74,ls),
(19.477,74,o),
(15,69.523,o),
(15,64,cs),
(15,58.477,o),
(19.477,54,o),
(25,54,cs)
);
},
{
closed = 1;
nodes = (
(1127,182,ls),
(1132.523,182,o),
(1137,186.477,o),
(1137,192,cs),
(1137,197.523,o),
(1132.523,202,o),
(1127,202,cs),
(25,202,ls),
(19.477,202,o),
(15,197.523,o),
(15,192,cs),
(15,186.477,o),
(19.477,182,o),
(25,182,cs)
);
},
{
closed = 1;
nodes = (
(487,566,ls),
(492.523,566,o),
(497,570.477,o),
(497,576,cs),
(497,581.523,o),
(492.523,586,o),
(487,586,cs),
(25,586,ls),
(19.477,586,o),
(15,581.523,o),
(15,576,cs),
(15,570.477,o),
(19.477,566,o),
(25,566,cs)
);
},
{
closed = 1;
nodes = (
(1127,310,ls),
(1132.523,310,o),
(1137,314.477,o),
(1137,320,cs),
(1137,325.523,o),
(1132.523,330,o),
(1127,330,cs),
(25,330,ls),
(19.477,330,o),
(15,325.523,o),
(15,320,cs),
(15,314.477,o),
(19.477,310,o),
(25,310,cs)
);
},
{
closed = 1;
nodes = (
(487,694,ls),
(492.523,694,o),
(497,698.477,o),
(497,704,cs),
(497,709.523,o),
(492.523,714,o),
(487,714,cs),
(25,714,ls),
(19.477,714,o),
(15,709.523,o),
(15,704,cs),
(15,698.477,o),
(19.477,694,o),
(25,694,cs)
);
},
{
closed = 1;
nodes = (
(1127,54,ls),
(1132.523,54,o),
(1137,58.477,o),
(1137,64,cs),
(1137,69.523,o),
(1132.523,74,o),
(1127,74,cs),
(665,74,ls),
(659.477,74,o),
(655,69.523,o),
(655,64,cs),
(655,58.477,o),
(659.477,54,o),
(665,54,cs)
);
},
{
closed = 1;
nodes = (
(487,822,ls),
(492.523,822,o),
(497,826.477,o),
(497,832,cs),
(497,837.523,o),
(492.523,842,o),
(487,842,cs),
(25,842,ls),
(19.477,842,o),
(15,837.523,o),
(15,832,cs),
(15,826.477,o),
(19.477,822,o),
(25,822,cs)
);
},
{
closed = 1;
nodes = (
(1127,566,ls),
(1132.523,566,o),
(1137,570.477,o),
(1137,576,cs),
(1137,581.523,o),
(1132.523,586,o),
(1127,586,cs),
(665,586,ls),
(659.477,586,o),
(655,581.523,o),
(655,576,cs),
(655,570.477,o),
(659.477,566,o),
(665,566,cs)
);
},
{
closed = 1;
nodes = (
(1127,694,ls),
(1132.523,694,o),
(1137,698.477,o),
(1137,704,cs),
(1137,709.523,o),
(1132.523,714,o),
(1127,714,cs),
(665,714,ls),
(659.477,714,o),
(655,709.523,o),
(655,704,cs),
(655,698.477,o),
(659.477,694,o),
(665,694,cs)
);
},
{
closed = 1;
nodes = (
(1127,822,ls),
(1132.523,822,o),
(1137,826.477,o),
(1137,832,cs),
(1137,837.523,o),
(1132.523,842,o),
(1127,842,cs),
(665,842,ls),
(659.477,842,o),
(655,837.523,o),
(655,832,cs),
(655,826.477,o),
(659.477,822,o),
(665,822,cs)
);
}
);
};
layerId = "B2CED426-8D3E-4D4E-926E-917DB7E3651C";
shapes = (
{
pos = (128,0);
ref = pixel.2;
},
{
pos = (768,0);
ref = pixel.2;
},
{
pos = (128,128);
ref = pixel.3;
},
{
pos = (640,128);
ref = pixel.3;
},
{
pos = (128,256);
ref = pixel.7;
},
{
pos = (128,384);
ref = pixel.2;
},
{
pos = (512,384);
ref = pixel.1;
},
{
pos = (768,384);
ref = pixel.2;
},
{
pos = (128,512);
ref = pixel.2;
},
{
pos = (768,512);
ref = pixel.2;
},
{
pos = (128,640);
ref = pixel.2;
},
{
pos = (768,640);
ref = pixel.2;
},
{
pos = (128,768);
ref = pixel.2;
},
{
pos = (768,768);
ref = pixel.2;
}
);
width = 1024;
}
);
unicode = 87;
userData = {
com.typemytype.robofont.mark = (
1,
0.6,
0.6,
1
);
};
},
{
color = 4;
glyphname = X;
layers = (
{
background = {
shapes = (
{
closed = 1;
nodes = (
(381,387,l,{
name = hr00;
}),
(253,387,l),
(253,259,l),
(125,259,l),
(125,-3,l),
(387,-3,l),
(387,253,l),
(637,253,l),
(637,-3,l),
(899,-3,l),
(899,259,l),
(771,259,l),
(771,387,l),
(643,387,l),
(643,509,l),
(771,509,l),
(771,637,l),
(899,637,l),
(899,899,l),
(637,899,l),
(637,643,l),
(387,643,l),
(387,899,l),
(125,899,l),
(125,637,l),
(253,637,l),
(253,509,l),
(381,509,l)
);
}
);
};
layerId = "511DE76B-C93C-4D1E-A4F3-1BF977EE06C9";
shapes = (
{
pos = (128,0);
ref = pixel.2;
},
{
pos = (640,0);
ref = pixel.2;
},
{
pos = (128,128);
ref = pixel.2;
},
{
pos = (640,128);
ref = pixel.2;
},
{
pos = (256,256);
ref = pixel.4;
},
{
pos = (384,384);
ref = pixel.2;
},
{
pos = (256,512);
ref = pixel.4;
},
{
pos = (128,640);
ref = pixel.2;
},
{
pos = (640,640);
ref = pixel.2;
},
{
pos = (128,768);
ref = pixel.2;
},
{
pos = (640,768);
ref = pixel.2;
}
);
width = 1024;
},
{
background = {
shapes = (
{
closed = 1;
nodes = (
(381,387,l,{
name = hr00;
}),
(253,387,l),
(253,259,l),
(125,259,l),
(125,-3,l),
(387,-3,l),
(387,253,l),
(637,253,l),
(637,-3,l),
(899,-3,l),
(899,259,l),
(771,259,l),
(771,387,l),
(643,387,l),
(643,509,l),
(771,509,l),
(771,637,l),
(899,637,l),
(899,899,l),
(637,899,l),
(637,643,l),
(387,643,l),
(387,899,l),
(125,899,l),
(125,637,l),
(253,637,l),
(253,509,l),
(381,509,l)
);
}
);
};
layerId = "A1CF3A9E-1F49-4701-AF3E-F0E694793914";
shapes = (
{
pos = (128,0);
ref = pixel.2;
},
{
pos = (640,0);
ref = pixel.2;
},
{
pos = (128,128);
ref = pixel.2;
},
{
pos = (640,128);
ref = pixel.2;
},
{
pos = (256,256);
ref = pixel.4;
},
{
pos = (384,384);
ref = pixel.2;
},
{
pos = (256,512);
ref = pixel.4;
},
{
pos = (128,640);
ref = pixel.2;
},
{
pos = (640,640);
ref = pixel.2;
},
{
pos = (128,768);
ref = pixel.2;
},
{
pos = (640,768);
ref = pixel.2;
}
);
width = 1024;
},
{
background = {
shapes = (
{
closed = 1;
nodes = (
(381,387,l,{
name = hr00;
}),
(253,387,l),
(253,259,l),
(125,259,l),
(125,-3,l),
(387,-3,l),
(387,253,l),
(637,253,l),
(637,-3,l),
(899,-3,l),
(899,259,l),
(771,259,l),
(771,387,l),
(643,387,l),
(643,509,l),
(771,509,l),
(771,637,l),
(899,637,l),
(899,899,l),
(637,899,l),
(637,643,l),
(387,643,l),
(387,899,l),
(125,899,l),
(125,637,l),
(253,637,l),
(253,509,l),
(381,509,l)
);
}
);
};
layerId = "93054D9F-9072-4363-B5A9-8BAB03B66C21";
shapes = (
{
pos = (128,0);
ref = pixel.2;
},
{
pos = (640,0);
ref = pixel.2;
},
{
pos = (128,128);
ref = pixel.2;
},
{
pos = (640,128);
ref = pixel.2;
},
{
pos = (256,256);
ref = pixel.4;
},
{
pos = (384,384);
ref = pixel.2;
},
{
pos = (256,512);
ref = pixel.4;
},
{
pos = (128,640);
ref = pixel.2;
},
{
pos = (640,640);
ref = pixel.2;
},
{
pos = (128,768);
ref = pixel.2;
},
{
pos = (640,768);
ref = pixel.2;
}
);
width = 1024;
},
{
background = {
shapes = (
{
closed = 1;
nodes = (
(381,387,l,{
name = hr00;
}),
(253,387,l),
(253,259,l),
(125,259,l),
(125,-3,l),
(387,-3,l),
(387,253,l),
(637,253,l),
(637,-3,l),
(899,-3,l),
(899,259,l),
(771,259,l),
(771,387,l),
(643,387,l),
(643,509,l),
(771,509,l),
(771,637,l),
(899,637,l),
(899,899,l),
(637,899,l),
(637,643,l),
(387,643,l),
(387,899,l),
(125,899,l),
(125,637,l),
(253,637,l),
(253,509,l),
(381,509,l)
);
}
);
};
layerId = "B2CED426-8D3E-4D4E-926E-917DB7E3651C";
shapes = (
{
pos = (128,0);
ref = pixel.2;
},
{
pos = (640,0);
ref = pixel.2;
},
{
pos = (128,128);
ref = pixel.2;
},
{
pos = (640,128);
ref = pixel.2;
},
{
pos = (256,256);
ref = pixel.4;
},
{
pos = (384,384);
ref = pixel.2;
},
{
pos = (256,512);
ref = pixel.4;
},
{
pos = (128,640);
ref = pixel.2;
},
{
pos = (640,640);
ref = pixel.2;
},
{
pos = (128,768);
ref = pixel.2;
},
{
pos = (640,768);
ref = pixel.2;
}
);
width = 1024;
}
);
unicode = 88;
userData = {
com.typemytype.robofont.mark = (
1,
0.6,
0.6,
1
);
};
},
{
color = 4;
glyphname = Y;
layers = (
{
background = {
shapes = (
{
closed = 1;
nodes = (
(381,-3,l),
(643,-3,l),
(643,381,l),
(771,381,l),
(771,509,l),
(899,509,l,{
name = hr01;
}),
(899,899,l),
(637,899,l),
(637,515,l),
(387,515,l),
(387,899,l),
(125,899,l),
(125,509,l),
(253,509,l),
(253,381,l),
(381,381,l,{
name = hr02;
})
);
}
);
};
layerId = "511DE76B-C93C-4D1E-A4F3-1BF977EE06C9";
shapes = (
{
pos = (384,0);
ref = pixel.2;
},
{
pos = (384,128);
ref = pixel.2;
},
{
pos = (384,256);
ref = pixel.2;
},
{
pos = (256,384);
ref = pixel.4;
},
{
pos = (128,512);
ref = pixel.2;
},
{
pos = (640,512);
ref = pixel.2;
},
{
pos = (128,640);
ref = pixel.2;
},
{
pos = (640,640);
ref = pixel.2;
},
{
pos = (128,768);
ref = pixel.2;
},
{
pos = (640,768);
ref = pixel.2;
}
);
width = 1024;
},
{
background = {
shapes = (
{
closed = 1;
nodes = (
(381,-3,l),
(643,-3,l),
(643,381,l),
(771,381,l),
(771,509,l),
(899,509,l,{
name = hr01;
}),
(899,899,l),
(637,899,l),
(637,515,l),
(387,515,l),
(387,899,l),
(125,899,l),
(125,509,l),
(253,509,l),
(253,381,l),
(381,381,l,{
name = hr02;
})
);
}
);
};
layerId = "A1CF3A9E-1F49-4701-AF3E-F0E694793914";
shapes = (
{
pos = (384,0);
ref = pixel.2;
},
{
pos = (384,128);
ref = pixel.2;
},
{
pos = (384,256);
ref = pixel.2;
},
{
pos = (256,384);
ref = pixel.4;
},
{
pos = (128,512);
ref = pixel.2;
},
{
pos = (640,512);
ref = pixel.2;
},
{
pos = (128,640);
ref = pixel.2;
},
{
pos = (640,640);
ref = pixel.2;
},
{
pos = (128,768);
ref = pixel.2;
},
{
pos = (640,768);
ref = pixel.2;
}
);
width = 1024;
},
{
background = {
shapes = (
{
closed = 1;
nodes = (
(381,-3,l),
(643,-3,l),
(643,381,l),
(771,381,l),
(771,509,l),
(899,509,l,{
name = hr01;
}),
(899,899,l),
(637,899,l),
(637,515,l),
(387,515,l),
(387,899,l),
(125,899,l),
(125,509,l),
(253,509,l),
(253,381,l),
(381,381,l,{
name = hr02;
})
);
}
);
};
layerId = "93054D9F-9072-4363-B5A9-8BAB03B66C21";
shapes = (
{
pos = (384,0);
ref = pixel.2;
},
{
pos = (384,128);
ref = pixel.2;
},
{
pos = (384,256);
ref = pixel.2;
},
{
pos = (256,384);
ref = pixel.4;
},
{
pos = (128,512);
ref = pixel.2;
},
{
pos = (640,512);
ref = pixel.2;
},
{
pos = (128,640);
ref = pixel.2;
},
{
pos = (640,640);
ref = pixel.2;
},
{
pos = (128,768);
ref = pixel.2;
},
{
pos = (640,768);
ref = pixel.2;
}
);
width = 1024;
},
{
background = {
shapes = (
{
closed = 1;
nodes = (
(381,-3,l),
(643,-3,l),
(643,381,l),
(771,381,l),
(771,509,l),
(899,509,l,{
name = hr01;
}),
(899,899,l),
(637,899,l),
(637,515,l),
(387,515,l),
(387,899,l),
(125,899,l),
(125,509,l),
(253,509,l),
(253,381,l),
(381,381,l,{
name = hr02;
})
);
}
);
};
layerId = "B2CED426-8D3E-4D4E-926E-917DB7E3651C";
shapes = (
{
pos = (384,0);
ref = pixel.2;
},
{
pos = (384,128);
ref = pixel.2;
},
{
pos = (384,256);
ref = pixel.2;
},
{
pos = (256,384);
ref = pixel.4;
},
{
pos = (128,512);
ref = pixel.2;
},
{
pos = (640,512);
ref = pixel.2;
},
{
pos = (128,640);
ref = pixel.2;
},
{
pos = (640,640);
ref = pixel.2;
},
{
pos = (128,768);
ref = pixel.2;
},
{
pos = (640,768);
ref = pixel.2;
}
);
width = 1024;
}
);
unicode = 89;
userData = {
com.typemytype.robofont.mark = (
1,
0.6,
0.6,
1
);
};
},
{
color = 6;
glyphname = Yacute;
layers = (
{
background = {
shapes = (
{
closed = 1;
nodes = (
(771,899,l),
(509,899,l),
(509,771,l),
(381,771,l),
(381,643,l),
(125,643,l,{
name = hr01;
}),
(125,381,l),
(253,381,l),
(253,253,l),
(381,253,l,{
name = hr02;
}),
(381,-3,l),
(643,-3,l),
(643,253,l),
(771,253,l),
(771,381,l),
(899,381,l,{
name = hr03;
}),
(899,643,l),
(643,643,l,{
name = hr04;
}),
(643,765,l),
(771,765,l)
);
},
{
closed = 1;
nodes = (
(387,387,l,{
name = hr05;
}),
(387,637,l),
(637,637,l),
(637,387,l)
);
}
);
};
layerId = "511DE76B-C93C-4D1E-A4F3-1BF977EE06C9";
shapes = (
{
ref = Y.case;
},
{
ref = acute;
}
);
width = 1024;
},
{
background = {
shapes = (
{
closed = 1;
nodes = (
(771,899,l),
(509,899,l),
(509,771,l),
(381,771,l),
(381,643,l),
(125,643,l,{
name = hr01;
}),
(125,381,l),
(253,381,l),
(253,253,l),
(381,253,l,{
name = hr02;
}),
(381,-3,l),
(643,-3,l),
(643,253,l),
(771,253,l),
(771,381,l),
(899,381,l,{
name = hr03;
}),
(899,643,l),
(643,643,l,{
name = hr04;
}),
(643,765,l),
(771,765,l)
);
},
{
closed = 1;
nodes = (
(387,387,l,{
name = hr05;
}),
(387,637,l),
(637,637,l),
(637,387,l)
);
}
);
};
layerId = "A1CF3A9E-1F49-4701-AF3E-F0E694793914";
shapes = (
{
ref = Y.case;
},
{
ref = acute;
}
);
width = 1024;
},
{
background = {
shapes = (
{
closed = 1;
nodes = (
(771,899,l),
(509,899,l),
(509,771,l),
(381,771,l),
(381,643,l),
(125,643,l,{
name = hr01;
}),
(125,381,l),
(253,381,l),
(253,253,l),
(381,253,l,{
name = hr02;
}),
(381,-3,l),
(643,-3,l),
(643,253,l),
(771,253,l),
(771,381,l),
(899,381,l,{
name = hr03;
}),
(899,643,l),
(643,643,l,{
name = hr04;
}),
(643,765,l),
(771,765,l)
);
},
{
closed = 1;
nodes = (
(387,387,l,{
name = hr05;
}),
(387,637,l),
(637,637,l),
(637,387,l)
);
}
);
};
layerId = "93054D9F-9072-4363-B5A9-8BAB03B66C21";
shapes = (
{
ref = Y.case;
},
{
ref = acute;
}
);
width = 1024;
},
{
background = {
shapes = (
{
closed = 1;
nodes = (
(771,899,l),
(509,899,l),
(509,771,l),
(381,771,l),
(381,643,l),
(125,643,l,{
name = hr01;
}),
(125,381,l),
(253,381,l),
(253,253,l),
(381,253,l,{
name = hr02;
}),
(381,-3,l),
(643,-3,l),
(643,253,l),
(771,253,l),
(771,381,l),
(899,381,l,{
name = hr03;
}),
(899,643,l),
(643,643,l,{
name = hr04;
}),
(643,765,l),
(771,765,l)
);
},
{
closed = 1;
nodes = (
(387,387,l,{
name = hr05;
}),
(387,637,l),
(637,637,l),
(637,387,l)
);
}
);
};
layerId = "B2CED426-8D3E-4D4E-926E-917DB7E3651C";
shapes = (
{
ref = Y.case;
},
{
ref = acute;
}
);
width = 1024;
}
);
unicode = 221;
userData = {
com.typemytype.robofont.mark = (
0.967,
0.6,
1,
1
);
};
},
{
color = 4;
glyphname = Z;
layers = (
{
background = {
shapes = (
{
closed = 1;
nodes = (
(125,765,l,{
name = hr00;
}),
(637,765,l),
(637,643,l),
(509,643,l),
(509,515,l),
(381,515,l),
(381,387,l),
(253,387,l),
(253,259,l),
(125,259,l),
(125,-3,l),
(899,-3,l),
(899,131,l),
(387,131,l),
(387,253,l),
(515,253,l),
(515,381,l),
(643,381,l),
(643,509,l),
(771,509,l),
(771,637,l),
(899,637,l),
(899,899,l),
(125,899,l)
);
}
);
};
layerId = "511DE76B-C93C-4D1E-A4F3-1BF977EE06C9";
shapes = (
{
pos = (128,0);
ref = pixel.6;
},
{
pos = (128,128);
ref = pixel.2;
},
{
pos = (256,256);
ref = pixel.2;
},
{
pos = (384,384);
ref = pixel.2;
},
{
pos = (512,512);
ref = pixel.2;
},
{
pos = (640,640);
ref = pixel.2;
},
{
pos = (128,768);
ref = pixel.6;
}
);
width = 1024;
},
{
background = {
shapes = (
{
closed = 1;
nodes = (
(125,765,l,{
name = hr00;
}),
(637,765,l),
(637,643,l),
(509,643,l),
(509,515,l),
(381,515,l),
(381,387,l),
(253,387,l),
(253,259,l),
(125,259,l),
(125,-3,l),
(899,-3,l),
(899,131,l),
(387,131,l),
(387,253,l),
(515,253,l),
(515,381,l),
(643,381,l),
(643,509,l),
(771,509,l),
(771,637,l),
(899,637,l),
(899,899,l),
(125,899,l)
);
}
);
};
layerId = "A1CF3A9E-1F49-4701-AF3E-F0E694793914";
shapes = (
{
pos = (128,0);
ref = pixel.6;
},
{
pos = (128,128);
ref = pixel.2;
},
{
pos = (256,256);
ref = pixel.2;
},
{
pos = (384,384);
ref = pixel.2;
},
{
pos = (512,512);
ref = pixel.2;
},
{
pos = (640,640);
ref = pixel.2;
},
{
pos = (128,768);
ref = pixel.6;
}
);
width = 1024;
},
{
background = {
shapes = (
{
closed = 1;
nodes = (
(125,765,l,{
name = hr00;
}),
(637,765,l),
(637,643,l),
(509,643,l),
(509,515,l),
(381,515,l),
(381,387,l),
(253,387,l),
(253,259,l),
(125,259,l),
(125,-3,l),
(899,-3,l),
(899,131,l),
(387,131,l),
(387,253,l),
(515,253,l),
(515,381,l),
(643,381,l),
(643,509,l),
(771,509,l),
(771,637,l),
(899,637,l),
(899,899,l),
(125,899,l)
);
}
);
};
layerId = "93054D9F-9072-4363-B5A9-8BAB03B66C21";
shapes = (
{
pos = (128,0);
ref = pixel.6;
},
{
pos = (128,128);
ref = pixel.2;
},
{
pos = (256,256);
ref = pixel.2;
},
{
pos = (384,384);
ref = pixel.2;
},
{
pos = (512,512);
ref = pixel.2;
},
{
pos = (640,640);
ref = pixel.2;
},
{
pos = (128,768);
ref = pixel.6;
}
);
width = 1024;
},
{
background = {
shapes = (
{
closed = 1;
nodes = (
(125,765,l,{
name = hr00;
}),
(637,765,l),
(637,643,l),
(509,643,l),
(509,515,l),
(381,515,l),
(381,387,l),
(253,387,l),
(253,259,l),
(125,259,l),
(125,-3,l),
(899,-3,l),
(899,131,l),
(387,131,l),
(387,253,l),
(515,253,l),
(515,381,l),
(643,381,l),
(643,509,l),
(771,509,l),
(771,637,l),
(899,637,l),
(899,899,l),
(125,899,l)
);
}
);
};
layerId = "B2CED426-8D3E-4D4E-926E-917DB7E3651C";
shapes = (
{
pos = (128,0);
ref = pixel.6;
},
{
pos = (128,128);
ref = pixel.2;
},
{
pos = (256,256);
ref = pixel.2;
},
{
pos = (384,384);
ref = pixel.2;
},
{
pos = (512,512);
ref = pixel.2;
},
{
pos = (640,640);
ref = pixel.2;
},
{
pos = (128,768);
ref = pixel.6;
}
);
width = 1024;
}
);
unicode = 90;
userData = {
com.typemytype.robofont.mark = (
1,
0.6,
0.6,
1
);
};
},
{
color = 1;
glyphname = A.case;
layers = (
{
background = {
shapes = (
{
closed = 1;
nodes = (
(387,125,l,{
name = hr00;
}),
(637,125,l),
(637,-3,l),
(899,-3,l),
(899,387,l),
(771,387,l),
(771,515,l),
(643,515,l),
(643,637,l),
(899,637,l),
(899,771,l),
(771,771,l),
(771,899,l),
(253,899,l),
(253,771,l),
(125,771,l),
(125,637,l),
(381,637,l),
(381,515,l),
(253,515,l),
(253,387,l),
(125,387,l),
(125,-3,l),
(387,-3,l)
);
},
{
closed = 1;
nodes = (
(387,765,l),
(637,765,l),
(637,643,l),
(387,643,l)
);
},
{
closed = 1;
nodes = (
(387,381,l),
(637,381,l),
(637,259,l),
(387,259,l)
);
}
);
};
layerId = "A1CF3A9E-1F49-4701-AF3E-F0E694793914";
shapes = (
{
pos = (128,0);
ref = pixel.2;
},
{
pos = (640,0);
ref = pixel.2;
},
{
pos = (128,128);
ref = pixel.6;
},
{
pos = (128,256);
ref = pixel.2;
},
{
pos = (640,256);
ref = pixel.2;
},
{
pos = (256,384);
ref = pixel.4;
},
{
pos = (384,512);
ref = pixel.2;
}
);
width = 1024;
},
{
background = {
shapes = (
{
closed = 1;
nodes = (
(387,125,l,{
name = hr00;
}),
(637,125,l),
(637,-3,l),
(899,-3,l),
(899,387,l),
(771,387,l),
(771,515,l),
(643,515,l),
(643,637,l),
(899,637,l),
(899,771,l),
(771,771,l),
(771,899,l),
(253,899,l),
(253,771,l),
(125,771,l),
(125,637,l),
(381,637,l),
(381,515,l),
(253,515,l),
(253,387,l),
(125,387,l),
(125,-3,l),
(387,-3,l)
);
},
{
closed = 1;
nodes = (
(387,765,l),
(637,765,l),
(637,643,l),
(387,643,l)
);
},
{
closed = 1;
nodes = (
(387,381,l),
(637,381,l),
(637,259,l),
(387,259,l)
);
}
);
};
layerId = "511DE76B-C93C-4D1E-A4F3-1BF977EE06C9";
shapes = (
{
pos = (128,0);
ref = pixel.2;
},
{
pos = (640,0);
ref = pixel.2;
},
{
pos = (128,128);
ref = pixel.6;
},
{
pos = (128,256);
ref = pixel.2;
},
{
pos = (640,256);
ref = pixel.2;
},
{
pos = (256,384);
ref = pixel.4;
},
{
pos = (384,512);
ref = pixel.2;
}
);
width = 1024;
},
{
background = {
shapes = (
{
closed = 1;
nodes = (
(387,125,l,{
name = hr00;
}),
(637,125,l),
(637,-3,l),
(899,-3,l),
(899,387,l),
(771,387,l),
(771,515,l),
(643,515,l),
(643,637,l),
(899,637,l),
(899,771,l),
(771,771,l),
(771,899,l),
(253,899,l),
(253,771,l),
(125,771,l),
(125,637,l),
(381,637,l),
(381,515,l),
(253,515,l),
(253,387,l),
(125,387,l),
(125,-3,l),
(387,-3,l)
);
},
{
closed = 1;
nodes = (
(387,765,l),
(637,765,l),
(637,643,l),
(387,643,l)
);
},
{
closed = 1;
nodes = (
(387,381,l),
(637,381,l),
(637,259,l),
(387,259,l)
);
}
);
};
layerId = "B2CED426-8D3E-4D4E-926E-917DB7E3651C";
shapes = (
{
pos = (128,0);
ref = pixel.2;
},
{
pos = (640,0);
ref = pixel.2;
},
{
pos = (128,128);
ref = pixel.6;
},
{
pos = (128,256);
ref = pixel.2;
},
{
pos = (640,256);
ref = pixel.2;
},
{
pos = (256,384);
ref = pixel.4;
},
{
pos = (384,512);
ref = pixel.2;
}
);
width = 1024;
},
{
background = {
shapes = (
{
closed = 1;
nodes = (
(387,125,l,{
name = hr00;
}),
(637,125,l),
(637,-3,l),
(899,-3,l),
(899,387,l),
(771,387,l),
(771,515,l),
(643,515,l),
(643,637,l),
(899,637,l),
(899,771,l),
(771,771,l),
(771,899,l),
(253,899,l),
(253,771,l),
(125,771,l),
(125,637,l),
(381,637,l),
(381,515,l),
(253,515,l),
(253,387,l),
(125,387,l),
(125,-3,l),
(387,-3,l)
);
},
{
closed = 1;
nodes = (
(387,765,l),
(637,765,l),
(637,643,l),
(387,643,l)
);
},
{
closed = 1;
nodes = (
(387,381,l),
(637,381,l),
(637,259,l),
(387,259,l)
);
}
);
};
layerId = "93054D9F-9072-4363-B5A9-8BAB03B66C21";
shapes = (
{
pos = (128,0);
ref = pixel.2;
},
{
pos = (640,0);
ref = pixel.2;
},
{
pos = (128,128);
ref = pixel.6;
},
{
pos = (128,256);
ref = pixel.2;
},
{
pos = (640,256);
ref = pixel.2;
},
{
pos = (256,384);
ref = pixel.4;
},
{
pos = (384,512);
ref = pixel.2;
}
);
width = 1024;
}
);
},
{
color = 1;
glyphname = E.case;
layers = (
{
background = {
shapes = (
{
closed = 1;
nodes = (
(387,253,l,{
name = hr00;
}),
(643,253,l),
(643,387,l),
(387,387,l),
(387,509,l),
(899,509,l),
(899,643,l),
(125,643,l),
(125,-3,l),
(899,-3,l),
(899,131,l),
(387,131,l)
);
},
{
closed = 1;
nodes = (
(125,765,l),
(387,765,l),
(387,899,l),
(125,899,l)
);
},
{
closed = 1;
nodes = (
(637,765,l),
(899,765,l),
(899,899,l),
(637,899,l)
);
}
);
};
layerId = "A1CF3A9E-1F49-4701-AF3E-F0E694793914";
shapes = (
{
pos = (128,0);
ref = pixel.6;
},
{
pos = (128,128);
ref = pixel.2;
},
{
pos = (128,256);
ref = pixel.4;
},
{
pos = (128,384);
ref = pixel.2;
},
{
pos = (128,512);
ref = pixel.6;
}
);
width = 1024;
},
{
background = {
shapes = (
{
closed = 1;
nodes = (
(387,253,l,{
name = hr00;
}),
(643,253,l),
(643,387,l),
(387,387,l),
(387,509,l),
(899,509,l),
(899,643,l),
(125,643,l),
(125,-3,l),
(899,-3,l),
(899,131,l),
(387,131,l)
);
},
{
closed = 1;
nodes = (
(125,765,l),
(387,765,l),
(387,899,l),
(125,899,l)
);
},
{
closed = 1;
nodes = (
(637,765,l),
(899,765,l),
(899,899,l),
(637,899,l)
);
}
);
};
layerId = "511DE76B-C93C-4D1E-A4F3-1BF977EE06C9";
shapes = (
{
pos = (128,0);
ref = pixel.6;
},
{
pos = (128,128);
ref = pixel.2;
},
{
pos = (128,256);
ref = pixel.4;
},
{
pos = (128,384);
ref = pixel.2;
},
{
pos = (128,512);
ref = pixel.6;
}
);
width = 1024;
},
{
background = {
shapes = (
{
closed = 1;
nodes = (
(387,253,l,{
name = hr00;
}),
(643,253,l),
(643,387,l),
(387,387,l),
(387,509,l),
(899,509,l),
(899,643,l),
(125,643,l),
(125,-3,l),
(899,-3,l),
(899,131,l),
(387,131,l)
);
},
{
closed = 1;
nodes = (
(125,765,l),
(387,765,l),
(387,899,l),
(125,899,l)
);
},
{
closed = 1;
nodes = (
(637,765,l),
(899,765,l),
(899,899,l),
(637,899,l)
);
}
);
};
layerId = "B2CED426-8D3E-4D4E-926E-917DB7E3651C";
shapes = (
{
pos = (128,0);
ref = pixel.6;
},
{
pos = (128,128);
ref = pixel.2;
},
{
pos = (128,256);
ref = pixel.4;
},
{
pos = (128,384);
ref = pixel.2;
},
{
pos = (128,512);
ref = pixel.6;
}
);
width = 1024;
},
{
background = {
shapes = (
{
closed = 1;
nodes = (
(387,253,l,{
name = hr00;
}),
(643,253,l),
(643,387,l),
(387,387,l),
(387,509,l),
(899,509,l),
(899,643,l),
(125,643,l),
(125,-3,l),
(899,-3,l),
(899,131,l),
(387,131,l)
);
},
{
closed = 1;
nodes = (
(125,765,l),
(387,765,l),
(387,899,l),
(125,899,l)
);
},
{
closed = 1;
nodes = (
(637,765,l),
(899,765,l),
(899,899,l),
(637,899,l)
);
}
);
};
layerId = "93054D9F-9072-4363-B5A9-8BAB03B66C21";
shapes = (
{
pos = (128,0);
ref = pixel.6;
},
{
pos = (128,128);
ref = pixel.2;
},
{
pos = (128,256);
ref = pixel.4;
},
{
pos = (128,384);
ref = pixel.2;
},
{
pos = (128,512);
ref = pixel.6;
}
);
width = 1024;
}
);
},
{
color = 1;
glyphname = I.case;
layers = (
{
background = {
shapes = (
{
closed = 1;
nodes = (
(253,381,l,{
name = hr00;
}),
(381,381,l),
(381,131,l),
(253,131,l),
(253,-3,l),
(771,-3,l),
(771,131,l),
(643,131,l),
(643,381,l),
(771,381,l),
(771,515,l),
(253,515,l)
);
},
{
closed = 1;
nodes = (
(637,637,l),
(899,637,l),
(899,771,l),
(771,771,l),
(771,899,l),
(253,899,l),
(253,771,l),
(125,771,l),
(125,637,l),
(387,637,l),
(387,765,l),
(637,765,l)
);
}
);
};
layerId = "A1CF3A9E-1F49-4701-AF3E-F0E694793914";
shapes = (
{
pos = (256,0);
ref = pixel.4;
},
{
pos = (384,128);
ref = pixel.2;
},
{
pos = (384,256);
ref = pixel.2;
},
{
pos = (256,384);
ref = pixel.4;
}
);
width = 1024;
},
{
background = {
shapes = (
{
closed = 1;
nodes = (
(253,381,l,{
name = hr00;
}),
(381,381,l),
(381,131,l),
(253,131,l),
(253,-3,l),
(771,-3,l),
(771,131,l),
(643,131,l),
(643,381,l),
(771,381,l),
(771,515,l),
(253,515,l)
);
},
{
closed = 1;
nodes = (
(637,637,l),
(899,637,l),
(899,771,l),
(771,771,l),
(771,899,l),
(253,899,l),
(253,771,l),
(125,771,l),
(125,637,l),
(387,637,l),
(387,765,l),
(637,765,l)
);
}
);
};
layerId = "511DE76B-C93C-4D1E-A4F3-1BF977EE06C9";
shapes = (
{
pos = (256,0);
ref = pixel.4;
},
{
pos = (384,128);
ref = pixel.2;
},
{
pos = (384,256);
ref = pixel.2;
},
{
pos = (256,384);
ref = pixel.4;
}
);
width = 1024;
},
{
background = {
shapes = (
{
closed = 1;
nodes = (
(253,381,l,{
name = hr00;
}),
(381,381,l),
(381,131,l),
(253,131,l),
(253,-3,l),
(771,-3,l),
(771,131,l),
(643,131,l),
(643,381,l),
(771,381,l),
(771,515,l),
(253,515,l)
);
},
{
closed = 1;
nodes = (
(637,637,l),
(899,637,l),
(899,771,l),
(771,771,l),
(771,899,l),
(253,899,l),
(253,771,l),
(125,771,l),
(125,637,l),
(387,637,l),
(387,765,l),
(637,765,l)
);
}
);
};
layerId = "B2CED426-8D3E-4D4E-926E-917DB7E3651C";
shapes = (
{
pos = (256,0);
ref = pixel.4;
},
{
pos = (384,128);
ref = pixel.2;
},
{
pos = (384,256);
ref = pixel.2;
},
{
pos = (256,384);
ref = pixel.4;
}
);
width = 1024;
},
{
background = {
shapes = (
{
closed = 1;
nodes = (
(253,381,l,{
name = hr00;
}),
(381,381,l),
(381,131,l),
(253,131,l),
(253,-3,l),
(771,-3,l),
(771,131,l),
(643,131,l),
(643,381,l),
(771,381,l),
(771,515,l),
(253,515,l)
);
},
{
closed = 1;
nodes = (
(637,637,l),
(899,637,l),
(899,771,l),
(771,771,l),
(771,899,l),
(253,899,l),
(253,771,l),
(125,771,l),
(125,637,l),
(387,637,l),
(387,765,l),
(637,765,l)
);
}
);
};
layerId = "93054D9F-9072-4363-B5A9-8BAB03B66C21";
shapes = (
{
pos = (256,0);
ref = pixel.4;
},
{
pos = (384,128);
ref = pixel.2;
},
{
pos = (384,256);
ref = pixel.2;
},
{
pos = (256,384);
ref = pixel.4;
}
);
width = 1024;
}
);
},
{
color = 1;
glyphname = N.case;
layers = (
{
background = {
shapes = (
{
closed = 1;
nodes = (
(765,771,l,{
name = hr00;
}),
(643,771,l),
(643,899,l),
(253,899,l),
(253,771,l),
(125,771,l),
(125,-3,l),
(387,-3,l),
(387,253,l),
(509,253,l),
(509,125,l),
(637,125,l),
(637,-3,l),
(899,-3,l),
(899,765,l),
(1027,765,l),
(1027,899,l),
(765,899,l)
);
},
{
closed = 1;
nodes = (
(637,387,l),
(515,387,l),
(515,515,l),
(387,515,l),
(387,765,l),
(509,765,l),
(509,637,l),
(637,637,l)
);
}
);
};
layerId = "A1CF3A9E-1F49-4701-AF3E-F0E694793914";
shapes = (
{
pos = (128,0);
ref = pixel.2;
},
{
pos = (640,0);
ref = pixel.2;
},
{
pos = (128,128);
ref = pixel.2;
},
{
pos = (512,128);
ref = pixel.3;
},
{
pos = (128,256);
ref = pixel.6;
},
{
pos = (128,384);
ref = pixel.3;
},
{
pos = (640,384);
ref = pixel.2;
},
{
pos = (128,512);
ref = pixel.2;
},
{
pos = (640,512);
ref = pixel.2;
}
);
width = 1024;
},
{
background = {
shapes = (
{
closed = 1;
nodes = (
(765,771,l,{
name = hr00;
}),
(643,771,l),
(643,899,l),
(253,899,l),
(253,771,l),
(125,771,l),
(125,-3,l),
(387,-3,l),
(387,253,l),
(509,253,l),
(509,125,l),
(637,125,l),
(637,-3,l),
(899,-3,l),
(899,765,l),
(1027,765,l),
(1027,899,l),
(765,899,l)
);
},
{
closed = 1;
nodes = (
(637,387,l),
(515,387,l),
(515,515,l),
(387,515,l),
(387,765,l),
(509,765,l),
(509,637,l),
(637,637,l)
);
}
);
};
layerId = "511DE76B-C93C-4D1E-A4F3-1BF977EE06C9";
shapes = (
{
pos = (128,0);
ref = pixel.2;
},
{
pos = (640,0);
ref = pixel.2;
},
{
pos = (128,128);
ref = pixel.2;
},
{
pos = (512,128);
ref = pixel.3;
},
{
pos = (128,256);
ref = pixel.6;
},
{
pos = (128,384);
ref = pixel.3;
},
{
pos = (640,384);
ref = pixel.2;
},
{
pos = (128,512);
ref = pixel.2;
},
{
pos = (640,512);
ref = pixel.2;
}
);
width = 1024;
},
{
background = {
shapes = (
{
closed = 1;
nodes = (
(765,771,l,{
name = hr00;
}),
(643,771,l),
(643,899,l),
(253,899,l),
(253,771,l),
(125,771,l),
(125,-3,l),
(387,-3,l),
(387,253,l),
(509,253,l),
(509,125,l),
(637,125,l),
(637,-3,l),
(899,-3,l),
(899,765,l),
(1027,765,l),
(1027,899,l),
(765,899,l)
);
},
{
closed = 1;
nodes = (
(637,387,l),
(515,387,l),
(515,515,l),
(387,515,l),
(387,765,l),
(509,765,l),
(509,637,l),
(637,637,l)
);
}
);
};
layerId = "B2CED426-8D3E-4D4E-926E-917DB7E3651C";
shapes = (
{
pos = (128,0);
ref = pixel.2;
},
{
pos = (640,0);
ref = pixel.2;
},
{
pos = (128,128);
ref = pixel.2;
},
{
pos = (512,128);
ref = pixel.3;
},
{
pos = (128,256);
ref = pixel.6;
},
{
pos = (128,384);
ref = pixel.3;
},
{
pos = (640,384);
ref = pixel.2;
},
{
pos = (128,512);
ref = pixel.2;
},
{
pos = (640,512);
ref = pixel.2;
}
);
width = 1024;
},
{
background = {
shapes = (
{
closed = 1;
nodes = (
(765,771,l,{
name = hr00;
}),
(643,771,l),
(643,899,l),
(253,899,l),
(253,771,l),
(125,771,l),
(125,-3,l),
(387,-3,l),
(387,253,l),
(509,253,l),
(509,125,l),
(637,125,l),
(637,-3,l),
(899,-3,l),
(899,765,l),
(1027,765,l),
(1027,899,l),
(765,899,l)
);
},
{
closed = 1;
nodes = (
(637,387,l),
(515,387,l),
(515,515,l),
(387,515,l),
(387,765,l),
(509,765,l),
(509,637,l),
(637,637,l)
);
}
);
};
layerId = "93054D9F-9072-4363-B5A9-8BAB03B66C21";
shapes = (
{
pos = (128,0);
ref = pixel.2;
},
{
pos = (640,0);
ref = pixel.2;
},
{
pos = (128,128);
ref = pixel.2;
},
{
pos = (512,128);
ref = pixel.3;
},
{
pos = (128,256);
ref = pixel.6;
},
{
pos = (128,384);
ref = pixel.3;
},
{
pos = (640,384);
ref = pixel.2;
},
{
pos = (128,512);
ref = pixel.2;
},
{
pos = (640,512);
ref = pixel.2;
}
);
width = 1024;
}
);
},
{
color = 1;
glyphname = O.case;
layers = (
{
background = {
shapes = (
{
closed = 1;
nodes = (
(125,765,l,{
name = hr00;
}),
(253,765,l),
(253,643,l),
(125,643,l),
(125,125,l),
(253,125,l),
(253,-3,l),
(771,-3,l),
(771,125,l),
(899,125,l),
(899,643,l),
(771,643,l),
(771,765,l),
(899,765,l),
(899,899,l),
(637,899,l),
(637,771,l),
(387,771,l),
(387,899,l),
(125,899,l)
);
},
{
closed = 1;
nodes = (
(637,131,l),
(387,131,l),
(387,637,l),
(637,637,l)
);
}
);
};
layerId = "A1CF3A9E-1F49-4701-AF3E-F0E694793914";
shapes = (
{
pos = (256,0);
ref = pixel.4;
},
{
pos = (128,128);
ref = pixel.2;
},
{
pos = (640,128);
ref = pixel.2;
},
{
pos = (128,256);
ref = pixel.2;
},
{
pos = (640,256);
ref = pixel.2;
},
{
pos = (128,384);
ref = pixel.2;
},
{
pos = (640,384);
ref = pixel.2;
},
{
pos = (128,512);
ref = pixel.2;
},
{
pos = (640,512);
ref = pixel.2;
},
{
pos = (256,640);
ref = pixel.4;
}
);
width = 1024;
},
{
background = {
shapes = (
{
closed = 1;
nodes = (
(125,765,l,{
name = hr00;
}),
(253,765,l),
(253,643,l),
(125,643,l),
(125,125,l),
(253,125,l),
(253,-3,l),
(771,-3,l),
(771,125,l),
(899,125,l),
(899,643,l),
(771,643,l),
(771,765,l),
(899,765,l),
(899,899,l),
(637,899,l),
(637,771,l),
(387,771,l),
(387,899,l),
(125,899,l)
);
},
{
closed = 1;
nodes = (
(637,131,l),
(387,131,l),
(387,637,l),
(637,637,l)
);
}
);
};
layerId = "511DE76B-C93C-4D1E-A4F3-1BF977EE06C9";
shapes = (
{
pos = (256,0);
ref = pixel.4;
},
{
pos = (128,128);
ref = pixel.2;
},
{
pos = (640,128);
ref = pixel.2;
},
{
pos = (128,256);
ref = pixel.2;
},
{
pos = (640,256);
ref = pixel.2;
},
{
pos = (128,384);
ref = pixel.2;
},
{
pos = (640,384);
ref = pixel.2;
},
{
pos = (128,512);
ref = pixel.2;
},
{
pos = (640,512);
ref = pixel.2;
},
{
pos = (256,640);
ref = pixel.4;
}
);
width = 1024;
},
{
background = {
shapes = (
{
closed = 1;
nodes = (
(125,765,l,{
name = hr00;
}),
(253,765,l),
(253,643,l),
(125,643,l),
(125,125,l),
(253,125,l),
(253,-3,l),
(771,-3,l),
(771,125,l),
(899,125,l),
(899,643,l),
(771,643,l),
(771,765,l),
(899,765,l),
(899,899,l),
(637,899,l),
(637,771,l),
(387,771,l),
(387,899,l),
(125,899,l)
);
},
{
closed = 1;
nodes = (
(637,131,l),
(387,131,l),
(387,637,l),
(637,637,l)
);
}
);
};
layerId = "B2CED426-8D3E-4D4E-926E-917DB7E3651C";
shapes = (
{
pos = (256,0);
ref = pixel.4;
},
{
pos = (128,128);
ref = pixel.2;
},
{
pos = (640,128);
ref = pixel.2;
},
{
pos = (128,256);
ref = pixel.2;
},
{
pos = (640,256);
ref = pixel.2;
},
{
pos = (128,384);
ref = pixel.2;
},
{
pos = (640,384);
ref = pixel.2;
},
{
pos = (128,512);
ref = pixel.2;
},
{
pos = (640,512);
ref = pixel.2;
},
{
pos = (256,640);
ref = pixel.4;
}
);
width = 1024;
},
{
background = {
shapes = (
{
closed = 1;
nodes = (
(125,765,l,{
name = hr00;
}),
(253,765,l),
(253,643,l),
(125,643,l),
(125,125,l),
(253,125,l),
(253,-3,l),
(771,-3,l),
(771,125,l),
(899,125,l),
(899,643,l),
(771,643,l),
(771,765,l),
(899,765,l),
(899,899,l),
(637,899,l),
(637,771,l),
(387,771,l),
(387,899,l),
(125,899,l)
);
},
{
closed = 1;
nodes = (
(637,131,l),
(387,131,l),
(387,637,l),
(637,637,l)
);
}
);
};
layerId = "93054D9F-9072-4363-B5A9-8BAB03B66C21";
shapes = (
{
pos = (256,0);
ref = pixel.4;
},
{
pos = (128,128);
ref = pixel.2;
},
{
pos = (640,128);
ref = pixel.2;
},
{
pos = (128,256);
ref = pixel.2;
},
{
pos = (640,256);
ref = pixel.2;
},
{
pos = (128,384);
ref = pixel.2;
},
{
pos = (640,384);
ref = pixel.2;
},
{
pos = (128,512);
ref = pixel.2;
},
{
pos = (640,512);
ref = pixel.2;
},
{
pos = (256,640);
ref = pixel.4;
}
);
width = 1024;
}
);
},
{
color = 1;
glyphname = U.case;
layers = (
{
background = {
shapes = (
{
closed = 1;
nodes = (
(125,125,l,{
name = hr00;
}),
(253,125,l),
(253,-3,l),
(771,-3,l),
(771,125,l),
(899,125,l),
(899,515,l),
(637,515,l),
(637,131,l),
(387,131,l),
(387,515,l),
(125,515,l)
);
},
{
closed = 1;
nodes = (
(637,637,l),
(899,637,l),
(899,771,l),
(771,771,l),
(771,899,l),
(253,899,l),
(253,771,l),
(125,771,l),
(125,637,l),
(387,637,l),
(387,765,l),
(637,765,l)
);
}
);
};
layerId = "A1CF3A9E-1F49-4701-AF3E-F0E694793914";
shapes = (
{
pos = (256,0);
ref = pixel.4;
},
{
pos = (128,128);
ref = pixel.2;
},
{
pos = (640,128);
ref = pixel.2;
},
{
pos = (128,256);
ref = pixel.2;
},
{
pos = (640,256);
ref = pixel.2;
},
{
pos = (128,384);
ref = pixel.2;
},
{
pos = (640,384);
ref = pixel.2;
}
);
width = 1024;
},
{
background = {
shapes = (
{
closed = 1;
nodes = (
(125,125,l,{
name = hr00;
}),
(253,125,l),
(253,-3,l),
(771,-3,l),
(771,125,l),
(899,125,l),
(899,515,l),
(637,515,l),
(637,131,l),
(387,131,l),
(387,515,l),
(125,515,l)
);
},
{
closed = 1;
nodes = (
(637,637,l),
(899,637,l),
(899,771,l),
(771,771,l),
(771,899,l),
(253,899,l),
(253,771,l),
(125,771,l),
(125,637,l),
(387,637,l),
(387,765,l),
(637,765,l)
);
}
);
};
layerId = "511DE76B-C93C-4D1E-A4F3-1BF977EE06C9";
shapes = (
{
pos = (256,0);
ref = pixel.4;
},
{
pos = (128,128);
ref = pixel.2;
},
{
pos = (640,128);
ref = pixel.2;
},
{
pos = (128,256);
ref = pixel.2;
},
{
pos = (640,256);
ref = pixel.2;
},
{
pos = (128,384);
ref = pixel.2;
},
{
pos = (640,384);
ref = pixel.2;
}
);
width = 1024;
},
{
background = {
shapes = (
{
closed = 1;
nodes = (
(125,125,l,{
name = hr00;
}),
(253,125,l),
(253,-3,l),
(771,-3,l),
(771,125,l),
(899,125,l),
(899,515,l),
(637,515,l),
(637,131,l),
(387,131,l),
(387,515,l),
(125,515,l)
);
},
{
closed = 1;
nodes = (
(637,637,l),
(899,637,l),
(899,771,l),
(771,771,l),
(771,899,l),
(253,899,l),
(253,771,l),
(125,771,l),
(125,637,l),
(387,637,l),
(387,765,l),
(637,765,l)
);
}
);
};
layerId = "B2CED426-8D3E-4D4E-926E-917DB7E3651C";
shapes = (
{
pos = (256,0);
ref = pixel.4;
},
{
pos = (128,128);
ref = pixel.2;
},
{
pos = (640,128);
ref = pixel.2;
},
{
pos = (128,256);
ref = pixel.2;
},
{
pos = (640,256);
ref = pixel.2;
},
{
pos = (128,384);
ref = pixel.2;
},
{
pos = (640,384);
ref = pixel.2;
}
);
width = 1024;
},
{
background = {
shapes = (
{
closed = 1;
nodes = (
(125,125,l,{
name = hr00;
}),
(253,125,l),
(253,-3,l),
(771,-3,l),
(771,125,l),
(899,125,l),
(899,515,l),
(637,515,l),
(637,131,l),
(387,131,l),
(387,515,l),
(125,515,l)
);
},
{
closed = 1;
nodes = (
(637,637,l),
(899,637,l),
(899,771,l),
(771,771,l),
(771,899,l),
(253,899,l),
(253,771,l),
(125,771,l),
(125,637,l),
(387,637,l),
(387,765,l),
(637,765,l)
);
}
);
};
layerId = "93054D9F-9072-4363-B5A9-8BAB03B66C21";
shapes = (
{
pos = (256,0);
ref = pixel.4;
},
{
pos = (128,128);
ref = pixel.2;
},
{
pos = (640,128);
ref = pixel.2;
},
{
pos = (128,256);
ref = pixel.2;
},
{
pos = (640,256);
ref = pixel.2;
},
{
pos = (128,384);
ref = pixel.2;
},
{
pos = (640,384);
ref = pixel.2;
}
);
width = 1024;
}
);
},
{
color = 1;
glyphname = Y.case;
layers = (
{
background = {
shapes = (
{
closed = 1;
nodes = (
(771,899,l),
(509,899,l),
(509,771,l),
(381,771,l),
(381,643,l),
(125,643,l,{
name = hr01;
}),
(125,381,l),
(253,381,l),
(253,253,l),
(381,253,l,{
name = hr02;
}),
(381,-3,l),
(643,-3,l),
(643,253,l),
(771,253,l),
(771,381,l),
(899,381,l,{
name = hr03;
}),
(899,643,l),
(643,643,l,{
name = hr04;
}),
(643,765,l),
(771,765,l)
);
},
{
closed = 1;
nodes = (
(387,387,l,{
name = hr05;
}),
(387,637,l),
(637,637,l),
(637,387,l)
);
}
);
};
layerId = "A1CF3A9E-1F49-4701-AF3E-F0E694793914";
shapes = (
{
pos = (384,0);
ref = pixel.2;
},
{
pos = (384,128);
ref = pixel.2;
},
{
pos = (256,256);
ref = pixel.4;
},
{
pos = (128,384);
ref = pixel.2;
},
{
pos = (640,384);
ref = pixel.2;
},
{
pos = (128,512);
ref = pixel.2;
},
{
pos = (640,512);
ref = pixel.2;
}
);
width = 1024;
},
{
background = {
shapes = (
{
closed = 1;
nodes = (
(771,899,l),
(509,899,l),
(509,771,l),
(381,771,l),
(381,643,l),
(125,643,l,{
name = hr01;
}),
(125,381,l),
(253,381,l),
(253,253,l),
(381,253,l,{
name = hr02;
}),
(381,-3,l),
(643,-3,l),
(643,253,l),
(771,253,l),
(771,381,l),
(899,381,l,{
name = hr03;
}),
(899,643,l),
(643,643,l,{
name = hr04;
}),
(643,765,l),
(771,765,l)
);
},
{
closed = 1;
nodes = (
(387,387,l,{
name = hr05;
}),
(387,637,l),
(637,637,l),
(637,387,l)
);
}
);
};
layerId = "511DE76B-C93C-4D1E-A4F3-1BF977EE06C9";
shapes = (
{
pos = (384,0);
ref = pixel.2;
},
{
pos = (384,128);
ref = pixel.2;
},
{
pos = (256,256);
ref = pixel.4;
},
{
pos = (128,384);
ref = pixel.2;
},
{
pos = (640,384);
ref = pixel.2;
},
{
pos = (128,512);
ref = pixel.2;
},
{
pos = (640,512);
ref = pixel.2;
}
);
width = 1024;
},
{
background = {
shapes = (
{
closed = 1;
nodes = (
(771,899,l),
(509,899,l),
(509,771,l),
(381,771,l),
(381,643,l),
(125,643,l,{
name = hr01;
}),
(125,381,l),
(253,381,l),
(253,253,l),
(381,253,l,{
name = hr02;
}),
(381,-3,l),
(643,-3,l),
(643,253,l),
(771,253,l),
(771,381,l),
(899,381,l,{
name = hr03;
}),
(899,643,l),
(643,643,l,{
name = hr04;
}),
(643,765,l),
(771,765,l)
);
},
{
closed = 1;
nodes = (
(387,387,l,{
name = hr05;
}),
(387,637,l),
(637,637,l),
(637,387,l)
);
}
);
};
layerId = "B2CED426-8D3E-4D4E-926E-917DB7E3651C";
shapes = (
{
pos = (384,0);
ref = pixel.2;
},
{
pos = (384,128);
ref = pixel.2;
},
{
pos = (256,256);
ref = pixel.4;
},
{
pos = (128,384);
ref = pixel.2;
},
{
pos = (640,384);
ref = pixel.2;
},
{
pos = (128,512);
ref = pixel.2;
},
{
pos = (640,512);
ref = pixel.2;
}
);
width = 1024;
},
{
background = {
shapes = (
{
closed = 1;
nodes = (
(771,899,l),
(509,899,l),
(509,771,l),
(381,771,l),
(381,643,l),
(125,643,l,{
name = hr01;
}),
(125,381,l),
(253,381,l),
(253,253,l),
(381,253,l,{
name = hr02;
}),
(381,-3,l),
(643,-3,l),
(643,253,l),
(771,253,l),
(771,381,l),
(899,381,l,{
name = hr03;
}),
(899,643,l),
(643,643,l,{
name = hr04;
}),
(643,765,l),
(771,765,l)
);
},
{
closed = 1;
nodes = (
(387,387,l,{
name = hr05;
}),
(387,637,l),
(637,637,l),
(637,387,l)
);
}
);
};
layerId = "93054D9F-9072-4363-B5A9-8BAB03B66C21";
shapes = (
{
pos = (384,0);
ref = pixel.2;
},
{
pos = (384,128);
ref = pixel.2;
},
{
pos = (256,256);
ref = pixel.4;
},
{
pos = (128,384);
ref = pixel.2;
},
{
pos = (640,384);
ref = pixel.2;
},
{
pos = (128,512);
ref = pixel.2;
},
{
pos = (640,512);
ref = pixel.2;
}
);
width = 1024;
}
);
},
{
color = 1;
glyphname = A.case.2;
layers = (
{
background = {
shapes = (
{
closed = 1;
nodes = (
(125,765,l,{
name = hr00;
}),
(381,765,l),
(381,643,l),
(253,643,l),
(253,515,l),
(125,515,l),
(125,-3,l),
(387,-3,l),
(387,253,l),
(637,253,l),
(637,-3,l),
(899,-3,l),
(899,515,l),
(771,515,l),
(771,643,l),
(643,643,l),
(643,765,l),
(899,765,l),
(899,899,l),
(637,899,l),
(637,771,l),
(387,771,l),
(387,899,l),
(125,899,l)
);
},
{
closed = 1;
nodes = (
(387,509,l),
(637,509,l),
(637,387,l),
(387,387,l)
);
}
);
};
layerId = "A1CF3A9E-1F49-4701-AF3E-F0E694793914";
shapes = (
{
pos = (128,0);
ref = pixel.2;
},
{
pos = (640,0);
ref = pixel.2;
},
{
pos = (128,128);
ref = pixel.2;
},
{
pos = (640,128);
ref = pixel.2;
},
{
pos = (128,256);
ref = pixel.6;
},
{
pos = (128,384);
ref = pixel.2;
},
{
pos = (640,384);
ref = pixel.2;
},
{
pos = (256,512);
ref = pixel.4;
},
{
pos = (384,640);
ref = pixel.2;
}
);
width = 1024;
},
{
background = {
shapes = (
{
closed = 1;
nodes = (
(125,765,l,{
name = hr00;
}),
(381,765,l),
(381,643,l),
(253,643,l),
(253,515,l),
(125,515,l),
(125,-3,l),
(387,-3,l),
(387,253,l),
(637,253,l),
(637,-3,l),
(899,-3,l),
(899,515,l),
(771,515,l),
(771,643,l),
(643,643,l),
(643,765,l),
(899,765,l),
(899,899,l),
(637,899,l),
(637,771,l),
(387,771,l),
(387,899,l),
(125,899,l)
);
},
{
closed = 1;
nodes = (
(387,509,l),
(637,509,l),
(637,387,l),
(387,387,l)
);
}
);
};
layerId = "511DE76B-C93C-4D1E-A4F3-1BF977EE06C9";
shapes = (
{
pos = (128,0);
ref = pixel.2;
},
{
pos = (640,0);
ref = pixel.2;
},
{
pos = (128,128);
ref = pixel.2;
},
{
pos = (640,128);
ref = pixel.2;
},
{
pos = (128,256);
ref = pixel.6;
},
{
pos = (128,384);
ref = pixel.2;
},
{
pos = (640,384);
ref = pixel.2;
},
{
pos = (256,512);
ref = pixel.4;
},
{
pos = (384,640);
ref = pixel.2;
}
);
width = 1024;
},
{
background = {
shapes = (
{
closed = 1;
nodes = (
(125,765,l,{
name = hr00;
}),
(381,765,l),
(381,643,l),
(253,643,l),
(253,515,l),
(125,515,l),
(125,-3,l),
(387,-3,l),
(387,253,l),
(637,253,l),
(637,-3,l),
(899,-3,l),
(899,515,l),
(771,515,l),
(771,643,l),
(643,643,l),
(643,765,l),
(899,765,l),
(899,899,l),
(637,899,l),
(637,771,l),
(387,771,l),
(387,899,l),
(125,899,l)
);
},
{
closed = 1;
nodes = (
(387,509,l),
(637,509,l),
(637,387,l),
(387,387,l)
);
}
);
};
layerId = "B2CED426-8D3E-4D4E-926E-917DB7E3651C";
shapes = (
{
pos = (128,0);
ref = pixel.2;
},
{
pos = (640,0);
ref = pixel.2;
},
{
pos = (128,128);
ref = pixel.2;
},
{
pos = (640,128);
ref = pixel.2;
},
{
pos = (128,256);
ref = pixel.6;
},
{
pos = (128,384);
ref = pixel.2;
},
{
pos = (640,384);
ref = pixel.2;
},
{
pos = (256,512);
ref = pixel.4;
},
{
pos = (384,640);
ref = pixel.2;
}
);
width = 1024;
},
{
background = {
shapes = (
{
closed = 1;
nodes = (
(125,765,l,{
name = hr00;
}),
(381,765,l),
(381,643,l),
(253,643,l),
(253,515,l),
(125,515,l),
(125,-3,l),
(387,-3,l),
(387,253,l),
(637,253,l),
(637,-3,l),
(899,-3,l),
(899,515,l),
(771,515,l),
(771,643,l),
(643,643,l),
(643,765,l),
(899,765,l),
(899,899,l),
(637,899,l),
(637,771,l),
(387,771,l),
(387,899,l),
(125,899,l)
);
},
{
closed = 1;
nodes = (
(387,509,l),
(637,509,l),
(637,387,l),
(387,387,l)
);
}
);
};
layerId = "93054D9F-9072-4363-B5A9-8BAB03B66C21";
shapes = (
{
pos = (128,0);
ref = pixel.2;
},
{
pos = (640,0);
ref = pixel.2;
},
{
pos = (128,128);
ref = pixel.2;
},
{
pos = (640,128);
ref = pixel.2;
},
{
pos = (128,256);
ref = pixel.6;
},
{
pos = (128,384);
ref = pixel.2;
},
{
pos = (640,384);
ref = pixel.2;
},
{
pos = (256,512);
ref = pixel.4;
},
{
pos = (384,640);
ref = pixel.2;
}
);
width = 1024;
}
);
},
{
color = 1;
glyphname = I.case.2;
layers = (
{
background = {
shapes = (
{
closed = 1;
nodes = (
(253,509,l,{
name = hr00;
}),
(381,509,l),
(381,131,l),
(253,131,l),
(253,-3,l),
(771,-3,l),
(771,131,l),
(643,131,l),
(643,509,l),
(771,509,l),
(771,643,l),
(253,643,l)
);
},
{
closed = 1;
nodes = (
(637,765,l),
(899,765,l),
(899,899,l),
(637,899,l)
);
},
{
closed = 1;
nodes = (
(125,765,l),
(387,765,l),
(387,899,l),
(125,899,l)
);
}
);
};
layerId = "A1CF3A9E-1F49-4701-AF3E-F0E694793914";
shapes = (
{
pos = (256,0);
ref = pixel.4;
},
{
pos = (384,128);
ref = pixel.2;
},
{
pos = (384,256);
ref = pixel.2;
},
{
pos = (384,384);
ref = pixel.2;
},
{
pos = (256,512);
ref = pixel.4;
}
);
width = 1024;
},
{
background = {
shapes = (
{
closed = 1;
nodes = (
(253,509,l,{
name = hr00;
}),
(381,509,l),
(381,131,l),
(253,131,l),
(253,-3,l),
(771,-3,l),
(771,131,l),
(643,131,l),
(643,509,l),
(771,509,l),
(771,643,l),
(253,643,l)
);
},
{
closed = 1;
nodes = (
(637,765,l),
(899,765,l),
(899,899,l),
(637,899,l)
);
},
{
closed = 1;
nodes = (
(125,765,l),
(387,765,l),
(387,899,l),
(125,899,l)
);
}
);
};
layerId = "511DE76B-C93C-4D1E-A4F3-1BF977EE06C9";
shapes = (
{
pos = (256,0);
ref = pixel.4;
},
{
pos = (384,128);
ref = pixel.2;
},
{
pos = (384,256);
ref = pixel.2;
},
{
pos = (384,384);
ref = pixel.2;
},
{
pos = (256,512);
ref = pixel.4;
}
);
width = 1024;
},
{
background = {
shapes = (
{
closed = 1;
nodes = (
(253,509,l,{
name = hr00;
}),
(381,509,l),
(381,131,l),
(253,131,l),
(253,-3,l),
(771,-3,l),
(771,131,l),
(643,131,l),
(643,509,l),
(771,509,l),
(771,643,l),
(253,643,l)
);
},
{
closed = 1;
nodes = (
(637,765,l),
(899,765,l),
(899,899,l),
(637,899,l)
);
},
{
closed = 1;
nodes = (
(125,765,l),
(387,765,l),
(387,899,l),
(125,899,l)
);
}
);
};
layerId = "B2CED426-8D3E-4D4E-926E-917DB7E3651C";
shapes = (
{
pos = (256,0);
ref = pixel.4;
},
{
pos = (384,128);
ref = pixel.2;
},
{
pos = (384,256);
ref = pixel.2;
},
{
pos = (384,384);
ref = pixel.2;
},
{
pos = (256,512);
ref = pixel.4;
}
);
width = 1024;
},
{
background = {
shapes = (
{
closed = 1;
nodes = (
(253,509,l,{
name = hr00;
}),
(381,509,l),
(381,131,l),
(253,131,l),
(253,-3,l),
(771,-3,l),
(771,131,l),
(643,131,l),
(643,509,l),
(771,509,l),
(771,643,l),
(253,643,l)
);
},
{
closed = 1;
nodes = (
(637,765,l),
(899,765,l),
(899,899,l),
(637,899,l)
);
},
{
closed = 1;
nodes = (
(125,765,l),
(387,765,l),
(387,899,l),
(125,899,l)
);
}
);
};
layerId = "93054D9F-9072-4363-B5A9-8BAB03B66C21";
shapes = (
{
pos = (256,0);
ref = pixel.4;
},
{
pos = (384,128);
ref = pixel.2;
},
{
pos = (384,256);
ref = pixel.2;
},
{
pos = (384,384);
ref = pixel.2;
},
{
pos = (256,512);
ref = pixel.4;
}
);
width = 1024;
}
);
},
{
color = 1;
glyphname = U.case.2;
layers = (
{
background = {
shapes = (
{
closed = 1;
nodes = (
(125,125,l,{
name = hr00;
}),
(253,125,l),
(253,-3,l),
(771,-3,l),
(771,125,l),
(899,125,l),
(899,643,l),
(637,643,l),
(637,131,l),
(387,131,l),
(387,643,l),
(125,643,l)
);
},
{
closed = 1;
nodes = (
(125,765,l),
(387,765,l),
(387,899,l),
(125,899,l)
);
},
{
closed = 1;
nodes = (
(637,765,l),
(899,765,l),
(899,899,l),
(637,899,l)
);
}
);
};
layerId = "A1CF3A9E-1F49-4701-AF3E-F0E694793914";
shapes = (
{
pos = (256,0);
ref = pixel.4;
},
{
pos = (128,128);
ref = pixel.2;
},
{
pos = (640,128);
ref = pixel.2;
},
{
pos = (128,256);
ref = pixel.2;
},
{
pos = (640,256);
ref = pixel.2;
},
{
pos = (128,384);
ref = pixel.2;
},
{
pos = (640,384);
ref = pixel.2;
},
{
pos = (128,512);
ref = pixel.2;
},
{
pos = (640,512);
ref = pixel.2;
}
);
width = 1024;
},
{
background = {
shapes = (
{
closed = 1;
nodes = (
(125,125,l,{
name = hr00;
}),
(253,125,l),
(253,-3,l),
(771,-3,l),
(771,125,l),
(899,125,l),
(899,643,l),
(637,643,l),
(637,131,l),
(387,131,l),
(387,643,l),
(125,643,l)
);
},
{
closed = 1;
nodes = (
(125,765,l),
(387,765,l),
(387,899,l),
(125,899,l)
);
},
{
closed = 1;
nodes = (
(637,765,l),
(899,765,l),
(899,899,l),
(637,899,l)
);
}
);
};
layerId = "511DE76B-C93C-4D1E-A4F3-1BF977EE06C9";
shapes = (
{
pos = (256,0);
ref = pixel.4;
},
{
pos = (128,128);
ref = pixel.2;
},
{
pos = (640,128);
ref = pixel.2;
},
{
pos = (128,256);
ref = pixel.2;
},
{
pos = (640,256);
ref = pixel.2;
},
{
pos = (128,384);
ref = pixel.2;
},
{
pos = (640,384);
ref = pixel.2;
},
{
pos = (128,512);
ref = pixel.2;
},
{
pos = (640,512);
ref = pixel.2;
}
);
width = 1024;
},
{
background = {
shapes = (
{
closed = 1;
nodes = (
(125,125,l,{
name = hr00;
}),
(253,125,l),
(253,-3,l),
(771,-3,l),
(771,125,l),
(899,125,l),
(899,643,l),
(637,643,l),
(637,131,l),
(387,131,l),
(387,643,l),
(125,643,l)
);
},
{
closed = 1;
nodes = (
(125,765,l),
(387,765,l),
(387,899,l),
(125,899,l)
);
},
{
closed = 1;
nodes = (
(637,765,l),
(899,765,l),
(899,899,l),
(637,899,l)
);
}
);
};
layerId = "B2CED426-8D3E-4D4E-926E-917DB7E3651C";
shapes = (
{
pos = (256,0);
ref = pixel.4;
},
{
pos = (128,128);
ref = pixel.2;
},
{
pos = (640,128);
ref = pixel.2;
},
{
pos = (128,256);
ref = pixel.2;
},
{
pos = (640,256);
ref = pixel.2;
},
{
pos = (128,384);
ref = pixel.2;
},
{
pos = (640,384);
ref = pixel.2;
},
{
pos = (128,512);
ref = pixel.2;
},
{
pos = (640,512);
ref = pixel.2;
}
);
width = 1024;
},
{
background = {
shapes = (
{
closed = 1;
nodes = (
(125,125,l,{
name = hr00;
}),
(253,125,l),
(253,-3,l),
(771,-3,l),
(771,125,l),
(899,125,l),
(899,643,l),
(637,643,l),
(637,131,l),
(387,131,l),
(387,643,l),
(125,643,l)
);
},
{
closed = 1;
nodes = (
(125,765,l),
(387,765,l),
(387,899,l),
(125,899,l)
);
},
{
closed = 1;
nodes = (
(637,765,l),
(899,765,l),
(899,899,l),
(637,899,l)
);
}
);
};
layerId = "93054D9F-9072-4363-B5A9-8BAB03B66C21";
shapes = (
{
pos = (256,0);
ref = pixel.4;
},
{
pos = (128,128);
ref = pixel.2;
},
{
pos = (640,128);
ref = pixel.2;
},
{
pos = (128,256);
ref = pixel.2;
},
{
pos = (640,256);
ref = pixel.2;
},
{
pos = (128,384);
ref = pixel.2;
},
{
pos = (640,384);
ref = pixel.2;
},
{
pos = (128,512);
ref = pixel.2;
},
{
pos = (640,512);
ref = pixel.2;
}
);
width = 1024;
}
);
},
{
color = 4;
glyphname = a;
layers = (
{
background = {
shapes = (
{
closed = 1;
nodes = (
(253,509,l,{
name = hr00;
}),
(637,509,l),
(637,387,l),
(253,387,l),
(253,259,l),
(125,259,l),
(125,125,l),
(253,125,l),
(253,-3,l),
(899,-3,l),
(899,515,l),
(771,515,l),
(771,643,l),
(253,643,l)
);
},
{
closed = 1;
nodes = (
(637,131,l),
(387,131,l),
(387,253,l),
(637,253,l)
);
}
);
};
layerId = "511DE76B-C93C-4D1E-A4F3-1BF977EE06C9";
shapes = (
{
pos = (256,0);
ref = pixel.5;
},
{
pos = (128,128);
ref = pixel.2;
},
{
pos = (640,128);
ref = pixel.2;
},
{
pos = (256,256);
ref = pixel.5;
},
{
pos = (640,384);
ref = pixel.2;
},
{
pos = (256,512);
ref = pixel.4;
}
);
width = 1024;
},
{
background = {
shapes = (
{
closed = 1;
nodes = (
(253,509,l,{
name = hr00;
}),
(637,509,l),
(637,387,l),
(253,387,l),
(253,259,l),
(125,259,l),
(125,125,l),
(253,125,l),
(253,-3,l),
(899,-3,l),
(899,515,l),
(771,515,l),
(771,643,l),
(253,643,l)
);
},
{
closed = 1;
nodes = (
(637,131,l),
(387,131,l),
(387,253,l),
(637,253,l)
);
}
);
};
layerId = "A1CF3A9E-1F49-4701-AF3E-F0E694793914";
shapes = (
{
pos = (256,0);
ref = pixel.5;
},
{
pos = (128,128);
ref = pixel.2;
},
{
pos = (640,128);
ref = pixel.2;
},
{
pos = (256,256);
ref = pixel.5;
},
{
pos = (640,384);
ref = pixel.2;
},
{
pos = (256,512);
ref = pixel.4;
}
);
width = 1024;
},
{
background = {
shapes = (
{
closed = 1;
nodes = (
(253,509,l,{
name = hr00;
}),
(637,509,l),
(637,387,l),
(253,387,l),
(253,259,l),
(125,259,l),
(125,125,l),
(253,125,l),
(253,-3,l),
(899,-3,l),
(899,515,l),
(771,515,l),
(771,643,l),
(253,643,l)
);
},
{
closed = 1;
nodes = (
(637,131,l),
(387,131,l),
(387,253,l),
(637,253,l)
);
}
);
};
layerId = "93054D9F-9072-4363-B5A9-8BAB03B66C21";
shapes = (
{
pos = (256,0);
ref = pixel.5;
},
{
pos = (128,128);
ref = pixel.2;
},
{
pos = (640,128);
ref = pixel.2;
},
{
pos = (256,256);
ref = pixel.5;
},
{
pos = (640,384);
ref = pixel.2;
},
{
pos = (256,512);
ref = pixel.4;
}
);
width = 1024;
},
{
background = {
shapes = (
{
closed = 1;
nodes = (
(253,509,l,{
name = hr00;
}),
(637,509,l),
(637,387,l),
(253,387,l),
(253,259,l),
(125,259,l),
(125,125,l),
(253,125,l),
(253,-3,l),
(899,-3,l),
(899,515,l),
(771,515,l),
(771,643,l),
(253,643,l)
);
},
{
closed = 1;
nodes = (
(637,131,l),
(387,131,l),
(387,253,l),
(637,253,l)
);
}
);
};
layerId = "B2CED426-8D3E-4D4E-926E-917DB7E3651C";
shapes = (
{
pos = (256,0);
ref = pixel.5;
},
{
pos = (128,128);
ref = pixel.2;
},
{
pos = (640,128);
ref = pixel.2;
},
{
pos = (256,256);
ref = pixel.5;
},
{
pos = (640,384);
ref = pixel.2;
},
{
pos = (256,512);
ref = pixel.4;
}
);
width = 1024;
}
);
unicode = 97;
userData = {
com.typemytype.robofont.mark = (
1,
0.6,
0.6,
1
);
};
},
{
color = 6;
glyphname = aacute;
layers = (
{
background = {
shapes = (
{
closed = 1;
nodes = (
(771,899,l,{
name = hr00;
}),
(509,899,l),
(509,771,l),
(381,771,l),
(381,643,l),
(253,643,l),
(253,509,l),
(637,509,l),
(637,387,l),
(253,387,l),
(253,259,l),
(125,259,l),
(125,125,l),
(253,125,l),
(253,-3,l),
(899,-3,l),
(899,515,l),
(771,515,l),
(771,643,l),
(643,643,l),
(643,765,l),
(771,765,l)
);
},
{
closed = 1;
nodes = (
(637,131,l),
(387,131,l),
(387,253,l),
(637,253,l)
);
}
);
};
layerId = "511DE76B-C93C-4D1E-A4F3-1BF977EE06C9";
shapes = (
{
ref = a;
},
{
ref = acute;
}
);
width = 1024;
},
{
background = {
shapes = (
{
closed = 1;
nodes = (
(771,899,l,{
name = hr00;
}),
(509,899,l),
(509,771,l),
(381,771,l),
(381,643,l),
(253,643,l),
(253,509,l),
(637,509,l),
(637,387,l),
(253,387,l),
(253,259,l),
(125,259,l),
(125,125,l),
(253,125,l),
(253,-3,l),
(899,-3,l),
(899,515,l),
(771,515,l),
(771,643,l),
(643,643,l),
(643,765,l),
(771,765,l)
);
},
{
closed = 1;
nodes = (
(637,131,l),
(387,131,l),
(387,253,l),
(637,253,l)
);
}
);
};
layerId = "A1CF3A9E-1F49-4701-AF3E-F0E694793914";
shapes = (
{
ref = a;
},
{
ref = acute;
}
);
width = 1024;
},
{
background = {
shapes = (
{
closed = 1;
nodes = (
(771,899,l,{
name = hr00;
}),
(509,899,l),
(509,771,l),
(381,771,l),
(381,643,l),
(253,643,l),
(253,509,l),
(637,509,l),
(637,387,l),
(253,387,l),
(253,259,l),
(125,259,l),
(125,125,l),
(253,125,l),
(253,-3,l),
(899,-3,l),
(899,515,l),
(771,515,l),
(771,643,l),
(643,643,l),
(643,765,l),
(771,765,l)
);
},
{
closed = 1;
nodes = (
(637,131,l),
(387,131,l),
(387,253,l),
(637,253,l)
);
}
);
};
layerId = "93054D9F-9072-4363-B5A9-8BAB03B66C21";
shapes = (
{
ref = a;
},
{
ref = acute;
}
);
width = 1024;
},
{
background = {
shapes = (
{
closed = 1;
nodes = (
(771,899,l,{
name = hr00;
}),
(509,899,l),
(509,771,l),
(381,771,l),
(381,643,l),
(253,643,l),
(253,509,l),
(637,509,l),
(637,387,l),
(253,387,l),
(253,259,l),
(125,259,l),
(125,125,l),
(253,125,l),
(253,-3,l),
(899,-3,l),
(899,515,l),
(771,515,l),
(771,643,l),
(643,643,l),
(643,765,l),
(771,765,l)
);
},
{
closed = 1;
nodes = (
(637,131,l),
(387,131,l),
(387,253,l),
(637,253,l)
);
}
);
};
layerId = "B2CED426-8D3E-4D4E-926E-917DB7E3651C";
shapes = (
{
ref = a;
},
{
ref = acute;
}
);
width = 1024;
}
);
unicode = 225;
userData = {
com.typemytype.robofont.mark = (
0.967,
0.6,
1,
1
);
};
},
